/* XPM */
static char * collectible_destroyed_xpm[] = {
"51 54 21 1",
" 	c #5D2C28",
".	c #171415",
"+	c #716C67",
"@	c #525250",
"#	c #363839",
"$	c #262626",
"%	c #414545",
"&	c #35413D",
"*	c #1F1D1E",
"=	c #282E2D",
"-	c #443528",
";	c #FFFFF3",
">	c #EDEBDB",
",	c #DBD8C6",
"'	c #B9B29F",
")	c #57493B",
"!	c #403429",
"~	c #A79E8D",
"{	c #6E6456",
"]	c #000000",
"^	c #454037",
"                                     ......        ",
"                                    .+++++@.       ",
"                                   .@++++++@.      ",
"                                  .@++++++++@.     ",
"                                  .#@++++++@#.     ",
"                                  .$#@++++@#$.     ",
"                                   .$#@@@@#$.      ",
"                                    .$####$.       ",
"                                     $$$$$.        ",
"                                     $##%#.        ",
"                                     $#%+%.        ",
"                                     $#%+%.        ",
"                    ...              $#%@%.        ",
"                  ..###.             $##%#.        ",
"                &.####$$             $###$.        ",
"               &.$###$$$&            $###$.        ",
"              &.$##$$$**&&&          $##$*.        ",
"              .*$$$$$**.&..........  $##$*.        ",
"             &.**$***..=.$#######$$. $$#$$.        ",
"            &&&.****.==&$##########$.$$##$.        ",
"           &...=....==&.$$$#########$$$#%#.        ",
"   &......&.###...===&.$$$$$$$$$$$$$$*$#%#.        ",
" &..######.$#####$..&&.*$$$$$$$$$$$$$*$%+%.        ",
"&.*$$$##$.$$$$#####$.=.*$$..$$$$$$$***$%@%.        ",
"&.*$$$$$$.$$$$$#####$.=...++.$$$$$**.*$%+%.        ",
"&.***$$$*.**$$$$$####$.=+++@.******.=$$%+%.        ",
"&=.******.*...$$$$$##$$.++@#.*****.=&*$%+%.        ",
"&&=......=.+%#.$$$$$$$.@+@##......=&&*$%@%.        ",
" &&=====..@%##$.$$$$$$.$@#%.=====&&& $$%@%.        ",
"  &&&&..#%%##$$.***$$..$##%.===&&&   $#%%#.        ",
"     .**$$##$$*.****.=.$##@.==&&    &$##%#.&       ",
"    .*$$**$#$*.=....=.*$##%$.&&    &.$##%##.&&     ",
"   .*$$$$**$*.======.**$$##$#.&& &&.$$$###$#.&&    ",
"  &.*$$$$$**.======.*$$*$#$$%#.&&&.$$$$$$$###.&&   ",
"  &.*$$$$$**==&&&==.**$$$$$%#$..&=.*$##%%%#$*.&&   ",
"  &.**$$$**.=&& &&=.***$#%%#$.$#.=.**$$$$$$**.&&   ",
"  &.******.=&&   &&=.***$$$$.$###.=.********.&&&   ",
"  &=.****.=&      &&=.*****.$$##%#.=.******.=&&&   ",
"  &&=....=&&      ------....$$##%%.&=......=&&&    ",
"   &&====&&      -;;;>,'-==.$$##%+#.&======&&&     ",
"   ......&&&    ->>;>>,,'-=.$$##%+%.&&&&&&&...     ",
"  .######...&  -',>>>,,,'-&.$$##%@%.&    &.###..   ",
" .$$########.& --,,'',,'''-.$$##%+%.&   &.$$####.  ",
" .$$$$#######.&-),'!!''''~-.$$##%@%.&  &.$$$$$##$& ",
"&.$$$$$$$####.&-,>!{!''''~-]$$##%%%.& &.$$$$$$$##.&",
"&.$$$$$$$$$$$]-,),,)''''~~-]$$$##%#.& &.*$$$$$$$#.&",
"&=.$$$$$$$$**]-,,,''''~~~-&]$*****#.& &.***$$$$$$.&",
"&&.*$$$******]^-''~-~~~~-&&]***$$**.& &=.****$$$$.&",
"&&.*********.&&^---^----&&&.**$$$$*.&  &=.****$$$&&",
" &&.****....&&&&&^^^^^^&&&&.***$$$$.&  &&=...***.&&",
"  &&....==&&&&  &&&&&&&&  &=.***$$.&&   &&===...&& ",
"   &&&&&&&&&              &&=.***.&&&    &&&===&&  ",
"    &&&&&&&                &&=...&&&      &&&&     ",
"                            &&&&&&&                "};
