/* XPM */
static char * collectible_3_xpm[] = {
"38 71 60 1",
" 	c #5D2C28",
".	c #443528",
"+	c #ACA492",
"@	c #D2CEBC",
"#	c #EDEBDB",
"$	c #FFFFF3",
"%	c #8E8475",
"&	c #7B7061",
"*	c #57493B",
"=	c #6D6152",
"-	c #0C0B0B",
";	c #1F4638",
">	c #232424",
",	c #7ABA7C",
"'	c #A4DE89",
")	c #CBECA3",
"!	c #171818",
"~	c #0F0E0F",
"{	c #0E0D10",
"]	c #23232A",
"^	c #1C0000",
"/	c #110A09",
"(	c #373532",
"_	c #171817",
":	c #231513",
"<	c #292933",
"[	c #A03B2B",
"}	c #1B1B21",
"|	c #242321",
"1	c #34364A",
"2	c #4C0C0C",
"3	c #414760",
"4	c #2D231A",
"5	c #716B60",
"6	c #576882",
"7	c #222330",
"8	c #2B2E3F",
"9	c #372828",
"0	c #394455",
"a	c #5D564D",
"b	c #6DA876",
"c	c #514940",
"d	c #474036",
"e	c #0A090A",
"f	c #60574A",
"g	c #4F5152",
"h	c #3B3B3A",
"i	c #8ECF81",
"j	c #1E1F1F",
"k	c #454037",
"l	c #3D4040",
"m	c #5D6161",
"n	c #141414",
"o	c #343536",
"p	c #71716F",
"q	c #0B0A0A",
"r	c #131313",
"s	c #8A8580",
"t	c #4A4A49",
"u	c #5A5754",
"               .......                ",
"             ..+@@#@@+..              ",
"            .+@@##$##@@+.             ",
"           .+@@##$$$##@@+.            ",
"           .+@##$$$$$##@+.            ",
"          .%+@##$$$$$##@+%.           ",
"          .%+@###$$$###@+%.           ",
"         .%%++@###$###@++%%.          ",
"         .&%%+@@#####@@+%%&.          ",
"         .&%%++@@###@@++%%&.          ",
"         .&&%%+@@@@@@@+%%&&.          ",
"         .&*#$%+@@@@@+%$#*&.          ",
"          .@@#$=+@@@+=$#@@.           ",
"--       .+@;;@#=+++=#@;;@+.       -- ",
"->-      .+;,';@#%+%#@;',;+.      ->- ",
" ->-     .%;')';@@@@@;')';%.     ->-  ",
"  ->--   .%;'))';@#@;'))';%.   -->-   ",
"  ->>!-   .%;'',;#$#;,'';%.   -!>>-   ",
"   ->>!--  .%;;;+#*#+;;;%.  --!>>-    ",
"    ->>!~-{].&%+@*;*@+%&.]{-~!>>-     ",
"    ->>>^~-//.++@=+=@++.]]{~!>>>-     ",
"     ->(_^^:/.+@@+@+@@+.<]~!>(>-      ",
"      ->(^[/}<.+=#=#=+.<<<!>(>-       ",
"      .&>|//1<.*******.<1<!(>&.       ",
"       .&/:/1<.+#=#=#+.<1<>>&.        ",
"       .^:/}111.%+@+%.111<!&%.        ",
"      ^^[2:/1131.....1311<&==.        ",
"       4^::///33<131<3311<=%%.   ^    ",
"       .5//}////133316311<&%+. ^^     ",
"       ./:/<788//33316331<&%+//[^     ",
"       ./:9/1330//331^331<=/////      ",
"       /:/:9/3618//33^63////54 //     ",
"       //a/:9/6138bb^[^/:/[^+.  /     ",
"   ^  //a%c/::/1338bb2://d^^%.  /     ",
"    ^^:/%==e/2:/333bb//8e~dd^+.       ",
"    ^[:/=%!!^[^:/333b}8~~!!%d%.       ",
"     //5%>>!e^c///%%b%&~~!>>%+.       ",
"     //%>(!~~^%5a//+b+%&~~!(>%.f      ",
"     /a>(>!~&ab%+5/b+%+%&~!>(>%.      ",
"    f/>(>!~&%bb%+^[:/%++%&~!>(>-f     ",
"    -_>>!~&%+bb]<^^//]]]+%&~!>>>-     ",
"    ->>!~&]]<bb1^7b7//<1^]]&~!>>-     ",
"   ->>!gh]<<1bib733b/:^^7<<]hg!>>-    ",
"  ->>!/gg<<13<bbb33bb/[^31<<g^j!>>-   ",
"  ->--//g<113<33b33bb/:://1<g^j-->-   ",
" ->-fk/l/<13^133333bib///://^[^kf->-  ",
"->-ff//m//^^013333bi'b870///:2/kff->- ",
"--  f/nmo/[^61333bi)b3316877//:/f ^-- ",
"    //jmm//861333b'ib3316331ll/:^^    ",
"    /kjmm7//13b36bib13331631mmn/[^    ",
"  //[^jpm18//3b3bib313331631mpjk//    ",
" /  ^^jpm13//3bbibqq16331631mpjkf//   ",
"    fk^pm13//33bi''bq1331631mpjkff/// ",
"    fknpm130//qbbb)'bq331631mpjkf fff/",
"    fkjpm136///rb''brq131631mpjkf     ",
"    fkjspppp/t//rrrrqmmppppppsjkf     ",
"    fkjmssss/su//qqqp^sssssssmjkf     ",
"    fkjgmmmm/mml//m^^lmmmmmmmgjkf     ",
"    fkjggmmm/mmml//[^mmmmmmmggjkf     ",
"    ffjhgggg/mmmm/:/lmmmmgggghjff     ",
"     fk^hhgg/ggggo//ggggggghhjkf      ",
"     ffk^^j//jjjjj//jjjjjjjjjkff      ",
"      ff^[//kkkkkkk//kk^kkk///////    ",
"       ////fffffffff//f^/////f    /   ",
"      //ffffffffffff/:^[2/ff    ^     ",
"     /ff           ff//2::/// ^^      ",
"                    fff/////:/[^      ",
"                      ffffff////      ",
"                           ffff//     ",
"                              ff/     ",
"                                 /    "};
