/* XPM */
static char * collectible_2_xpm[] = {
"38 71 60 1",
" 	c #5D2C28",
".	c #443528",
"+	c #ACA492",
"@	c #D2CEBC",
"#	c #EDEBDB",
"$	c #FFFFF3",
"%	c #8E8475",
"&	c #7B7061",
"*	c #57493B",
"=	c #6D6152",
"-	c #0C0B0B",
";	c #1F4638",
">	c #232424",
",	c #7ABA7C",
"'	c #A4DE89",
")	c #171818",
"!	c #0F0E0F",
"~	c #0E0D10",
"{	c #23232A",
"]	c #1C0000",
"^	c #110A09",
"/	c #373532",
"(	c #171817",
"_	c #231513",
":	c #292933",
"<	c #A03B2B",
"[	c #1B1B21",
"}	c #242321",
"|	c #34364A",
"1	c #4C0C0C",
"2	c #414760",
"3	c #2D231A",
"4	c #716B60",
"5	c #576882",
"6	c #222330",
"7	c #2B2E3F",
"8	c #372828",
"9	c #394455",
"0	c #5D564D",
"a	c #514940",
"b	c #474036",
"c	c #0A090A",
"d	c #6DA876",
"e	c #8ECF81",
"f	c #60574A",
"g	c #4F5152",
"h	c #3B3B3A",
"i	c #1E1F1F",
"j	c #454037",
"k	c #3D4040",
"l	c #5D6161",
"m	c #141414",
"n	c #343536",
"o	c #CBECA3",
"p	c #71716F",
"q	c #0B0A0A",
"r	c #131313",
"s	c #8A8580",
"t	c #4A4A49",
"u	c #5A5754",
"               .......                ",
"             ..+@@#@@+..              ",
"            .+@@##$##@@+.             ",
"           .+@@##$$$##@@+.            ",
"           .+@##$$$$$##@+.            ",
"          .%+@##$$$$$##@+%.           ",
"          .%+@###$$$###@+%.           ",
"         .%%++@###$###@++%%.          ",
"         .&%%+@@#####@@+%%&.          ",
"         .&%%++@@###@@++%%&.          ",
"         .&&%%+@@@@@@@+%%&&.          ",
"         .&*#$%+@@@@@+%$#*&.          ",
"          .@@#$=+@@@+=$#@@.           ",
"--       .+@;;@#=+++=#@;;@+.       -- ",
"->-      .+;,,;@#%+%#@;,,;+.      ->- ",
" ->-     .%;,',;@@@@@;,',;%.     ->-  ",
"  ->--   .%;,'',;@#@;,'',;%.   -->-   ",
"  ->>)-   .%;,,,;#$#;,,,;%.   -)>>-   ",
"   ->>)--  .%;;;+#*#+;;;%.  --)>>-    ",
"    ->>)!-~{.&%+@*;*@+%&.{~-!)>>-     ",
"    ->>>]!-^^.++@=+=@++.{{~!)>>>-     ",
"     ->/(]]_^.+@@+@+@@+.:{!)>/>-      ",
"      ->/]<^[:.+=#=#=+.:::)>/>-       ",
"      .&>}^^|:.*******.:|:)/>&.       ",
"       .&^_^|:.+#=#=#+.:|:>>&.        ",
"       .]_^[|||.%+@+%.|||:)&%.        ",
"      ]]<1_^||2|.....|2||:&==.        ",
"       3]__^^^22:|2|:22||:=%%.   ]    ",
"       .4^^[^^^^|222|52||:&%+. ]]     ",
"       .^_^:677^^222|522|:&%+^^<]     ",
"       .^_8^|229^^22|]22|:=^^^^^      ",
"       ^_^_8^25|7^^22]52^^^^43 ^^     ",
"       ^^0^_8^5|27^^]<]^_^<]+.  ^     ",
"   ]  ^^0%a^__^|227^_1_^^b]]%.  ^     ",
"    ]]_^%==c^1_^2227^^^7c!bb]+.       ",
"    ]<_^=%))]<]_^22d6[7!!))%b%.       ",
"     ^^4%>>)c]a^^^%dd%&!!)>>%+.       ",
"     ^^%>/)!!]%4ddded+%&!!)/>%.f      ",
"     ^0>/>)!&0+deeed+%+%&!)>/>%.      ",
"    f^>/>)!&%+de'edd^%++%&!)>/>-f     ",
"    -(>>)!&%+{deed]^^{{{+%&!)>>>-     ",
"    ->>)!&{{:|ded666^^:|]{{&!)>>-     ",
"   ->>)gh{::|2dd6222^_]]6::{hg)>>-    ",
"  ->>)^gg::|2:|dd2227^<]2|::g]i)>>-   ",
"  ->--^^g:||2:2de2d22^__^^|:g]i-->-   ",
" ->-fj^k^:|2]|22d2d227^^^_^^]<]jf->-  ",
"->-ff^^l^^]]9|2222dd22769^^^_1^jff->- ",
"--  f^mln^<]5|222deed22|5766^^_^f ]-- ",
"    ^^ill^^75|22deod|22|522|kk^_]]    ",
"    ^jill6^^|22de'ed|222|52|llm^<]    ",
"  ^^<]ipl|7^^22deed2|222|52|lpij^^    ",
" ^  ]]ipl|2^^22dedqq|522|52|lpijf^^   ",
"    fj]pl|2^^22qddddq|22|52|lpijff^^^ ",
"    fjmpl|29^^qddd'ddq22|52|lpijf fff^",
"    fjipl|25^^^rddddrq|2|52|lpijf     ",
"    fjispppp^t^^rrrrqllppppppsijf     ",
"    fjilssss^su^^qqqp]ssssssslijf     ",
"    fjigllll^llk^^l]]klllllllgijf     ",
"    fjigglll^lllk^^<]lllllllggijf     ",
"    ffihgggg^llll^_^kllllgggghiff     ",
"     fj]hhgg^ggggn^^ggggggghhijf      ",
"     ffj]]i^^iiiii^^iiiiiiiiijff      ",
"      ff]<^^jjjjjjj^^jj]jjj^^^^^^^    ",
"       ^^^^fffffffff^^f]^^^^^f    ^   ",
"      ^^ffffffffffff^_]<1^ff    ]     ",
"     ^ff           ff^^1__^^^ ]]      ",
"                    fff^^^^^_^<]      ",
"                      ffffff^^^^      ",
"                           ffff^^     ",
"                              ff^     ",
"                                 ^    "};
