/* XPM */
static char * TX Props_xpm[] = {
"48 48 845 2",
"  	c None",
". 	c #61412E",
"+ 	c #5F3F2A",
"@ 	c #5F3E29",
"# 	c #5B3720",
"$ 	c #5E3C25",
"% 	c #5E3E29",
"& 	c #61422E",
"* 	c #715A49",
"= 	c #7A6857",
"- 	c #766350",
"; 	c #76614F",
"> 	c #5F402B",
", 	c #563018",
"' 	c #542D15",
") 	c #542C15",
"! 	c #573018",
"~ 	c #532C15",
"{ 	c #532C14",
"] 	c #5A361F",
"^ 	c #674C39",
"/ 	c #75614F",
"( 	c #76624F",
"_ 	c #7A6957",
": 	c #684F3E",
"< 	c #776251",
"[ 	c #827260",
"} 	c #7E6C59",
"| 	c #7D6B59",
"1 	c #624430",
"2 	c #624228",
"3 	c #66472C",
"4 	c #66462A",
"5 	c #67472C",
"6 	c #67472B",
"7 	c #6E5136",
"8 	c #705339",
"9 	c #73573D",
"0 	c #694A30",
"a 	c #66452A",
"b 	c #66462B",
"c 	c #66472B",
"d 	c #684A2E",
"e 	c #684A2F",
"f 	c #65452A",
"g 	c #65462B",
"h 	c #63422A",
"i 	c #6C5240",
"j 	c #7C6A59",
"k 	c #827362",
"l 	c #6D5544",
"m 	c #7D6B5A",
"n 	c #897B6A",
"o 	c #847462",
"p 	c #837362",
"q 	c #664935",
"r 	c #6D4F33",
"s 	c #765A3C",
"t 	c #775B3E",
"u 	c #785C3F",
"v 	c #7E6447",
"w 	c #7A6044",
"x 	c #65442C",
"y 	c #866D50",
"z 	c #7B6043",
"A 	c #775C3F",
"B 	c #775B3F",
"C 	c #7A5F43",
"D 	c #775D41",
"E 	c #634128",
"F 	c #7E6549",
"G 	c #765A3E",
"H 	c #765B3E",
"I 	c #6C4E34",
"J 	c #705846",
"K 	c #897C6D",
"L 	c #735D4D",
"M 	c #847364",
"N 	c #918576",
"O 	c #8B7D6C",
"P 	c #6B4E3B",
"Q 	c #73553B",
"R 	c #7F6548",
"S 	c #836A4C",
"T 	c #836A4D",
"U 	c #7F664A",
"V 	c #6D4F35",
"W 	c #8D765A",
"X 	c #82694C",
"Y 	c #866E51",
"Z 	c #826A4F",
"` 	c #68482E",
" .	c #846C51",
"..	c #836B4E",
"+.	c #72553D",
"@.	c #745D4C",
"#.	c #8A7C6C",
"$.	c #928779",
"%.	c #786455",
"&.	c #877768",
"*.	c #968B7C",
"=.	c #928575",
"-.	c #6D5240",
";.	c #75593F",
">.	c #82684B",
",.	c #856C4E",
"'.	c #897255",
").	c #846B51",
"!.	c #705137",
"~.	c #907A5F",
"{.	c #886F52",
"].	c #846B4D",
"^.	c #887154",
"/.	c #866E53",
"(.	c #694B30",
"_.	c #877053",
":.	c #856D50",
"<.	c #846A4D",
"[.	c #73573E",
"}.	c #776252",
"|.	c #908475",
"1.	c #968C7E",
"2.	c #7A6759",
"3.	c #8A7B6C",
"4.	c #998E80",
"5.	c #948777",
"6.	c #6E5341",
"7.	c #76593F",
"8.	c #846C4E",
"9.	c #8A7356",
"0.	c #8B7457",
"a.	c #90795E",
"b.	c #8B7258",
"c.	c #76593E",
"d.	c #907A5E",
"e.	c #8B7558",
"f.	c #897356",
"g.	c #8A7357",
"h.	c #8A7456",
"i.	c #8C765A",
"j.	c #877055",
"k.	c #6C4D32",
"l.	c #897256",
"m.	c #8A7256",
"n.	c #775C43",
"o.	c #786353",
"p.	c #928677",
"q.	c #9A9083",
"r.	c #7D6B5C",
"s.	c #8C7D6F",
"t.	c #9C9284",
"u.	c #978B7C",
"v.	c #6F5443",
"w.	c #775A40",
"x.	c #8D785B",
"y.	c #8E795C",
"z.	c #937D62",
"A.	c #8E765C",
"B.	c #795E42",
"C.	c #917B5F",
"D.	c #8D785C",
"E.	c #8F795D",
"F.	c #887156",
"G.	c #8D775A",
"H.	c #8C775A",
"I.	c #8D775B",
"J.	c #795F46",
"K.	c #796455",
"L.	c #94887A",
"M.	c #9D9286",
"N.	c #7F6D5E",
"O.	c #8D7D6F",
"P.	c #9F9588",
"Q.	c #9C9183",
"R.	c #9C9283",
"S.	c #715746",
"T.	c #785C42",
"U.	c #8F7A5D",
"V.	c #947E63",
"W.	c #8F775D",
"X.	c #7A5E42",
"Y.	c #947E62",
"Z.	c #8E795D",
"`.	c #8A7358",
" +	c #6D4F34",
".+	c #8C7559",
"++	c #8F795C",
"@+	c #796047",
"#+	c #7B6758",
"$+	c #988C80",
"%+	c #998C7F",
"&+	c #9E9488",
"*+	c #806E5F",
"=+	c #8D7E71",
"-+	c #A1978B",
";+	c #A09689",
">+	c #A0968A",
",+	c #725949",
"'+	c #795D42",
")+	c #947F63",
"!+	c #988367",
"~+	c #917A5F",
"{+	c #7A5D42",
"]+	c #968065",
"^+	c #957F64",
"/+	c #937E63",
"(+	c #947F64",
"_+	c #8C755B",
":+	c #947F62",
"<+	c #937E62",
"[+	c #7D644B",
"}+	c #806C5E",
"|+	c #9F9488",
"1+	c #816F60",
"2+	c #8E7E71",
"3+	c #A2988B",
"4+	c #A09789",
"5+	c #795C42",
"6+	c #958064",
"7+	c #958165",
"8+	c #968165",
"9+	c #988468",
"0+	c #958065",
"a+	c #8D775C",
"b+	c #6F5136",
"c+	c #927C61",
"d+	c #948064",
"e+	c #7D644C",
"f+	c #9F9589",
"g+	c #827061",
"h+	c #8E7F71",
"i+	c #725848",
"j+	c #785C41",
"k+	c #8B7357",
"l+	c #968166",
"m+	c #978165",
"n+	c #795D41",
"o+	c #8D775D",
"p+	c #6E5036",
"q+	c #927D62",
"r+	c #7F6C5E",
"s+	c #826F61",
"t+	c #8D7E70",
"u+	c #A1988A",
"v+	c #9E9487",
"w+	c #715646",
"x+	c #775B40",
"y+	c #8B7256",
"z+	c #967F63",
"A+	c #967F64",
"B+	c #978266",
"C+	c #8E785C",
"D+	c #968266",
"E+	c #957F63",
"F+	c #7F6C5C",
"G+	c #9D9386",
"H+	c #826F60",
"I+	c #8B7C6F",
"J+	c #9E9587",
"K+	c #998E7F",
"L+	c #6E5342",
"M+	c #75583D",
"N+	c #927B5D",
"O+	c #927B5E",
"P+	c #917B5D",
"Q+	c #785C40",
"R+	c #937C5F",
"S+	c #917A5D",
"T+	c #917A5E",
"U+	c #907A5D",
"V+	c #937D61",
"W+	c #8D785D",
"X+	c #6D4E34",
"Y+	c #927D61",
"Z+	c #927C60",
"`+	c #907A5C",
" @	c #7B6147",
".@	c #7C6858",
"+@	c #988D7E",
"@@	c #816E60",
"#@	c #8A7B6D",
"$@	c #9D9385",
"%@	c #978C7D",
"&@	c #6D5140",
"*@	c #74573C",
"=@	c #876E51",
"-@	c #917A5C",
";@	c #947E61",
">@	c #785B40",
",@	c #927C5E",
"'@	c #90795C",
")@	c #6C4E33",
"!@	c #927C5F",
"~@	c #8F795B",
"{@	c #7A6046",
"]@	c #7B6656",
"^@	c #9E9486",
"/@	c #816E5F",
"(@	c #89796B",
"_@	c #9B9182",
":@	c #948878",
"<@	c #6A4F3D",
"[@	c #73563B",
"}@	c #937D60",
"|@	c #8B7458",
"1@	c #8D765B",
"2@	c #6B4D32",
"3@	c #796452",
"4@	c #938777",
"5@	c #9B9183",
"6@	c #806D5E",
"7@	c #867768",
"8@	c #978D7D",
"9@	c #8F8270",
"0@	c #715439",
"a@	c #856C50",
"b@	c #8F785A",
"c@	c #897155",
"d@	c #73553A",
"e@	c #937C61",
"f@	c #90785D",
"g@	c #8B7459",
"h@	c #694B2F",
"i@	c #8E785A",
"j@	c #8E7759",
"k@	c #785E44",
"l@	c #765F4E",
"m@	c #8D816F",
"n@	c #988E7F",
"o@	c #7E6B5C",
"p@	c #867667",
"q@	c #968C7C",
"r@	c #8E8270",
"s@	c #664A38",
"t@	c #6E4F35",
"u@	c #7F6347",
"v@	c #856C4F",
"w@	c #897053",
"x@	c #83694D",
"y@	c #725338",
"z@	c #8C7357",
"A@	c #876E52",
"B@	c #846C50",
"C@	c #846D51",
"D@	c #846D50",
"E@	c #846C4F",
"F@	c #856C52",
"G@	c #876F53",
"H@	c #74583E",
"I@	c #76604E",
"J@	c #8D806F",
"K@	c #978D7E",
"L@	c #7D6A5A",
"M@	c #938778",
"N@	c #8A7D6C",
"O@	c #8A7E6C",
"P@	c #634735",
"Q@	c #6C4C33",
"R@	c #7D6145",
"S@	c #846B4E",
"T@	c #866E50",
"U@	c #7F6549",
"V@	c #6C4B31",
"W@	c #887054",
"X@	c #836A4E",
"Y@	c #876E53",
"Z@	c #82694F",
"`@	c #623F25",
" #	c #866C51",
".#	c #82694D",
"+#	c #72553C",
"@#	c #735C4B",
"##	c #897C6B",
"$#	c #897B6B",
"%#	c #7A6657",
"&#	c #908373",
"*#	c #887A69",
"=#	c #887B69",
"-#	c #624532",
";#	c #6B4B32",
">#	c #7C6145",
",#	c #7D6246",
"'#	c #66442C",
")#	c #806649",
"!#	c #806549",
"~#	c #846B50",
"{#	c #80684E",
"]#	c #5E3B22",
"^#	c #846B4F",
"/#	c #71533B",
"(#	c #705948",
"_#	c #867968",
":#	c #867868",
"<#	c #7A6556",
"[#	c #887969",
"}#	c #837462",
"|#	c #60422F",
"1#	c #7C6044",
"2#	c #82684C",
"3#	c #81664A",
"4#	c #83694C",
"5#	c #7A5F44",
"6#	c #624028",
"7#	c #82694E",
"8#	c #7B6044",
"9#	c #775C40",
"0#	c #775A3F",
"a#	c #765A40",
"b#	c #7E6349",
"c#	c #7E644A",
"d#	c #5C3921",
"e#	c #80664B",
"f#	c #7F654A",
"g#	c #6F5139",
"h#	c #6E5544",
"i#	c #817261",
"j#	c #88796A",
"k#	c #715B4B",
"l#	c #5E3C29",
"m#	c #5F402D",
"n#	c #5E3E2B",
"o#	c #57311A",
"p#	c #775A3E",
"q#	c #795C40",
"r#	c #785A3F",
"s#	c #795A3F",
"t#	c #785B3F",
"u#	c #7C6144",
"v#	c #755A3E",
"w#	c #5A351D",
"x#	c #725439",
"y#	c #67462F",
"z#	c #624029",
"A#	c #613F29",
"B#	c #5F3E27",
"C#	c #5F3E28",
"D#	c #5E3D26",
"E#	c #6D4F37",
"F#	c #75583F",
"G#	c #59361C",
"H#	c #75583C",
"I#	c #75593E",
"J#	c #73563C",
"K#	c #72543A",
"L#	c #67462E",
"M#	c #5D3A26",
"N#	c #5B3C2A",
"O#	c #5D3F2D",
"P#	c #5C3B27",
"Q#	c #735E4E",
"R#	c #837364",
"S#	c #827263",
"T#	c #5F4130",
"U#	c #5E3B23",
"V#	c #634229",
"W#	c #634129",
"X#	c #65452C",
"Y#	c #624129",
"Z#	c #562F18",
"`#	c #5F3C24",
" $	c #5A351E",
".$	c #7F6D5B",
"+$	c #7E6D5A",
"@$	c #7F6D5A",
"#$	c #694F3D",
"$$	c #614029",
"%$	c #563118",
"&$	c #603F26",
"*$	c #613F28",
"=$	c #603E26",
"-$	c #5F3D25",
";$	c #6A5141",
">$	c #817162",
",$	c #827264",
"'$	c #817263",
")$	c #6D5444",
"!$	c #7D6C5C",
"~$	c #908474",
"{$	c #8E8171",
"]$	c #8D8070",
"^$	c #624636",
"/$	c #58331B",
"($	c #59351E",
"_$	c #59341E",
":$	c #57321B",
"<$	c #552D16",
"[$	c #58321B",
"}$	c #542E16",
"|$	c #746151",
"1$	c #847563",
"2$	c #867664",
"3$	c #6C5543",
"4$	c #57321A",
"5$	c #5C3A20",
"6$	c #5A3820",
"7$	c #593620",
"8$	c #593720",
"9$	c #57331C",
"0$	c #6E5848",
"a$	c #8C7F6F",
"b$	c #8D8071",
"c$	c #745F4E",
"d$	c #796655",
"e$	c #857866",
"f$	c #7E6F5D",
"g$	c #7D6E5D",
"h$	c #5E3F2D",
"i$	c #5E3B24",
"j$	c #63422B",
"k$	c #62422B",
"l$	c #63422C",
"m$	c #5F3C26",
"n$	c #552F17",
"o$	c #5F3D24",
"p$	c #563119",
"q$	c #6B5746",
"r$	c #6F5D4C",
"s$	c #593824",
"t$	c #73604E",
"u$	c #634938",
"v$	c #58341C",
"w$	c #6A4D30",
"x$	c #66492F",
"y$	c #64462E",
"z$	c #64472E",
"A$	c #5B3A23",
"B$	c #654C3C",
"C$	c #7C6C5C",
"D$	c #7D6E5C",
"E$	c #867967",
"F$	c #6F5948",
"G$	c #776553",
"H$	c #837664",
"I$	c #7C6D5B",
"J$	c #7C6C5B",
"K$	c #5E3E25",
"L$	c #694C30",
"M$	c #705435",
"N$	c #6F5436",
"O$	c #715436",
"P$	c #705436",
"Q$	c #715638",
"R$	c #6B4D31",
"S$	c #674A2D",
"T$	c #59361D",
"U$	c #675140",
"V$	c #776755",
"W$	c #766352",
"X$	c #532B14",
"Y$	c #6C5A48",
"Z$	c #5F4534",
"`$	c #553018",
" %	c #705537",
".%	c #6F5336",
"+%	c #6D5034",
"@%	c #6D5134",
"#%	c #5F3F26",
"$%	c #644B3A",
"%%	c #7B6A5A",
"&%	c #7B6B5A",
"*%	c #847665",
"=%	c #6E5746",
"-%	c #766251",
";%	c #7F7160",
">%	c #786956",
",%	c #786856",
"'%	c #5C3D2A",
")%	c #5E3D25",
"!%	c #6F5235",
"~%	c #6F5335",
"{%	c #725738",
"]%	c #6C5033",
"^%	c #563219",
"/%	c #694C2F",
"(%	c #59361E",
"_%	c #654F3E",
":%	c #736352",
"<%	c #715F4D",
"[%	c #522B14",
"}%	c #6A5948",
"|%	c #5E4533",
"1%	c #715537",
"2%	c #5F3E25",
"3%	c #624937",
"4%	c #807261",
"5%	c #6B5443",
"6%	c #735E4D",
"7%	c #7B6C5B",
"8%	c #746552",
"9%	c #756552",
"0%	c #5B3C29",
"a%	c #5D3C24",
"b%	c #674A2E",
"c%	c #6D5033",
"d%	c #6D5032",
"e%	c #715637",
"f%	c #6C5032",
"g%	c #634B3A",
"h%	c #6D5B4A",
"i%	c #6B5846",
"j%	c #644A38",
"k%	c #6B5948",
"l%	c #5D4231",
"m%	c #6E5234",
"n%	c #6B4F31",
"o%	c #5E3E24",
"p%	c #604735",
"q%	c #736451",
"r%	c #736351",
"s%	c #7C6E5D",
"t%	c #685040",
"u%	c #6E5A49",
"v%	c #776957",
"w%	c #71624F",
"x%	c #726351",
"y%	c #593B28",
"z%	c #5D3B23",
"A%	c #66492E",
"B%	c #6C5031",
"C%	c #6C4F31",
"D%	c #715536",
"E%	c #5A381F",
"F%	c #5F4432",
"G%	c #664F3E",
"H%	c #695340",
"I%	c #776551",
"J%	c #6A5543",
"K%	c #5B3E2B",
"L%	c #5A361E",
"M%	c #5D3B22",
"N%	c #543018",
"O%	c #6F5437",
"P%	c #6D5234",
"Q%	c #5F4634",
"R%	c #70614E",
"S%	c #786958",
"T%	c #644C3C",
"U%	c #70614D",
"V%	c #573926",
"W%	c #5B3A22",
"X%	c #66482C",
"Y%	c #705536",
"Z%	c #6C4F32",
"`%	c #684B2F",
" &	c #634328",
".&	c #5A3821",
"+&	c #55321E",
"@&	c #56331F",
"#&	c #583824",
"$&	c #56341F",
"%&	c #5B3821",
"&&	c #634329",
"*&	c #64462A",
"=&	c #6B4F32",
"-&	c #5D3D24",
";&	c #5D4432",
">&	c #6F604D",
",&	c #746654",
"'&	c #614938",
")&	c #67513E",
"!&	c #72614D",
"~&	c #6E5C47",
"{&	c #6E5C48",
"]&	c #563723",
"^&	c #65462A",
"/&	c #694D30",
"(&	c #6B4E32",
"_&	c #614127",
":&	c #5C3A21",
"<&	c #64472B",
"[&	c #6C5133",
"}&	c #694D31",
"|&	c #5B3C23",
"1&	c #5B412F",
"2&	c #6D5B47",
"3&	c #72624E",
"4&	c #664F3C",
"5&	c #715F4A",
"6&	c #6C5943",
"7&	c #6D5843",
"8&	c #553622",
"9&	c #5A371F",
"0&	c #634429",
"a&	c #674B2F",
"b&	c #6D5235",
"c&	c #6A4E31",
"d&	c #553119",
"e&	c #66492D",
"f&	c #64462B",
"g&	c #6B5033",
"h&	c #684C2F",
"i&	c #5A3B22",
"j&	c #5A3F2C",
"k&	c #6C5843",
"l&	c #6B5843",
"m&	c #71604C",
"n&	c #725E4A",
"o&	c #6C5742",
"p&	c #553521",
"q&	c #664A2E",
"r&	c #6C5134",
"s&	c #5A3F2B",
"t&	c #6B5742",
"u&	c #72604C",
"v&	c #5E4433",
"w&	c #715E4A",
"x&	c #543521",
"y&	c #59361F",
"z&	c #63442A",
"A&	c #684C30",
"B&	c #5C3E2B",
"C&	c #634935",
"D&	c #604531",
"E&	c #5F432F",
"F&	c #5B3820",
"G&	c #614026",
"H&	c #624329",
"I&	c #624328",
"J&	c #542F18",
"K&	c #67492E",
"L&	c #5A3921",
"M&	c #583723",
"N&	c #5F4430",
"O&	c #624834",
"P&	c #573724",
"Q&	c #604636",
"R&	c #6C5645",
"S&	c #6B5544",
"T&	c #6A5343",
"U&	c #6A5443",
"V&	c #604430",
"W&	c #532D16",
"X&	c #58341D",
"Y&	c #542E17",
"Z&	c #65472C",
"`&	c #634936",
" *	c #6A5342",
".*	c #5A3D2C",
"+*	c #6F5D4D",
"@*	c #817463",
"#*	c #807362",
"$*	c #807361",
"%*	c #827563",
"&*	c #665140",
"**	c #52301B",
"=*	c #553624",
"-*	c #563825",
";*	c #593926",
">*	c #593927",
",*	c #593A27",
"'*	c #5A3B28",
")*	c #5A3C2A",
"!*	c #5B3D2B",
"~*	c #5B3D2C",
"{*	c #5B3C2B",
"]*	c #5A3B29",
"^*	c #593A28",
"/*	c #583926",
"(*	c #563726",
"_*	c #563725",
":*	c #512D19",
"<*	c #6F5C4C",
"[*	c #817362",
"}*	c #817562",
"|*	c #65503F",
"1*	c #64503F",
"2*	c #726350",
"3*	c #776855",
"4*	c #614937",
"5*	c #624B39",
"6*	c #766653",
"7*	c #786855",
"8*	c #796956",
"9*	c #7B6B59",
"0*	c #7C6D5A",
"a*	c #7D6F5D",
"b*	c #837564",
"c*	c #847565",
"d*	c #847666",
"e*	c #857666",
"f*	c #857667",
"g*	c #827463",
"h*	c #817363",
"i*	c #7F7260",
"j*	c #7E715F",
"k*	c #7C6E5C",
"l*	c #796A58",
"m*	c #776856",
"n*	c #766755",
"o*	c #5A3F2E",
"p*	c #685342",
"q*	c #766654",
"r*	c #726250",
"s*	c #5D4534",
"t*	c #685542",
"u*	c #685441",
"v*	c #73624E",
"w*	c #604734",
"x*	c #5E4532",
"y*	c #6F5C49",
"z*	c #6E5D49",
"A*	c #705E4A",
"B*	c #715F4B",
"C*	c #72604D",
"D*	c #73624F",
"E*	c #746351",
"F*	c #766554",
"G*	c #766555",
"H*	c #776655",
"I*	c #776656",
"J*	c #766655",
"K*	c #756554",
"L*	c #746453",
"M*	c #746352",
"N*	c #72614F",
"O*	c #705F4D",
"P*	c #6F5E4C",
"Q*	c #583C2A",
"R*	c #715E4B",
"S*	c #685440",
"T*	c #685541",
"U*	c #593D2B",
"V*	c #573825",
"W*	c #5C412E",
"X*	c #67503D",
"Y*	c #5A3D2A",
"Z*	c #563724",
"`*	c #5F4532",
" =	c #5E4430",
".=	c #5F4633",
"+=	c #604634",
"@=	c #604736",
"#=	c #614836",
"$=	c #604837",
"%=	c #5F4736",
"&=	c #5F4735",
"*=	c #5F4635",
"==	c #533220",
"-=	c #654D3A",
";=	c #5C412D",
">=	c #5C422E",
",=	c #543320",
"'=	c #4F2713",
")=	c #4E2713",
"!=	c #4E2712",
"                                                                                                ",
"                                                                                                ",
"                                                                                                ",
"                                                                                                ",
"            . + @ #                                                         $ % % &             ",
"          * = - ; > , ' ' ' ' ) !       ~ { { { { { { {       { { { { { { ] ^ / ( _ :           ",
"          < [ } | 1 2 3 4 4 5 6 7 8   9 0 a b 3 3 3 c d e   8 0 f g 3 3 c h i j | k l           ",
"          m n o p q r s t t u u v w x y z t t A B B t C D E F C G H B B t I J k p K L           ",
"          M N O O P Q R S T T T y U V W y S S S X X X Y Z `  ...X X X X X +.@.#.#.$.%.          ",
"          &.*.=.=.-.;.>.,.,.,.,.'.).!.~.{.].].].].].].^./.(._.:.T T <.T T [.}.|.|.1.2.          ",
"          3.4.5.5.6.7.8.9.0.0.0.a.b.c.d.e.f.g.g.g.9.h.i.j.k.'.9.'.l.m.l.f.n.o.p.p.q.r.          ",
"          s.t.u.u.v.w.Y x.y.y.y.z.A.B.C.y.x.D.D.D.x.x.E.F.r g.G.H.I.I.I.I.J.K.L.L.M.N.          ",
"          O.P.Q.R.S.T.^.U.U.U.U.V.W.X.Y.C.E.E.Z.Z.Z.Z.~.`. +.+++y.y.y.y.y.@+#+$+%+&+*+          ",
"          =+-+;+>+,+'+0.)+)+)+)+!+~+{+]+^+V.V./+/+/+/+(+_+7 C.:+<+<+<+<+<+[+}+P.|+>+1+          ",
"          2+3+4+>+,+5+0.6+7+8+8+9+~.{+8+]+6+0+0+0+0+0+0+a+b+c+6+(+d+6+6+d+e+}+f+P.-+g+          ",
"          h+3+4+;+i+j+k+6+l+m+8+!+E.n+8+8+6+0+0+0+0+0+l+o+p+q+6+(+0+0+0+6+e+r+|+P.-+s+          ",
"          t+u+P.v+w+x+y+z+A+A+z+B+C+j+D+6+E+E+V.V.V.V.0+o+V q+E+Y.V.V.V.Y.[+F+G+v+>+H+          ",
"          I+J+K+K+L+M+{.N+O+O+P+E+C+Q+8+R+S+T+d.U+U+E.V+W+X+Y+Z+U+U+U+`+`+ @.@+@+@|+@@          ",
"          #@$@%@%@&@*@=@-@-@-@`+;@W >@6+,@'@'@'@++++++Y+o+)@Y+!@~@++++~@~@{@]@*.*.^@/@          ",
"          (@_@:@:@<@[@=@S+-@-@`+}@|@c.E+C.++++++++++++Z+1@2@c+!@~@~@++~@~@J.3@4@4@5@6@          ",
"          7@8@9@9@^ 0@a@++b@b@b@P+c@d@e@f@W W W W W W d.g@h@d.d.i@j@j@j@j@k@l@m@m@n@o@          ",
"          p@q@r@r@s@t@u@y y v@:.w@x@y@z@A@a@B@C@D@D@E@c@F@a c@G@v@v@v@v@v@H@I@J@J@K@L@          ",
"          M M@N@O@P@Q@R@S@S@S@S@T@U@V@W@a@T X@X@T T T Y@Z@`@ #a@.#.#.#.#.#+#@###$#L.%#          ",
"          1+&#*#=#-#;#>#S@S@S@T v@,#'#/.X )#)#)#!#!#U@~#{#]#~#^#.#.#.#.#.#/#(#_#:#|.}.          ",
"          <#[#}#}#|#;#1#X X 2#3#4#5#6#7#8#9#x+0#w.w.a#b#c#d#7#7#e#U e#U f#g#h#i#i#j#k#          ",
"          l#m#n#n#o#;#p#q#r#s#t#u#v#w#x#y#z#A#A#B#C#D#E#F#G#H#x+I#*@J#[@K#L#M#N#N#O#P#          ",
"          Q#R#R#S#T#U#V#V#W#W#W#X#Y#Z#`# $(#.$.$+$@$#$$ $$%$&$z#*$=$=$=$-$# ;$>$,$'$)$          ",
"          !$~${$]$^$/$ $ $($($($_$:$<$[$}$|$1$| | 2$3$o#4$}$5$6$7$7$7$8$8$9$0$a$b$~$c$          ",
"          d$e$f$g$h$i$j$j$k$j$k$l$m$n$o$p$q$r$s${ t$u$v$d#n$w$x$y$y$y$z$y$A$B$C$D$E$F$          ",
"          G$H$I$J$O#K$L$M$N$O$P$Q$R$p$S$T$U$V$W$X$Y$Z$v$d#`$ %.%+%+%+%@%+%#%$%%%&%*%=%          ",
"          -%;%>%,%'%)%(.!%!%!%~%{%]%^%/%(%_%:%<%[%}%|%v$d#`$1%~%]%]%]%]%]%2%3%V$V$4%5%          ",
"          6%7%8%9%0%a%b%c%d%d%d%e%f%p$/%(%g%h%i%j%k%l%v$d#`$ %m%n%n%n%n%n%o%p%q%r%s%t%          ",
"          u%v%w%x%y%z%A%f%B%C%C%D%f%p$h@E%F%G%H%I%J%K%L%M%N%O%P%n%n%n%n%n%o%Q%w%R%S%T%          ",
"          J%8%U%R%V%W%X%C%C%C%n%Y%Z%p$`% &.&+&@&#&$&%&&&*&N%N$P%n%n%n%n%=&-&;&>&>&,&'&          ",
"          )&!&~&{&]&6$^&w$w$w$/&~%(&p$`%b%_&:&:&:&:&2 b%<&N%N$[&/&/&/&/&}&|&1&2&2&3&Q%          ",
"          4&5&6&7&8&9&0&`%`%`%a&b&c&d&`%/&e&f&f&g g b%/&f&N%N$g&h&a&a&a&h&i&j&k&l&m&F%          ",
"          4&n&k&o&p&] 0&a&a&a&q&r&}&d&`%/&/&/&/&/&/&/&/&f&N%N$=&a&a&a&a&a&i&s&t&l&u&v&          ",
"          4&w&l&t&x&y&z&A&a&a&q&r&}&d&`%/&/&/&/&/&/&/&/&f&N%.%(&a&a&a&a&A&|&s&t&l&u&v&          ",
"          B&C&D&E&@&F&G&H&I&I&2 (&c&J&2 0&0&0&0&0&0&0&&&2%N%.%K&2 2 2 I&&&L&M&E&N&O&P&          ",
"          Q&R&S&T&U&V&y&(%y&9&9&2 H&W&L%9&9&9&9&9&9&9&9&X&Y&Z&2%9&L%y&y&y&`&T& * *J%.*          ",
"          +*@*#*$*%*&***=*-*;*>*,*'*)*!*~*~*~*~*~*!*{*{*{*)*)*]*^*/*(*_*:*<*[*4%$*}*|*          ",
"          1*x%x%2*3*4*5*6*7*8*9*0*a*4%b*c*d*e*f*f*b*g*@*h*#*i*j*k*l*m*n*o*p*q*r*r*2*s*          ",
"          |%t*u*u*v*w*x*y*z*A*B*C*D*E*F*G*H*H*H*I*J*K*K*L*L*M*r%N*O*P*r$Q*)&R*S*u*T*U*          ",
"          V*W*W*W*X*Y*Z*`* =x*`*.=+=+=p%p%@=@=@=#=$=$=@=%=%=%=%=&=*=*=*===F%-=;=W*>=,=          ",
"          '='='='='='='='='='='='='='='='='='='='=)=)=)=)=)=)=)=)=)=)=)=!=!=!='='='='=          ",
"                                                                                                ",
"                                                                                                ",
"                                                                                                "};
