/* XPM */
static char * collectible_1_xpm[] = {
"38 71 60 1",
" 	c #5D2C28",
".	c #443528",
"+	c #ACA492",
"@	c #D2CEBC",
"#	c #EDEBDB",
"$	c #FFFFF3",
"%	c #8E8475",
"&	c #7B7061",
"*	c #57493B",
"=	c #6D6152",
"-	c #0C0B0B",
";	c #1F4638",
">	c #232424",
",	c #7ABA7C",
"'	c #171818",
")	c #0F0E0F",
"!	c #0E0D10",
"~	c #23232A",
"{	c #1C0000",
"]	c #110A09",
"^	c #373532",
"/	c #171817",
"(	c #231513",
"_	c #292933",
":	c #A03B2B",
"<	c #1B1B21",
"[	c #242321",
"}	c #34364A",
"|	c #4C0C0C",
"1	c #414760",
"2	c #2D231A",
"3	c #716B60",
"4	c #576882",
"5	c #222330",
"6	c #2B2E3F",
"7	c #372828",
"8	c #394455",
"9	c #5D564D",
"0	c #514940",
"a	c #474036",
"b	c #0A090A",
"c	c #60574A",
"d	c #6DA876",
"e	c #8ECF81",
"f	c #4F5152",
"g	c #3B3B3A",
"h	c #1E1F1F",
"i	c #A4DE89",
"j	c #CBECA3",
"k	c #454037",
"l	c #3D4040",
"m	c #5D6161",
"n	c #141414",
"o	c #343536",
"p	c #71716F",
"q	c #0B0A0A",
"r	c #131313",
"s	c #8A8580",
"t	c #4A4A49",
"u	c #5A5754",
"               .......                ",
"             ..+@@#@@+..              ",
"            .+@@##$##@@+.             ",
"           .+@@##$$$##@@+.            ",
"           .+@##$$$$$##@+.            ",
"          .%+@##$$$$$##@+%.           ",
"          .%+@###$$$###@+%.           ",
"         .%%++@###$###@++%%.          ",
"         .&%%+@@#####@@+%%&.          ",
"         .&%%++@@###@@++%%&.          ",
"         .&&%%+@@@@@@@+%%&&.          ",
"         .&*#$%+@@@@@+%$#*&.          ",
"          .@@#$=+@@@+=$#@@.           ",
"--       .+@;;@#=+++=#@;;@+.       -- ",
"->-      .+;,,;@#%+%#@;,,;+.      ->- ",
" ->-     .%;,,,;@@@@@;,,,;%.     ->-  ",
"  ->--   .%;,,,,;@#@;,,,,;%.   -->-   ",
"  ->>'-   .%;,,,;#$#;,,,;%.   -'>>-   ",
"   ->>'--  .%;;;+#*#+;;;%.  --'>>-    ",
"    ->>')-!~.&%+@*;*@+%&.~!-)'>>-     ",
"    ->>>{)-]].++@=+=@++.~~!)'>>>-     ",
"     ->^/{{(].+@@+@+@@+._~)'>^>-      ",
"      ->^{:]<_.+=#=#=+.___'>^>-       ",
"      .&>[]]}_.*******._}_'^>&.       ",
"       .&](]}_.+#=#=#+._}_>>&.        ",
"       .{(]<}}}.%+@+%.}}}_'&%.        ",
"      {{:|(]}}1}.....}1}}_&==.        ",
"       2{((]]]11_}1}_11}}_=%%.   {    ",
"       .3]]<]]]]}111}41}}_&%+. {{     ",
"       .](]_566]]111}411}_&%+]]:{     ",
"       .](7]}118]]11}{11}_=]]]]]      ",
"       ](](7]14}6]]11{41]]]]32 ]]     ",
"       ]]9](7]4}16]]{:{](]:{+.  ]     ",
"   {  ]]9%0]((]}116](|(]]a{{%.  ]     ",
"    {{(]%==b]|(]1116]]]6b)aa{+.       ",
"    {:(]=%''{:{(]1115<6))''%a%.       ",
"     ]]3%>>'b{0]]]%%=%&))'>>%+.       ",
"     ]]%>^')){%39]]+%+%&))'^>%.c      ",
"     ]9>^>')&9+d+3]]+%+%&)'>^>%.      ",
"    c]>^>')&%+dd+{:(]%++%&)'>^>-c     ",
"    -/>>')&%+~d~_{{]]~~~+%&)'>>>-     ",
"    ->>')&~~_ded{555]]_}{~~&)'>>-     ",
"   ->>'fg~__}deddd11]({{5__~gf'>>-    ",
"  ->>']ff__}1deeedd16]:{1}__f{h'>>-   ",
"  ->--]]f_}}1deijeed1]((]]}_f{h-->-   ",
" ->-ck]l]_}1{}deiied16]]](]]{:{kc->-  ",
"->-cc]]m]]{{8}1ddeed11658]]](|]kcc->- ",
"--  c]nmo]:{4}111ded411}4655]](]c {-- ",
"    ]]hmm]]64}1111dd}11}411}ll]({{    ",
"    ]khmm5]]}11141d1}111}41}mmn]:{    ",
"  ]]:{hpm}6]]111d111}111}41}mphk]]    ",
" ]  {{hpm}1]]111ddqq}411}41}mphkc]]   ",
"    ck{pm}1]]11qdeddq}11}41}mphkcc]]] ",
"    cknpm}18]]qddedddq11}41}mphkc ccc]",
"    ckhpm}14]]]rddddrq}1}41}mphkc     ",
"    ckhspppp]t]]rrrrqmmppppppshkc     ",
"    ckhmssss]su]]qqqp{sssssssmhkc     ",
"    ckhfmmmm]mml]]m{{lmmmmmmmfhkc     ",
"    ckhffmmm]mmml]]:{mmmmmmmffhkc     ",
"    cchgffff]mmmm](]lmmmmffffghcc     ",
"     ck{ggff]ffffo]]fffffffgghkc      ",
"     cck{{h]]hhhhh]]hhhhhhhhhkcc      ",
"      cc{:]]kkkkkkk]]kk{kkk]]]]]]]    ",
"       ]]]]ccccccccc]]c{]]]]]c    ]   ",
"      ]]cccccccccccc]({:|]cc    {     ",
"     ]cc           cc]]|((]]] {{      ",
"                    ccc]]]]](]:{      ",
"                      cccccc]]]]      ",
"                           cccc]]     ",
"                              cc]     ",
"                                 ]    "};
