/* XPM */
static char * collectible_5_xpm[] = {
"38 71 60 1",
" 	c #5D2C28",
".	c #443528",
"+	c #ACA492",
"@	c #D2CEBC",
"#	c #EDEBDB",
"$	c #FFFFF3",
"%	c #8E8475",
"&	c #7B7061",
"*	c #57493B",
"=	c #6D6152",
"-	c #0C0B0B",
";	c #1F4638",
">	c #232424",
",	c #7ABA7C",
"'	c #A4DE89",
")	c #171818",
"!	c #0F0E0F",
"~	c #0E0D10",
"{	c #23232A",
"]	c #1C0000",
"^	c #110A09",
"/	c #373532",
"(	c #171817",
"_	c #231513",
":	c #292933",
"<	c #A03B2B",
"[	c #1B1B21",
"}	c #242321",
"|	c #34364A",
"1	c #4C0C0C",
"2	c #414760",
"3	c #2D231A",
"4	c #716B60",
"5	c #576882",
"6	c #222330",
"7	c #2B2E3F",
"8	c #372828",
"9	c #394455",
"0	c #5D564D",
"a	c #514940",
"b	c #6DA876",
"c	c #474036",
"d	c #0A090A",
"e	c #60574A",
"f	c #4F5152",
"g	c #3B3B3A",
"h	c #1E1F1F",
"i	c #454037",
"j	c #3D4040",
"k	c #5D6161",
"l	c #8ECF81",
"m	c #141414",
"n	c #343536",
"o	c #71716F",
"p	c #CBECA3",
"q	c #0B0A0A",
"r	c #131313",
"s	c #8A8580",
"t	c #4A4A49",
"u	c #5A5754",
"               .......                ",
"             ..+@@#@@+..              ",
"            .+@@##$##@@+.             ",
"           .+@@##$$$##@@+.            ",
"           .+@##$$$$$##@+.            ",
"          .%+@##$$$$$##@+%.           ",
"          .%+@###$$$###@+%.           ",
"         .%%++@###$###@++%%.          ",
"         .&%%+@@#####@@+%%&.          ",
"         .&%%++@@###@@++%%&.          ",
"         .&&%%+@@@@@@@+%%&&.          ",
"         .&*#$%+@@@@@+%$#*&.          ",
"          .@@#$=+@@@+=$#@@.           ",
"--       .+@;;@#=+++=#@;;@+.       -- ",
"->-      .+;,,;@#%+%#@;,,;+.      ->- ",
" ->-     .%;,',;@@@@@;,',;%.     ->-  ",
"  ->--   .%;,'',;@#@;,'',;%.   -->-   ",
"  ->>)-   .%;,,,;#$#;,,,;%.   -)>>-   ",
"   ->>)--  .%;;;+#*#+;;;%.  --)>>-    ",
"    ->>)!-~{.&%+@*;*@+%&.{~-!)>>-     ",
"    ->>>]!-^^.++@=+=@++.{{~!)>>>-     ",
"     ->/(]]_^.+@@+@+@@+.:{!)>/>-      ",
"      ->/]<^[:.+=#=#=+.:::)>/>-       ",
"      .&>}^^|:.*******.:|:)/>&.       ",
"       .&^_^|:.+#=#=#+.:|:>>&.        ",
"       .]_^[|||.%+@+%.|||:)&%.        ",
"      ]]<1_^||2|.....|2||:&==.        ",
"       3]__^^^22:|2|:22||:=%%.   ]    ",
"       .4^^[^^^^|222|52||:&%+. ]]     ",
"       .^_^:677^^222|522|:&%+^^<]     ",
"       .^_8^|229^^22|]22|:=^^^^^      ",
"       ^_^_8^25|7^^22]52^^^^43 ^^     ",
"       ^^0^_8^5|27^^]<]^_^<]+.  ^     ",
"   ]  ^^0%a^__^|227b_1_^^c]]%.  ^     ",
"    ]]_^%==d^1_^22b7^^^7d!cc]+.       ",
"    ]<_^=%))]<]_^bb26[7!!))%c%.       ",
"     ^^4%>>)d]a^^^b%=%&!!)>>%+.       ",
"     ^^%>/)!!]%40^^+%+%&!!)/>%.e      ",
"     ^0>/>)!&0+%+4^^+%b%&!)>/>%.      ",
"    e^>/>)!&%++%+]<_^%b+%&!)>/>-e     ",
"    -(>>)!&%+{{{:]]^^{{{+%&!)>>>-     ",
"    ->>)!&{{:|b|]666^^:|]{{&!)>>-     ",
"   ->>)fg{::|2:|b222^_]]6::{gf)>>-    ",
"  ->>)^ff::|2:|2b2227^<]2|::f]h)>>-   ",
"  ->--^^f:||2:22bb222^__^^|:f]h-->-   ",
" ->-ei^j^:|2]|22bbb227^^^_^^]<]ie->-  ",
"->-ee^^k^^]]9|22blbb22769^^^_1^iee->- ",
"--  e^mkn^<]5|22bllbb22|5766^^_^e ]-- ",
"    ^^hkk^^75|2bb'llb22|522|jj^_]]    ",
"    ^ihkk6^^|22bl''lb222|52|kkm^<]    ",
"  ^^<]hok|7^^22bl'plb222|52|kohi^^    ",
" ^  ]]hok|2^^222blp'b522|52|kohie^^   ",
"    ei]ok|2^^22qbb''b|22|52|kohiee^^^ ",
"    eimok|29^^qbbb'bbq22|52|kohie eee^",
"    eihok|25^^^rbbbbrq|2|52|kohie     ",
"    eihsoooo^t^^rrrrqkkooooooshie     ",
"    eihkssss^su^^qqqo]ssssssskhie     ",
"    eihfkkkk^kkj^^k]]jkkkkkkkfhie     ",
"    eihffkkk^kkkj^^<]kkkkkkkffhie     ",
"    eehgffff^kkkk^_^jkkkkffffghee     ",
"     ei]ggff^ffffn^^fffffffgghie      ",
"     eei]]h^^hhhhh^^hhhhhhhhhiee      ",
"      ee]<^^iiiiiii^^ii]iii^^^^^^^    ",
"       ^^^^eeeeeeeee^^e]^^^^^e    ^   ",
"      ^^eeeeeeeeeeee^_]<1^ee    ]     ",
"     ^ee           ee^^1__^^^ ]]      ",
"                    eee^^^^^_^<]      ",
"                      eeeeee^^^^      ",
"                           eeee^^     ",
"                              ee^     ",
"                                 ^    "};
