/* XPM */
static char * Wall_top_xpm[] = {
"96 48 357 2",
"  	c None",
". 	c #634E3E",
"+ 	c #634D3E",
"@ 	c #5F4736",
"# 	c #5E4635",
"$ 	c #5E4636",
"% 	c #634E3F",
"& 	c #644E3F",
"* 	c #868579",
"= 	c #817E72",
"- 	c #6C5D4F",
"; 	c #685B4D",
"> 	c #726D61",
", 	c #797569",
"' 	c #7C796D",
") 	c #88877B",
"! 	c #604835",
"~ 	c #87867A",
"{ 	c #6F6254",
"] 	c #7D776A",
"^ 	c #7B7569",
"/ 	c #6F6355",
"( 	c #6B6559",
"_ 	c #757064",
": 	c #858478",
"< 	c #665442",
"[ 	c #72685A",
"} 	c #7A7569",
"| 	c #726A5E",
"1 	c #6E6355",
"2 	c #7D786B",
"3 	c #8C8A82",
"4 	c #8C8982",
"5 	c #8E8C84",
"6 	c #939088",
"7 	c #939188",
"8 	c #766C60",
"9 	c #8E8C85",
"0 	c #8C8A83",
"a 	c #655242",
"b 	c #908E86",
"c 	c #929088",
"d 	c #8D8A82",
"e 	c #756A5F",
"f 	c #918F87",
"g 	c #858279",
"h 	c #6D6457",
"i 	c #6D6458",
"j 	c #70675B",
"k 	c #837D74",
"l 	c #908D86",
"m 	c #6D695F",
"n 	c #6D685F",
"o 	c #615144",
"p 	c #6C685E",
"q 	c #6C675E",
"r 	c #5B4231",
"s 	c #625145",
"t 	c #716D63",
"u 	c #767167",
"v 	c #746F64",
"w 	c #6C6357",
"x 	c #685E53",
"y 	c #6F6A61",
"z 	c #7A766D",
"A 	c #6C6356",
"B 	c #6B675D",
"C 	c #6C665E",
"D 	c #6B665D",
"E 	c #70685E",
"F 	c #675D53",
"G 	c #615043",
"H 	c #665C52",
"I 	c #6A655C",
"J 	c #6B655D",
"K 	c #604E41",
"L 	c #6A645C",
"M 	c #593E2C",
"N 	c #625B50",
"O 	c #665A51",
"P 	c #665B51",
"Q 	c #5B483B",
"R 	c #69645B",
"S 	c #53321F",
"T 	c #6E6960",
"U 	c #666056",
"V 	c #63584E",
"W 	c #5B473A",
"X 	c #69635B",
"Y 	c #686359",
"Z 	c #655E55",
"` 	c #5B473B",
" .	c #62574D",
"..	c #676259",
"+.	c #68625A",
"@.	c #68635A",
"#.	c #5B463A",
"$.	c #502B16",
"%.	c #60574C",
"&.	c #5D5146",
"*.	c #5A4D41",
"=.	c #62564C",
"-.	c #62564D",
";.	c #676159",
">.	c #5A4539",
",.	c #676158",
"'.	c #584337",
").	c #51311F",
"!.	c #655D55",
"~.	c #655F57",
"{.	c #60564C",
"].	c #5D5045",
"^.	c #554336",
"/.	c #564437",
"(.	c #5A463A",
"_.	c #665F57",
":.	c #61554B",
"<.	c #61554C",
"[.	c #5C4B41",
"}.	c #584539",
"|.	c #5D4D42",
"1.	c #5A483C",
"2.	c #574638",
"3.	c #594A3D",
"4.	c #574236",
"5.	c #564337",
"6.	c #564134",
"7.	c #5A483E",
"8.	c #5A483D",
"9.	c #5B5045",
"0.	c #564336",
"a.	c #57463B",
"b.	c #5A4C41",
"c.	c #5B4D41",
"d.	c #5B4D42",
"e.	c #5A4D42",
"f.	c #5A4E43",
"g.	c #5C5145",
"h.	c #5B5044",
"i.	c #523929",
"j.	c #5C5247",
"k.	c #5B4F43",
"l.	c #503321",
"m.	c #594B40",
"n.	c #543D30",
"o.	c #57473B",
"p.	c #594C40",
"q.	c #5D5247",
"r.	c #533C2D",
"s.	c #5D5248",
"t.	c #503524",
"u.	c #554134",
"v.	c #57483C",
"w.	c #533F30",
"x.	c #503929",
"y.	c #5E554A",
"z.	c #594B3F",
"A.	c #5B4E44",
"B.	c #5E544A",
"C.	c #5F554A",
"D.	c #544133",
"E.	c #523B2B",
"F.	c #5D5349",
"G.	c #564539",
"H.	c #61544B",
"I.	c #635A51",
"J.	c #584031",
"K.	c #5E4E43",
"L.	c #60544A",
"M.	c #5F5146",
"N.	c #5F5348",
"O.	c #5E5146",
"P.	c #594536",
"Q.	c #573E30",
"R.	c #573F30",
"S.	c #605449",
"T.	c #60554B",
"U.	c #5C4C40",
"V.	c #594436",
"W.	c #563A2A",
"X.	c #594134",
"Y.	c #5F5349",
"Z.	c #60554C",
"`.	c #5A4639",
" +	c #553827",
".+	c #594336",
"++	c #5F5248",
"@+	c #5F5247",
"#+	c #5A4538",
"$+	c #594234",
"%+	c #563B2C",
"&+	c #615449",
"*+	c #6B665E",
"=+	c #696258",
"-+	c #696059",
";+	c #706C67",
">+	c #665C54",
",+	c #5F5045",
"'+	c #655D54",
")+	c #635950",
"!+	c #5E4F44",
"~+	c #645C53",
"{+	c #62574E",
"]+	c #5C4A3E",
"^+	c #5B493D",
"/+	c #645B52",
"(+	c #5E5046",
"_+	c #665F56",
":+	c #5E4E42",
"<+	c #5D4C40",
"[+	c #584133",
"}+	c #584032",
"|+	c #5A4336",
"1+	c #61564D",
"2+	c #605349",
"3+	c #5C493B",
"4+	c #5B483A",
"5+	c #594233",
"6+	c #584131",
"7+	c #5B4739",
"8+	c #5C493D",
"9+	c #5B4639",
"0+	c #594133",
"a+	c #5B4539",
"b+	c #61574D",
"c+	c #5D4E41",
"d+	c #5E4F43",
"e+	c #5A4437",
"f+	c #594235",
"g+	c #5C4A3F",
"h+	c #5E4C41",
"i+	c #5A4638",
"j+	c #5D4D41",
"k+	c #5D4E42",
"l+	c #69645C",
"m+	c #655D53",
"n+	c #5C4B3F",
"o+	c #69635C",
"p+	c #605248",
"q+	c #5B483C",
"r+	c #5F5147",
"s+	c #635850",
"t+	c #686259",
"u+	c #665F58",
"v+	c #676059",
"w+	c #5C4B3E",
"x+	c #645B53",
"y+	c #5D4B40",
"z+	c #645A51",
"A+	c #5D4C41",
"B+	c #635951",
"C+	c #655E56",
"D+	c #60534A",
"E+	c #666058",
"F+	c #655C52",
"G+	c #62574F",
"H+	c #655C55",
"I+	c #5F5046",
"J+	c #655D56",
"K+	c #61544A",
"L+	c #655E57",
"M+	c #665E57",
"N+	c #635A52",
"O+	c #5D4C42",
"P+	c #645B54",
"Q+	c #645C54",
"R+	c #645A53",
"S+	c #5D4D43",
"T+	c #605249",
"U+	c #645C55",
"V+	c #584134",
"W+	c #553929",
"X+	c #625850",
"Y+	c #5B473C",
"Z+	c #665E55",
"`+	c #645A50",
" @	c #655C53",
".@	c #655B52",
"+@	c #62554B",
"@@	c #615348",
"#@	c #615349",
"$@	c #665D54",
"%@	c #655B51",
"&@	c #605246",
"*@	c #64594F",
"=@	c #645950",
"-@	c #63574D",
";@	c #5A4435",
">@	c #5A4537",
",@	c #605247",
"'@	c #63584F",
")@	c #655C54",
"!@	c #68615A",
"~@	c #62584F",
"{@	c #573E2E",
"]@	c #5E5044",
"^@	c #5D4F44",
"/@	c #5F4E43",
"(@	c #686159",
"_@	c #5B4D40",
":@	c #5E4C42",
"<@	c #583E2E",
"[@	c #645952",
"}@	c #5D483D",
"|@	c #5B4538",
"1@	c #5B4437",
"2@	c #5A4335",
"3@	c #594132",
"4@	c #583F30",
"5@	c #593F30",
"6@	c #573B2A",
"7@	c #61534A",
"8@	c #716C61",
"9@	c #665346",
"0@	c #543729",
"a@	c #716D61",
"b@	c #665446",
"c@	c #6C6155",
"d@	c #767469",
"e@	c #6B6053",
"f@	c #757267",
"g@	c #64584B",
"h@	c #4F2A14",
"i@	c #716B5F",
"j@	c #706D62",
"k@	c #6C685D",
"l@	c #665B4E",
"m@	c #5D4A3B",
"n@	c #848278",
"o@	c #70665A",
"p@	c #7C7970",
"q@	c #625C50",
"r@	c #615B4F",
"s@	c #60574A",
"t@	c #5D4F41",
"u@	c #4F2A15",
"v@	c #71665A",
"w@	c #7A756A",
"x@	c #7B756B",
"y@	c #666057",
"z@	c #65584B",
"A@	c #60594D",
"B@	c #5C5245",
"C@	c #564638",
"D@	c #665C51",
"E@	c #5F4E41",
"F@	c #533A2B",
"G@	c #513321",
"H@	c #5F4E42",
"I@	c #62584D",
"J@	c #63584D",
"K@	c #533728",
"L@	c #502E1C",
"M@	c #553A2B",
"N@	c #51301E",
"O@	c #512E1C",
"P@	c #523323",
". . . . . . . . . . . +     @ # $ . . . . . . . . . . . . . . . . . % &   . . . . . . . . . . . . . . . . . . . . . % &   . . . . . . . . . . . . . . . . . . . . . & . + . . . . . . . . . . . ",
"* * * * * * * * * * * = - ; > , ' * * * * * * * * * * * * * * * * * * ) ! * * * * * * * * * * * * * * * * * * * * * ~ ) { * * * * * * * * * * * * * * * * * * * * * ~ ] ^ * * * * * * * * * * * ",
"* * * * * * * * * * * * / ( _ : * * * * * * * * * * * * * * * * * * * * < * * * * * * * * * * * * * * * * * * * * * * * [ * * * * * * * * * * * * * * * * * * * * } | 1 2 * * * * * * * * * * * ",
"3 3 3 4 4 4 4 4 3 5 6 7 8 9 6 6 9 9 9 9 9 9 9 9 0 3 3 4 4 4 4 4 3 9 7 7 a b 6 c 9 9 9 9 9 9 9 9 3 3 4 4 4 4 4 3 d b 7 6 e f 6 f 9 9 9 9 9 9 9 5 3 3 4 4 4 4 4 3 g h i j k 6 6 l 9 9 9 9 9 9 9 9 ",
"m m n n n n n n m m m n o n n p n n n p q p p p n m n n n n n n m m m n r n n p n n n p q p p p m m n n n n n n m m m n s n p p n n n q p p p p m m n n n n n n t u v w x n p p n n n q p p p p ",
"n n n n n n n p p p p q o n p q q p p q q q q q n n n n n n p p p p p q r n p q q p p q q q q q n n n n n n p p p p p q s p p q p p p q q q q q n n n n n n p p p y z A x p p q p p q q q q q q ",
"n p p p p p p p p q q q o q q q q B q q q q C D n p p p p p p p q q q q r q q q q B q q q q D D n p p p p p p p q q q q o q q q B B q q q C D D p p p p p p p p q q q E F q q q B B q q q C D D ",
"q q q q q q q q B B B B G D D D D D D D D D D D B q q q q q q q B B B B r D D D D D D D D D D D q q q q q D q q B B B B o D D D D D D D D D D D q q q q q q q q B B B H H D D D D D D D D D D D ",
"I I I I I I I I I J J J K J J I L L L L L I I I I I I I I I I I I J J J M J I L L L L L L I I I I I I I I N I I I J J J K J I L L L L L L I I I I I I I I I I I I J J O P J I L L L L L I I I I ",
"I I I I I I I I I I I L Q R R R R R R R R R R R I I I I I I I I I I I I S R R R R R R R R R R R I I I I I T N U I I L I Q R R R R R R R R R R R I I I I I I I I I I L V V R R R R R R R R R R R ",
"R R R R R R R R R R R R W X X X X X R R R R R R R R R R R R R R R R R R S X X X X X R R R R R R R R R R R X I Y Z U R R ` X X X X R R R R R R R R R R R R R R R R R R  . .X X X X R R R R R R R ",
"..........+.+.+.+.@.@.@.#.+.+.+.+.+.+.+.@.+.@.@...........+...+.+.@.@.+.$.+.+.+.+.+.+.@.@.+.@.@...........+...D %.%.&.*.` +.+.+.+.+.+.@.@.@.@.@...........+.+.+.+.@.@.=.-.+.+.+.+.+.+.@.@.@.@.@.",
";.;.;.;.;.;.;.;.;.;.;.;.>.;.;.;.;.;.;.;.;.;.;.;.;.;.;.;.;.;.;.;.;.;.,.'.).!.;.;.;.;.;.;.;.;.;.;.;.;.;.;.;.;.~.{.].*.^./.(._.;.;.;.;.;.;.;.;.;.;.;.;.;.;.;.;.;.;.;.;.;.:.<.;.;.;.;.;.;.;.;.;.;.;.",
"[.[.[.[.[.[.[.[.[.[.[.[.}.[.[.[.[.[.[.[.[.[.[.[.[.[.[.[.[.[.[.[.[.|.1.2.3.4.[.[.[.[.[.[.[.[.[.[.[.[.[.[.[.[.5.6.6.6.6.6.*.7.[.[.[.[.[.[.[.[.[.[.[.[.[.[.[.[.[.[.[.[.[.8.8.[.[.[.[.[.[.[.[.[.[.[.",
"*.*.*.*.*.*.*.*.*.*.*.*.9.*.*.*.*.0.a.b.*.c.c.d.e.*.*.*.*.*.*.*.*.*.f.g.g.h.*.*.*.i.b.b.c.c.c.d.*.*.*.*.*.*.*.9.j.j.j.j.j.k.*.*.*.l.b.*.c.c.c.d.*.*.*.*.*.*.*.*.*.*.*.k.k.*.*.*.m.n.b.*.c.c.d.d.",
"j.j.j.j.j.j.j.j.j.j.j.j.j.j.j.j.j.o.p.j.q.q.q.q.j.j.j.j.j.j.j.j.j.j.j.j.j.j.j.j.j.r.j.j.q.q.q.s.j.j.j.j.j.j.j.j.j.j.j.j.j.j.j.j.j.t.j.q.q.q.q.s.j.j.j.j.j.j.j.j.j.j.j.j.j.j.j.j.9.u.j.q.q.q.q.s.",
"j.j.j.j.j.j.j.j.j.j.j.j.j.j.j.j.j.v.p.j.q.q.q.q.j.j.j.j.j.j.j.j.j.j.j.j.j.j.j.j.j.w.j.j.q.q.q.s.j.j.j.j.j.j.j.j.j.j.j.j.j.j.j.j.j.x.j.j.q.q.q.s.j.j.j.j.j.j.j.j.j.j.j.j.j.j.j.j.9.^.j.q.q.q.q.s.",
"j.j.j.j.j.j.j.j.j.j.j.j.j.j.j.j.j.v.p.j.j.q.q.q.j.j.j.j.j.j.j.j.j.j.j.j.j.j.j.j.j.w.j.j.q.q.q.s.j.j.j.j.j.j.j.j.j.j.j.j.j.j.j.j.j.x.j.j.q.q.q.s.j.j.j.j.j.j.j.j.j.j.j.j.j.j.j.j.9.^.j.j.q.q.q.s.",
"y.y.y.y.y.y.y.y.y.y.y.y.y.y.y.y.y.z.A.B.y.C.C.C.y.y.y.y.y.y.y.y.y.y.y.y.y.y.y.y.y.D.B.B.C.C.C.C.y.y.y.y.y.y.y.y.y.y.y.y.y.y.y.y.y.E.B.y.C.C.C.C.y.y.y.y.y.y.y.y.y.y.y.y.y.y.y.y.F.G.B.y.C.C.C.C.",
";.;.;.;.;.;.;.;.;.;.;.;.;.;.;.;.;.H.I.;.;.;.;.;.;.;.;.;.;.;.;.;.;.;.;.;.;.;.;.;.;.Q ;.;.;.;.;.;.;.;.;.;.;.;.;.;.;.;.;.;.;.;.;.;.;.J.;.;.;.;.;.;.;.;.;.;.;.;.;.;.;.;.;.;.;.;.;.;._.K.;.;.;.;.;.;.",
"L.L.L.L.M.M.N.L.L.{.{.{.{.{.O.Q P.Q.R.Q {.{.{.{.L.L.L.L.M.M.S.L.T.{.{.{.{.{.U.W V.W.X.|.{.{.{.{.L.L.L.Y.M.M.L.L.Z.{.{.{.{.{.Q `.V. +.+++{.{.{.Z.L.L.L.@+M.@+L.L.{.{.{.{.{.Z.Q #+$+%+#+{.{.{.{.{.",
"q q q q q &+*+*+*+*+*+*+*+*+*+*+*+*+*+*+*+*+*+*+q q q q =+-+;+;+;+;+;+;+;+;+;+;+;+;+;+;+;+;+;+;+;+;+;+;+>+L *+*+*+*+*+*+*+*+*+*+*+*+*+*+*+*+*+*+q q q q ,+*+*+*+*+*+*+*+*+*+*+*+*+*+*+*+*+*+*+*+",
";.;.;.;.;.++;.;.;.;.;.;.;.;.;.;.;.;.;.;.;.;.;.;.;.;.;.;.'+)+;.;.;.;.;.;.;.;.;.;.;.;.;.;.;.;.;.;.;.;.;.;.-._.;.;.;.;.;.;.;.;.;.;.;.;.;.;.;.;.;.;.;.;.;.;.!+;.;.;.;.;.;.;.;.;.;.;.;.;.;.;.;.;.;.;.",
";.;.;.;.;.++;.;.;.;.;.;.;.;.;.;.;.;.;.;.;.;.;.;.;.;.;.;.'+)+;.;.;.;.;.;.;.;.;.;.;.;.;.;.;.;.;.;.;.;.;.;.-._.;.;.;.;.;.;.;.;.;.;.;.;.;.;.;.;.;.;.;.;.;.;.!+;.;.;.;.;.;.;.;.;.;.;.;.;.;.;.;.;.;.;.",
";.;.;.;.;.++;.;.;.;.;.;.;.;.;.;.;.;.;.;.;.;.;.;.;.;.;.;.'+)+;.;.;.;.;.;.;.;.;.;.;.;.;.;.;.;.;.;.;.;.;.;.-._.;.;.;.;.;.;.;.;.;.;.;.;.;.;.;.;.;.;.;.;.;.;.!+;.;.;.;.;.;.;.;.;.;.;.;.;.;.;.;.;.;.;.",
";.;.;.;.;.K.;.;.;.;.;.;.;.;.;.;.;.;.;.;.;.;.;.;.;.;.;.;.~+{+;.;.;.;.;.;.;.;.;.;.;.;.;.;.;.;.;.;.;.;.;.;.S._.;.;.;.;.;.;.;.;.;.;.;.;.;.;.;.;.;.;.;.;.;.;.]+;.;.;.;.;.;.;.;.;.;.;.;.;.;.;.;.;.;.;.",
";.;.;.;.;.^+;.;.;.;.;.;.;.;.;.;.;.;.;.;.;.;.;.;.;.;.;.;./+:.;.;.;.;.;.;.;.;.;.;.;.;.;.;.;.;.;.;.;.;.;.;.(+_+;.;.;.;.;.;.;.;.;.;.;.;.;.;.;.;.;.;.;.;.;.;.V.;.;.;.;.;.;.;.;.;.;.;.;.;.;.;.;.;.;.;.",
":+:+<+#+[+}+|+T.1+1+1+2+:+3+4+5+6+6+6+7+8+K.K.K.K.K.]+9+0+$+a+b+b+b+b+b+b+b+b+c+d+|.d+K.:.b+b+b+:+:+#.e+}+X.]+1+1+1+1+1+b+b+b+:+d+|.d+:+b+b+b+:.:+:+#+f+}+f+g+h+`.` ` ` 9+i+W j+d+k+d+d+b+b+b+b+",
"+.+.+.+.+.+.+.+.+.+.+.+.X l+l+m+n+K.<.o+o+o+l+l+l+l+l+l+l+l+l+l+l+l+l+l+l+l+l+l+X p+o+o+o+o+o+o++.+.+.+.+.+.+.+.+.+.+.+.l+l+l+o+X |.o+o+o+o+o+X +.+.+.+.+.+.+.+.q+r+<.<.{+s+'+o+t+-.o+o+o+o+o+o+",
"u+u+u+u+u+u+u+u+u+u+u+u+u+u+u+v+t+w+x+u+u+u+u+u+u+u+u+u+u+u+u+u+u+u+u+u+u+u+u+u+u+,+u+u+u+u+u+u+u+u+u+u+u+u+u+u+u+u+u+u+u+u+u+u+u+y+u+u+u+u+u+u+u+u+u+u+u+u+u+u+z+A+1+2+B+u+u+u+C+D+u+u+u+u+u+u+",
"u+u+u+u+u+u+u+u+u+u+u+u+u+u+u+u+E+F+G+u+u+u+u+u+u+u+u+u+u+u+u+u+u+u+u+u+u+u+u+u+u+D+H+u+u+u+u+u+u+u+u+u+u+u+u+u+u+u+u+u+u+u+u+u+u+I+J+u+u+u+u+u+u+u+u+u+u+u+u+u+v+K+Q I+u+u+u+u+L+1+u+u+u+u+u+u+",
"u+u+u+u+u+u+u+u+u+u+u+u+u+u+u+u+u+)+B+u+u+u+u+u+u+u+u+u+u+u+u+u+u+u+u+u+u+u+u+u+u+D+M+u+u+u+u+u+u+u+u+u+u+u+u+u+u+u+u+u+u+u+u+u+u+I+M+u+u+u+u+u+u+u+u+u+u+u+u+u+u+;.+.;.u+u+u+u+L+1+u+u+u+u+u+u+",
"u+u+u+u+u+u+u+u+u+u+u+u+u+u+u+u+u+1+N+u+u+u+u+u+u+u+u+u+u+u+u+u+u+u+u+u+u+u+u+u+u+(.u+u+u+u+u+u+u+u+u+u+u+u+u+u+u+u+u+u+u+u+u+u+u+Q.u+u+u+u+u+u+u+u+u+u+u+u+u+u+u+u+u+u+u+u+u+u+J+O+u+u+u+u+u+u+",
"J+J+!.P+Q+Q+H+!.!.!.H+H+H+H+H+R+N+S+T+N+U+U+U+U+J+J+Q+Q+Q+Q+!.!.!.!.H+H+H+H+H+N+N+V+N+x+U+U+U+U+J+J+x+Q+Q+Q+!.!.!.!.H+H+H+H+H+N+N+W+N+Q+U+U+U+U+J+J+N+x+x+x+x+!.!.H+H+H+H+H+P+N+X+Y+N+U+U+U+U+U+",
"Z+Z+'+z+`+d+F+ @ @ @F+F+F+F+.@+@@@@@@@#@/+/+/+/+$@Z+ @z+=.&+ @ @ @F+F+F+F+F+.@@@@@@@@@-./+/+/+/+Z+Z+%@`+&@*@ @ @ @F+F+F+F+F+.@@@@@@@@@=@/+/+/+F+Z+Z+V -@;@>@,@ @ @F+F+F+F+F+'@@@@@@@@@/+/+/+/+/+",
"v+v+v+v+v+M.v+v+v+v+v+v+v+v+v+v+v+v+v+v+v+v+v+v+v+v+v+v+)@'@v+v+v+v+v+v+v+v+v+v+v+v+v+v+v+v+v+v+v+v+v+v+:._.v+v+v+v+v+v+v+v+v+v+v+v+v+v+v+v+v+v+v+v+v+v+`.M.!@v+v+v+v+v+v+v+v+v+v+v+v+v+v+v+v+v+",
"u+u+u+u+u+M.u+u+u+u+u+u+u+u+u+u+u+u+u+u+u+u+u+u+u+u+u+u+x+~@u+u+u+u+u+u+u+u+u+u+u+u+u+u+u+u+u+u+u+u+u+u+++{@u+u+u+u+H+u+u+u+u+u+u+u+u+u+u+u+u+u+u+u+u+u+k+L u+u+u+u+u+u+u+u+u+u+u+u+u+u+u+u+u+u+",
"u+u+u+u+u+Z.u+u+u+u+u+u+u+u+u+u+u+u+u+u+u+u+u+u+u+u+u+u+U+I.u+u+u+u+u+u+u+u+u+u+u+u+u+u+u+u+u+u+u+u+u+u+p+5+H.u+u+x+#@u+u+u+u+u+u+u+u+u+u+u+u+u+u+u+u+u+Y.u+u+u+u+u+u+u+u+u+u+u+u+u+u+u+u+u+u+u+",
"u+u+u+u+u+U.u+u+u+u+u+u+u+u+u+u+u+u+u+u+u+u+u+u+u+u+u+u+N+<.u+u+u+u+u+u+u+u+u+u+u+u+u+u+u+u+u+u+u+u+u+u+I+]@^@q+e+/@(@u+u+u+u+u+u+u+u+u+u+u+u+u+u+u+u+u+Q u+u+u+u+u+u+u+u+u+u+u+u+u+u+u+u+u+u+u+",
"u+u+u+u+u+` u+u+u+u+u+u+u+u+u+u+u+u+u+u+u+u+u+u+u+u+u+u+B+2+u+u+u+u+u+u+u+u+u+u+u+u+u+u+u+u+u+u+u+u+u+u+(+(+++_@J.(@u+u+u+u+u+u+u+u+u+u+u+u+u+u+u+u+u+u+5+u+u+u+u+u+u+u+u+u+u+u+u+u+u+u+u+u+u+u+",
":@:@:@:@:@<@:@:@:@:@:@:@[@:@:@:@:@:@:@:@:@:@:@:@:@:@:@:@}@|@:@:@:@:@:@:@u+:@:@:@:@:@:@:@:@:@:@:@:@:@:@:@1@2@e+3@4@5@:@:@B+:@:@:@:@:@:@:@:@:@:@:@:@:@:@:@6@:@:@:@:@:@:@7@7@:@:@:@:@:@:@:@:@:@:@:@",
"8@8@8@8@8@8@8@8@8@8@8@8@9@8@8@8@8@8@8@8@8@8@8@8@8@8@8@8@8@8@8@8@8@8@8@8@0@8@8@8@8@8@8@8@8@8@8@8@8@8@8@8@a@8@8@8@8@8@8@8@b@8@8@8@8@8@8@8@8@8@8@8@8@8@8@8@8@8@8@8@8@8@8@c@c@8@8@8@8@8@8@8@8@8@8@8@",
"d@d@d@d@d@d@d@d@d@d@d@d@e@d@d@d@d@d@d@d@d@d@d@d@d@d@d@d@d@d@d@d@d@d@f@g@h@d@d@d@d@d@d@d@d@d@d@d@d@d@d@d@d@d@d@d@d@d@d@d@e@d@d@d@d@d@d@d@d@d@d@d@d@d@d@d@d@d@d@d@d@d@d@i@i@d@d@d@d@d@d@d@d@d@d@d@",
"d@d@d@d@d@d@d@d@d@d@d@d@e@d@d@d@d@d@d@d@d@d@d@d@d@d@d@d@d@d@d@d@j@k@l@m@h@d@d@d@d@d@d@d@d@d@d@d@d@d@d@d@d@d@d@d@d@d@d@d@e@d@d@d@d@d@d@d@d@d@d@d@d@d@d@d@d@d@d@d@d@d@d@i@i@d@d@d@d@d@d@d@d@d@d@d@",
"n@n@n@n@n@n@n@n@n@n@n@n@o@n@n@n@n@n@n@n@n@n@n@n@n@n@n@n@n@n@n@p@q@r@s@t@u@n@n@n@n@n@n@n@n@n@n@n@n@n@n@n@n@n@n@n@n@n@n@n@v@n@n@n@n@n@n@n@n@n@n@n@n@n@n@n@n@n@n@n@n@n@n@w@x@n@n@n@n@n@n@n@n@n@n@n@",
"y@y@y@y@y@y@y@y@y@y@y@y@z@y@y@y@y@y@y@y@y@y@y@y@y@y@y@y@y@y@y@R Y A@B@C@h@y@y@y@y@y@y@y@y@y@y@y@y@y@y@y@y@y@y@y@y@y@y@y@z@y@y@y@y@y@y@y@y@y@y@y@y@y@y@y@y@y@y@y@y@y@y@D@D@y@y@y@y@y@y@y@y@y@y@y@",
"y@y@y@y@y@y@y@y@y@y@y@y@E@y@y@y@y@y@y@y@y@y@y@y@y@y@y@y@y@y@y@y@q B@F@G@h@S.y@y@y@y@y@y@y@y@y@y@y@y@y@y@y@y@y@y@y@y@y@y@H@y@y@y@y@y@y@y@y@y@y@y@y@y@y@y@y@y@y@y@y@y@y@I@J@y@y@y@y@y@y@y@y@y@y@y@",
"K@K@K@K@K@K@K@K@K@K@K@K@L@K@K@K@K@K@K@K@K@K@K@K@K@K@K@K@K@K@K@K@M@N@        K@K@K@K@K@K@K@K@K@K@K@K@K@K@K@K@K@K@K@K@K@K@O@K@K@K@K@K@K@K@K@K@K@K@K@K@K@K@K@K@K@K@K@K@K@P@P@K@K@K@K@K@K@K@K@K@K@K@"};
