/* XPM */
static char * floor_corner_bot_right_xpm[] = {
"96 96 7 1",
" 	c #5D2C28",
".	c #391F21",
"+	c #8A4836",
"@	c #3B1443",
"#	c #1E6F50",
"$	c #33984B",
"%	c #134C4C",
"                                                                               .++++. ...@@#####",
"                                                                               .++++. ...@@#####",
"                                                                                .+++..++$@######",
"                                                                                 ++. +++$$%#####",
"                         ..                                                     ..  ++++@%######",
"                        +++.                                                   +++..++++$$######",
"                     .  ++++                                                  ++++++.++$$%######",
"                      ..++++                                                 +++++++  +$@%######",
"                          .                                        +++        ++++++....@#######",
"                                                                   +++         ++++.+++++@######",
"                                                                                ...++++++@######",
"                                                                             .    +++++++@######",
"            +                                                      +             ++++++++$%#####",
"            +                                                                    ++++++++$$#####",
"      .     .                                                                    ++++++++@######",
"      .++                                                                        +++++++$@######",
"      +++.                                                                       +++++++$$%#####",
"      +++....   ..                                                                ++++++$$%#####",
"       .. ++++..++++..                                                              ....@%######",
"    .   .++++++++++++                                                               +++@########",
"     ....++++++++++++                                                               +++@########",
"     +++.+++++...++++                                                                ++@########",
"     +++......   .....                                                         +.+++ ..@$%######",
"     +++.++++.        .                                                          +++ ++$$%######",
"     . .+++++.  ++    .                                                      ++  ++.+++$.#######",
"        ++++                                                                 ++   ..+++$@#######",
"        .++.                                                                       +++++@#######",
"        .                                                                          ++++$$%######",
"                                                                                  . +++@$$######",
"                                                                                 +++... @%######",
"                                                                                 ++++ ++@$$#####",
"                                                                                .++++.++@$%#####",
"                                                                                ..++...+@%%#####",
"                                                           +++                 .++++. ...@@#####",
"                                                           +++                        ++@#######",
"                                                            ++                   ++++.++@#######",
"                                                                                ++++++.+@#######",
"                                                                                 +++++ @$$%#####",
"                                                                                   ++..$$%######",
"                                                                                   . ++$%.######",
"                                                                                 ++ .++++@######",
"                                                                                ++++.++++@######",
"                                   +                                            ++++.++++@######",
"                                   +                                            ++++.+++$@######",
"                +++.+++++++                                                       ...+++$$%#####",
"                +++...+++++              +                                       ++++.. @#######",
"                +++.+++...               +                                     +++++++ @$%######",
"                 ..+++++  .        .     .                                    ++++++++.$$%######",
"                   +++++           .++                                        ++++++++$$%#######",
"                   .++++           +++.                                       ++++++++$%########",
"                    .              +++....   ..                               +++++++++@########",
"                                    .. ++++..++++..                            +++++...@########",
"                                 .   .++++++++++++                              ++++ ++$%#######",
"                                  ....++++++++++++                             ++++++++$$%######",
"                                  +++.+++++...++++                           +++.++++.++@%%#####",
"                                  +++......   .....                          ++++....++++%$#####",
"                                  +++.++++.        .                         ++++....++++%$#####",
"                                  . .+++++.  ++    .                          +++   .++++%$$####",
"                                     ++++                                          .+++++%%$####",
"                                     .++.                                   ++     .+++++%%$####",
"                                     .                                      ++    ..+++++%$#####",
"                                                                            ..   +++.+++@$$#####",
"                                                                                 +++.+++@$$#####",
"                                                                                .++++ ..@$######",
"                                                                                .+++.+++@$$#####",
"                                                                            +    ++.++++%%$$####",
"                                                                            +    ++.++++%%$$####",
"                                                                           +        ++++%%%$####",
"                                                                          ++.    ...+++@%#######",
"                                                                                 ...+++@%#######",
"                                                                 +.            .+++..++@%#######",
"                                                                +++.     .     ++++++.@%%#######",
"                                                               .+++.     .     ++++++.@%%#######",
"                                                               .++++           +++++++@%$$######",
"                                                               .++++   .+.     +++++++@%$$######",
"                                                               .++++   .+.     +++++++@%$$######",
"             ++                                                .++++ .+++.   . .+++++.@$$#######",
"            +++                    .                       ..   +++  .+++... +++....++@%%#######",
"            +++                                                 +++  .+++... +++....++@%%#######",
"                                 ..                        ++   ++ .++.++.++.+++++.++++%$#######",
"      .++++.      .     .+++.   .+++. .+++.                ++   ...++++++.++++++++.+++@%$#######",
"+++.  ++++++.           +++++   +++++.+++++.      .+++.    +    ...++++++.++++++++.+++@%$#######",
"++++. ++++++.     .+++. +++++   +++++++++++.      ++++.       +++.+++++..+++++++++.@++.%%#######",
"++++. ++++++..  ..+++++ ++++.++..+++.+++++.+++.. .+++++.      +++.+$$++@ ++++.++%$@%$@%%########",
".++.. .+++++.++++++++++. ++.++++    .++++++++++..++++++.   .+++.+.+$$++@ ++++.++%$@%$@%%########",
" .+++++... .+++++++++++... .++++ .++++.++.++++++.++++++..  +++++%$@%$$@@$$@%$@@@$$%$$$$#########",
".+++++++.++.++++++.++.++++++++++.++++++. +++++++. ++++.+++.+++++$##%$$%%$$%$$#%$$$%$%$$%########",
".++++++++++++++++.....++++++++++@++++++.@@++++++@@..+.++++++++++$##%$$%%$$%$$#%$$$%$%$$%########",
"@+++++++++++.+++.++++.++++++@@@.%@++@%%%%%@+@@@@@++++.+++++@@++.#%$#%$%$$%###########%$$########",
"@@@++++@@+++@@+++++++@@@+++@$%%%%%%%%$$%%%%%%%%%%%%@@+.@@@%%%%%%################################",
"%$%%%%%%%$$%%%@@@@@@%%$%%$$%%$%#%$$%$$###$$%$%%%%%$$%%%%%%%%%$$#################################",
"%$%%$$$%$$$%%%%$$%%%%$$%$$%%#$$##$##$###$$##$####$$%%%%$%%#%$$##################################",
"###$$$#$$#######$$%%%$#################################$$#######################################",
"########################################################$#######################################",
"################################################################################################",
"################################################################################################"};
