/* XPM */
static char * floor_corner_top_right_xpm[] = {
"96 96 8 1",
" 	c #1E6F50",
".	c #33984B",
"+	c #3B1443",
"@	c #134C4C",
"#	c #391F21",
"$	c #8A4836",
"%	c #5D2C28",
"&	c #BF6F4A",
"                                                                                                ",
"                                                                                                ",
"                                                                                                ",
"                                                                                                ",
"                                                         ...     ...                            ",
"++ @        @.  @@            .@@+   @      @         @...@@... ...@                            ",
"+++.@.@@ +++..++..@   @@   @.@..@+   .@#++++. @@     @@@@@@@@....@@@     ...                    ",
"##..+..++$$$$$$...+   ..#++..++++#+++..@$$$..+..@   @.+$$$$$$++++@@@@@@@@....@@...@             ",
"##$$$$..#$$$$$$$$$#++++...$.+%$$$#$$$+..$$$$$%+..@++..$$$$$$$$$#$$$$+++@@@@@.@@@@@@@@ @@.       ",
"##$$$$$$#$$$$$$$$$#$$$#$$$$$$#$$##$$#%#$$$$$$#%#..$#$$$$$$$$$$$#$$$$$$$++++++++$++#@@....       ",
"%%#$$$$%#$$$$$$$$$#$$$#$$$$$$#%##%%#$$#$$$$$$#$$$$$#$$#$$$$$$$$%$$$$$$$##$$$#$$$$$$++...@       ",
"###%$$#%#$$$$$$$$$#$$%%%$$$$$#$$##%$$$$%#####$$$$$$#%$$###$$$##$#$$$$$#$$$$$$$$$$$$...@@        ",
"$$$#%#$$$#$$$$$$$$%%%%$$##$$%$$$$$%$$$$#%$$$#$$$$$$$$$$##%###$$$$##%###$$$$$$##$$$+@@...        ",
"$$$$%#$$$$#$$$$$$$%%%%$$$#%%#$$$$$%$$$%%$$$$#$$$$$$$$$$##%%%#$$$$$$%##$$$$$$$######++@@@        ",
"$$$$#$$$$$#%$$$$$%%%%%$$$%%%%$$$#$%$$$%%$$$$%$$$$$$$$$$##%%%%$$$$$$%##$$$$$$$##$$$$.....        ",
"$$#%#$$$$$#%%%%%%%%%%%#%%%%%%%%##$%%$%%%%$$$%%$$$$$$$$#$$$%%%%%##%%%%%$$$$$$$##$$$$@@...        ",
"##%%%$$$$$%%%%%%%%%%%%$%%%%%%%%%%#%%%%%%%%%%%%$$$$$$%$$$$$%%%%%%%%%%%%#$$$$$#$$$$$$$$+..        ",
"%%%%%%$$$%%%%%%%%%%%%%%%$$%%%%%%%%%%%%%%%%%%%%%$$$$%%%$$$$%%%%%%%%%%%%%%%%%%%$$$$$$$$+@@        ",
"%%%%%%%$%%%#%%%%%%%%%%%%$$%%%%%%%%%%%%%%%%%%%%%%%%%%%%$$$%%$$#%%%%%%%%%%%%%%#$$$$$$##+          ",
"%%%%%%%%%%%%%%%%%%%%%%%%%%%%%%%%%%%%%%%%%%%%%%%%%%%%%%%%%%%$$#%%%$$%#%%%%%%%%%%#$$$$$...        ",
"%%%%%%%%%%%%%%%%%%%%%%%%%%%%%%%%%%%%%%%%%%%%%%%%%%%%%%%%%%%%%%%%%%%$$%%%%%%%%##$$$$$$@..        ",
"%%%%%%%%%%%%%%%%%%%%%%%%%%%%%%%%%%%%%%%%%%%%%%%%%%%%%%%%%%%%%%%%%%%%$%%%%%%%%##$$$$$$+@@        ",
"%%%%%%%%%%%%%%%%%%%%%%%%%%%%%%%%%%%%%%%%%%%%%%%%%%%%%%%%%%%%%%%%%%%%%%%##%########$$$...@       ",
"%%%%%%%%%%%%%%%%%%%%%%%%%%%%%%%%%%%%%%%%%%%%%%%%%%%%%%%%%%%%%%%%%%%%%%%%%%$$$$$$$$#%%....       ",
"%%%%%%%%%%%%%%%%%%%%%%%%%%%%%%%%%%%%%%%%%%%%%%%%%%%%%%%%%%%%%%%%%%%%%%%%%%##$$$$$$#+++@@.       ",
"%%%%%%%%%%%%%%%%%%%%%%%%%%%%%%%%%%%%%%%%%%%%%%%%%%%%%%%%%%%%%%%%%%%%%%%%%%%%$$$#$$$$$+@@@       ",
"%%%%%%%%$$%%%%%%%%%%%%%%%%%%%%%%%%%%%%%%%%%%%%%%%%%%%%%%%%%%%%%%%%%%%%%%%%%%###$$$$$$....       ",
"%%%%%%%%$$%%%%%%%%%%%%%%%%%%%%%%%%%%%%%%%%%%%%%%%%%%%%%%%%%%%%%%%%%%%%%%%%%%%%%$$$$.....@       ",
"%%%%%%%%$$%%$%%%%%%%%%%%%%%%%%%%%%%%%%%%%%%%%%%%%%%%%%%%%%%%%%%%%%%%%%%##$$$$%%#$$$..@@@        ",
"%%%%%%%%%%%%%%%%%%%%%%%%%%%%%%%%%%%%%%%%%%%%%%%%%%%%%%%%%%%%%%%%%%%%%%#$$$$$$$$%##$$$+  .       ",
"%%%%%%%%%%%%%%%%%%%%%%%%%%%%%%%%%%%%%%%%%%%%%%%%%%%%%%%%%%%%%%%%%%%%%%$$$$$$$$$$#####.  @       ",
"%%%%%%%%%%%%%%%%%%%%%%%%%%%%%%%%%%%%%%%%%%%%%%%%%%%%%%%%%%%%%%%%%%%%%%%$$$$$$$$$##$$$@..        ",
"%%%%%%%%%%%%%%%%%%%%%%%%%%%%%%%%%%%%%%%%%%%%%%%%%%%%%%%%%%%%%%%%%%%%%%%%#####%%%%%$$#$$$#@      ",
"%%%%%%%%%%%%%%%%%%%%%%%%%%%%%%%%%%%%%%%%%%%%%%%%%%%%%%%%%%%%%%%%%%%%%%%%%%%%%%%%%%$$$$$$$@.     ",
"%%%%%%%%%%%%%%%%%%%%%%%%%%%%%%%%%$$$%%%%%%%%%%%%%%%%%%%%%%%%%%%%%%%%%%%%%%%%%%%%%%%%$$$$$@..    ",
"%%%%%%%%%%%%%%%%%%%%%%%%%%%%%%%%%$$$%%%%%%%%%%%%%%%%%%%%%%%%%%%%%%%%%%%%%%%%%#%$$%%%$$$$+@@.    ",
"%%%%%%%%%%%%%%%%%%%%%%%%%%%%%%%%%$$%%%%%%%%%%%%%%%%%%%%%%%%%%%%%%%%%%%%%%%%%%#%$$$%%#$$$+@@@    ",
"%%%%%%%%%%%%%%%%%%%%%%%%%%%%%%%%%%%%%%%%%%%%%%%%%%%%%%%%%%%%%%%%%%%%%%%%%%%%%%%%%%%%%%#$$@@     ",
"%%%%%%%%%%%%%%%%%%%%%%%%%%%%%%%%%%%%%%%%%%%%%%%%%%%%%%%%%%%%%%%%%%%%%%%%%%%%%%%%%%%%%%$$$+@@    ",
"%%%%%%%%%%%%%%%%%%%%%%%%%%%%%%%%%%%%%%%%%%%%%%%%%%%%%%%%%%%%%%%%%%%%%%%%%%%%%%%%%%%%%#$$$+@@..  ",
"%%%%%%%%%%%%%%%%%%%%%%%%%%%%%%%%%%%%%%%%%%%%%%%%%%%%%%%%%%%%%%%%%%%%%%%%%%%%%%%%%%%###$$$+@..   ",
"%%%%%%%%%%%%%%%%%%%%%%%%%%%%%%%%%%%%%%%%%%%%%%%%%%%%%%%%%%%%%%%%%%%%%%%%%%%%%%%%%##$$$#$$#@@    ",
"%%%%%%%%%%%%%%%%%%%%%%%%%%%%%%%%%%%%%%%%%%%%%%%%%%%%%%%%%%%%%%%%%%%%%%%%%%%%%%%%%$$$$$$##$@@    ",
"%%%%%%%%%%%%%%%%%%%%%%%%%%%%%%%%%%%%%%%%%%%%%%%%%%%%%%%%%%%%%%%%%%%%%%%%%%%%%%%%%$$$$$$$$+@@    ",
"%%%%%%%%%%%%%%%%%%%%%%%%%%%%%%%%%%%%%%%%%%%%%%%%%%%%%%%%##%%%%%%%%%%%%%%%%%%%%%%%$$$$$$#$+.@    ",
"%%%%%%%%%%%%%%%%%%%%%%%%%%%%%%%%%%%%%%%%%%%%%%%%%%%#%%%#%%%%%%%%%%%%%%%%%%%%%%%%%#$$$$$#$@..    ",
"%%%%%%%%%%%%%%%%%%%%%%%%%%%%%%%%%%%%%%%%%%%%%%%%%%%#$$$#%%%%%%%%%%%%%%%%%%%%%%%%%%%#$$%+$@@.    ",
"%%%%%%%%%%%%%%%%%%%%%%%%%%%%%%%%%%%%%%%%%%%%%%%%%%%$$$$#%%%%%%%%%%%%%%%%%%%%%%%%%%%%###++@@     ",
"%%%%%%%%%%%%%%%%%%%%%%%%%%%%%%%%%%%%%%%%%%%%%%%%%%%$$$$#%%%%%%%%%%%%%%%%%%%%%%%%%%%##$$$+@@     ",
"%%%%%%%%%%%%%%%%%%%%%%%%%%%%%%%%%%%%%%%%%%%%%%%%%%#$$$$#%$%%%%%%%%%%%%%%%%%%%%%%%%%#$$$$+@@     ",
"%%%%%%%%%%%%%%%%%%%%%%%%%%%%%%%%%%%%%%%%%%%%%%%%%%#$$$#%%$%%%%%%%%%%%%%%%%%%%%%%%%%$$$$$+@@     ",
"%%%%%%%%%%%%%%%%%%%%%%%%%%%%%%%%%%%%%%%%%%%%%%%%%%%#$$#%%%%%%%%%%%%%%%%%%%%%%%%%%%%$$$$$+@..    ",
"%%%%%%%%%%%%%%%%%%%%%%%%%%%%%%%%%%%%%%%%%%%%%%%%%%%#$$#%%%%%%%%%%%%%%%%%%%%%%%%%%##$$$$$$@@     ",
"%%%%%%%%%%%%%%%%%%%%%%%%%%%%%%%%%%%%%%%%%%%%%%%%%%%$$$$###%%%%%%%%%%%%%%%%%%%%%%#$$#$$$$+@.     ",
"%%%%%%%%%%%%%%%%%%%%%%%%%%%%%%%%%%%%%%%%%%%%%$$#%%#$$$$#$$%%%%%%%%%%%%%%%%%%%%%%$$$$$#$+@@..    ",
"%%%%%%%%%%%%%%%%%%%%%%%%%%%%%%%%%%%%%%%%%%%%%%%%%%#$$$$#$$$#%%%%%%%%%%%%%%%%%%%%$$$$$$%+@@ .    ",
"%%%%%%%%%%%%%%%%%%%%%%%%%%%%%%%%%%%%%%%%%%%%%%%%%%#$$$$#$$$$%%%%%%%%%%%%%%%%%%%%$$$$$$##@@      ",
"%%%%%%%%%%%%%%%%%%%%%%%%%%%%%%%%%%%%%%%%%%%%%%%%%##%$$$#$$$$%%%%%%%%%%%%%%%%%%%%#$$$$#$$@.      ",
"%%%%%%%%%%%%%%%%%%%%%%%%%%%%%%%%%%%%%%%%%%%%%%%%$$$######$$##%%%%%%%%%%%%%%%%%%%%#$$$$$$@..     ",
"%%%%%%%%%%%%%%%%%%%%%%%%%%%%%%%%%%%%%%%%%%%%%%%%$$$#%#$$$#%%%%%%%%%%%%%%%%%%%%%%#$$##$$$+@..    ",
"%%%%%%%%%%%%%%%%%%%%%%%%%%%%%%%%%%%%%%%%%%$$%%%##$$%%#$$$%%%%%%%%%%%%%%%%%%%%#%%$$$$%$$$$@@     ",
"%%%%%%%%%%%%%%%%%%%%%%%%%%%%%%%%%%%%%%%%%%%%%%%%%%%%%#$$$#%%%%%%%%%%%%%%%%%%%%%#$$$$%$$$$@.     ",
"%%%%%%%%%%%%%%%%%%%%%%%%%%%%%%%%%%%%%%%%%%%%%%%%%%%%#%%%%%%%%%%%%%%%%%%%%%%%%%%#$$$$%#$$+@..    ",
"%%%%%%%%%%%%%%%%%%%%%%%%%%%%%%%%%%%%%%%%%%%%%%%%%%%%%%%%%%%%%%%%%%%%%%%%%%%%%%%%#$$#%%#+@@@     ",
"%%%%%%%%%%%%%%%%%%%%%%%%%%%%%%%%%%%%%%%%%%%%%%%%%%%%%%%%%%%%%%%%%%%%%%%%%%%%%%%%%%%#$$$$#@      ",
"%%%%%%%%%%%%%%%%%%%%%%%%%%%%%%%%%%%%%%%%%%%%%%%%%%%%%%%%%%%%%%%%%%%%%%%%%%%%%%%%%%%$$$$$+@@.    ",
"%%%%%%%%%%%%%%%%%%%%%%%%%%%%%%%%%%%%%%%%%%%%%%%%%%%%%%%%%%%%%%%%%%%%%%%%%%%%%%%%%%%$$$$$+@..    ",
"%%%%%%%%%%%%%%%%%%%%%%%%%%%%%%%%%%%%%%%%%%%%%%%%%%%%%%%%%%%%%%%%%%%%%%%%%%%%%%%%#$$#$$$$+.@     ",
"%%%%%#$$%%%%%%%%%%%%%%%%%%%%%%%%%%%%%%%%%%%%%%%%%%%%%%%%%%%%%%%%%%%%%%%%%%%%%%%%$$$$##$$$+@@    ",
"%%%%#$$$#%%%%%%%%%%%%%%%%%%%%%%%%%%%%%%%%%%%$$%#%%%%%%%%%%%%%%%%%%%%%%%%%%%%%%%%$$$$$%$$$$.@    ",
"%%%%#$$$%%%%%%%%%%%%%%%%%%%%%%%%%%%%%%%%%%%%$$#%%%%%%%%%%%%%%%%%%%%%%%%%%%%%%%%%$$$$$#$$$$..    ",
"%%%%%$$$%%%%%%%%%%%%%%%%%%%%%%%%%%%%%%%%%%%%$$#%%%%%%%%%%%%%%%%%%%%%%%%%%%%%%%%%#$$$%#$$$$@.    ",
"%%%%%%%#%%%%%%%%%%%%%%%%%%%%%%%%%%%%%%%%%%%%$$#$$$%%%%%%%%%%%%%%%%%%%%%%%%%%%%%%%%%%##$$$+@@    ",
"%%%%%%%#%%%%%%%%%%%%%%%%%%%%%%%%%%%%%%%%%%%%$$$$$$%%%%%%%%%%%%%%%%%%%%%%%%%%%%%%%%#$$$$$$+..    ",
"%%%%%%#%%%%%%%%%%%%%%%%%%%%%%%%%%%%%%%%%%%%%$#$$$$%%%%%%%%%%%%%%%%%%%%%%%%%%%%%%%%$$$$###+@..   ",
"%%%%%%%%%%%%%%%%%%%%%%%%%%%%%%%%%%%%%%%%%%%%$#$$$$#%%%%%%%%%%%%%%%%%%%%%%%%%%%%%%%$$$$$#$$@@@   ",
"%%%%%%%%%%%%%%%%%%%%%%%%%%%%%%%%%%%%%%%%%%%%###$$#%%%%%%%%%%%%%%%%%%%%%%%%%%%%%%%%$$$$$#$$+@@   ",
"%%%%%%%%%%%%%%%%%%%%%%%%%%%%%%%%%%%%%%%%%%%%$$$#%%%%%%%%%%%%%%%%%%%%%%%%%%%%%%%%#%#$$$##$$+@@   ",
"%%%%%%%%%%%%%%%%%%%%%%%%%%%%%%%%%%%%%%%%%%%%$$$#%%%%%%%%%%%%%%%%%%%%%%%%%%%%%%%%%%%#$$$#$$+@.   ",
"%%%%%%%%%%%%%%%%%%%%%%%%%%%%%%%%%%%%%%%%%%%%$$$%%%%%%%%%%%%%%%%%%%%%%%%%%%%%%%%%%%%#$$$$#$+..   ",
"%%%%%%%%%%%%%%%%%%%%%%%%%%%%%%%%%%%%%%%%%%%%%%%%%%%%%%%%%%%%%%%%%%%%%%%%%%%%%%%%%%%%$$$$$$+.    ",
"%%%%%%%%%%%%%%%%%%%%%%%%%%%%%%%%%%%%%%%%%%%%%%%%%%%%%%%%%%%%%%%%%%%%%%%%%%%%$$$%%%%%$$$$$$+@    ",
"%%%%%%%%%%%%%%%%%%%%%%%%%%%%%%%%%%%%%%%%%%%%%%%%%%%%%%%%%%%%%%%%%%%%%%%%%%%%$$$%%%%#$$$$$+@@    ",
"%%%%%%%%%%%%%%%%&#%%%%%%%%%%%%%%%%%%%%%%%%%%%%%%%%%%%%%%%%%%%%%%%%%%%%%%%%%%%$$%%####$$$#+@@    ",
"%%%%%%%%%%%%%%%%$#%%%%%%%%%%%%%%%%%%%%%%%%%%%%%%%%%%%%%%%%%%%%%%%%%%%%%%%%%%%%%%#$$$$##$$$@@    ",
"%%%%%%%%%%%%%$$$%###%%%%%%%%%%%%%%%%%%%%%%%%%%%%%%%%%%%%%%%%%%%%%%%%%%%%%%%%%%%%$$$$$%$$$$..    ",
"%%%%%%%%  $$$$#####%%$%%%%%%%%%%%%%%%%%%%%%%%%%%%%%%%%%%%%%%%%%%%%%%%%%%%%%%%%%%$$$$$#$$$$..    ",
"%@@@@@$$$$$#%%$$$%%$&&#%%%%%%%%%%%%%%%%%%%%%%%%%%%%%%%%%%%%%%%%%%%%%%%%%%%%%%%%%$$$$$##$$+@..   ",
"@@%@@$%$$$$&&&$%$&&&&$#@@%%%%%%%%%%%%%%%%%%%%%%%%%%%%%%%%%%%%%%%%%%%%%%%%%%%%%%%$$$$$#$$$+@@.   ",
"%###%%$$%%%%%%%%%%%%%%#@@@%%%%%%%%%%%%%%%%%%%%%%%%%%%%%%%%%%%%%%%%%%%%%%%%%%%%%%#$$$#$$$$$@.    ",
"#%$$#%%%%%############@@@@%%%%%%%%%%%%%%%%%%%%%%%%%%%%%%%%%%%%%%%%%%%%%%%%%%%%%%%%%%%$$$$$@..   ",
"#%&%$#%##$$$%%#######@@%%%%%%%%%%%%%%%%%%%%%%%%%%%%%%%%%%%%%%%%%%%%%%%%%%%%%%%%%%%###$$$$$@..   ",
"#%&%$#$$%%######@@@@@%%%%%%%%%%%%%%%%%%%%%%%%%%%%%%%%%%%%%%%%%%%%%%%%%%%%%%%%%%%%#$$#$$$$$@@.   ",
"#$%%&#%######@@@@%%%%%%%%%%%%%%%%%%%%%%%%%%%%%%%%%%%%%%%%%%%%%%%%%%%%%%%%%%%%%%%%$$$$$$$$+@@    ",
"#%$&%#####@@@@$$%%%%%%%%%%%%%%%%%%%%%%%%%%%%%%%%%%%%%%%%%%%%%%%%%%%%%%%%%%%%%%%%%$$$$#$$$+..    ",
"@######@@@@@$$$$$%%%%%%%%%%%%%%%%%%%%%%%%%%%%%%%%%%%%%%%%%%%%%%%%%%%%%%%%%%%%%%%%$$$#%##++@@    "};
