/* XPM */
static char * floor_left_closed_xpm[] = {
"96 96 25 1",
" 	c #1E6F50",
".	c #33984B",
"+	c #3B1443",
"@	c #8A4836",
"#	c #391F21",
"$	c #5D2C28",
"%	c #134C4C",
"&	c #854534",
"*	c #7B3F31",
"=	c #793E30",
"-	c #814233",
";	c #69342C",
">	c #773C30",
",	c #5D5D5D",
"'	c #3D3D3D",
")	c #562926",
"!	c #5C2B28",
"~	c #72392E",
"{	c #874635",
"]	c #7A3E31",
"^	c #63302A",
"/	c #452323",
"(	c #864635",
"_	c #6F382D",
":	c #1F4A4A",
"  ..+@@@#@@@$$$##$$$$$$$$$$$$$$$$$$$$$$$$$$$$$$$$$$$$$$$$$$$$$$$$$$$$$$$$$$$$$$$$$$$$$#@@@#% %%%",
"  ..+@@@#@@@$$$$$$$$$$$$$$$$$$$$$$$$$$$$$$$$$$$$$$$$$$$$$$$$$$$$$$$$$$$$$$$$$$$$$$$$$$$@@@$$    ",
"   .+##$@@@@#$$$$$$$$$$$$$$$$$$$$$$$$$$$$$$$$$$$$$$$$$$$$$$$$$$$$$$$$$$$$$$$$$$$$$$$$$#@@@#$@@ %",
"  ..+@@@#@@@#$$$$$$$$$$$$$$$$$$$$$$$$$$$$$$$$$$$$$$$$$$$$$$$$$$$$$$$$$$$$$$$$$$$$$$$@$@######@ %",
" ..%%@@@@#@@$$$$@$$$$$$$$$$$$$$$$$$$$$$$$$$$$$$$$$$$$$$$$$$$$$$$$$$$$$$$$$$$$$$$$$$$$$@@#@@@@##%",
" ..%%@@@@#@@$$$$@$$$$$$$$$$$$$$$$$$$$$$$$$$$$$$$$$$$$$$$$$$$$$$$$$$$$$$$$$$$$$$$$$$$$$@@##@@@##%",
" .%%%@@@@$$$$$$$$$$$$$$$$$$$$$$$$$$$$$$$$$$$$$$$$$$$$$$$$$$$$$$$$$$$$$$$$$$$$$$$$$$$$@@@#@@@@#@&",
"    %+@@@###$$$$#$$$$$$$$$$$$$$$$$$$$$$$$$$$$$$$$$$$$$$$$$$$$$$$$$$$$$$$$$$$$$$$$$$$$$@@#@@@@#@*",
"    %+@@@###$$$$$$$$$$$$$$$$$$$$$$$$$$$$$$$$$$$$$$$$$$$$$$$$$$$$$$$$$$$$$$$$$$$$$$$$$$###@@@@$@$",
"    %+@@##@@@#$$$$$$$$$$$$$$$$$$$$$$$$$$$$$$$$##$$$$$$$$$$$$$$$$$#####$$$$$$$$$$$$$$$$$$$#@@@@@=",
"    %%+#@@@@@@$$$$$$$$$$$$$$$$$$$$$$$$$$$#$$$#$$$$$$$$$$$$$$$$$$$$$$@@$$$$$$$@$$$$$$$$$$$@@@#$@*",
"    %%+#@@@@@@$$$$$$$$$$$$$$$$$$$$$$$$$$$#@@@#$$$$$$$$$$$$$$$$$$$$$$#@$$$$$$$@$$$$$$$$@$$#@@@#@-",
"   ..%+@@@@@@@$$$$$$$$$$$$$$$$$$$$$;$$$$$@@@@#$$$$$$$$$$$$$$$$$$$$$$#@@@@@$$$$$$$$$$$$@$@@@@@#$-",
"   ..%+@@@@@@@$$$$$$$$$$$$$$$$$$$$$$$$$$$@@@@#$$$$$$$$$$$$$$$$$$$$$$#@@@@@$$$$$$$$$$$$$$#@@@@@@-",
"   ..%+@@@@@@@$$$$$$$$$$$$$$$$$$$$$$$$$$#@@@@#$@$$$$$$$$$$$$$$$$@@@@####$$$$$$$$$$$$$$$##@@@$$$>",
"    ..+#@@@@@#$#$$@@$$$$$$$$$$$$$$$$$$$$#@@@#$$@$$$$$$$$$$$$$$$$###@#@#@$$$$$$$$$$$$$$$$#@@@#$@$",
"   %.%+##@@@##@@#$@@$$,,,,,''$$$$$$$$$$$$#@@#$$$$$$$$$$$$$$$$$$$#@@@#@#$$$$$$$$$$$$$$$$$#$$$$$$$",
"      %%+@@#@@$$$$@@$#'',,,,,,$$$$$$$$$$$#@@#$$$$$$$$$$$$$$$$$$$$@@@#@@@@$$$$$$$$$$$$$##$$$$$$$$",
"     ..+@@@#@@@$$$#$$#''',,,,,,$$$$$$$$$$@@@@###$$$$$$$$$$$$$$$@@@@@#####$$$$$$$$$$$$$$$$$$$$$$$",
"      .+##$@@@@#$$$$$##''''','''$$$@@#$$#@@@@#@@$$$$$$$$$$$$$$$$$@#$#@@$$#$$$$$$$$$$$$$$$$$$$$$$",
"     ..+@@@#@@@#$$$$$###''''''##,$$$$$$$#@@@@#@@@#$$$$$$$$$$$$$$$@#@@@@@@#$$$$$$$$$$$$$$$$$$$$$$",
"    ..%%@@@@#@@$$$$$$####''####,,$$$$$$$#@@@@#@@@@$$$$$$$$$$$$$$$##@@@@@@@$$$$$$$$$$$$$$$$$$$$$$",
"    .%%%@@@@$$$$$$$$$###''''''#,'$$$$$$##$@@@#@@@@$$$$$$$$$$$$$$$$$#@@@@@#$$$$$$$$$$$$$$$$$$$$$$",
"       %+@@@###$$$$$$###''''''#'#$$$$$@@@######@@##$$$$$$$$$$$$$$$$$$$$$$$$$$$$$$$$$$$$$$$$$$$$$",
"       %+@@##@@$$$$$$@##''''''#####$$$@@@#$#@@@#$$$$$$$$$$$$$$$$$$$$$$$$$$$$$$$$$$$$$$$$$$$$$$$$",
"       %%+#@@@@$$$$$$@#$##'''#''',,$$##@@$$#@@@$$$$$$$$$$$$$$$$$$$$$$$$$$$$$$$$$$$$$$$$$$$$$$$$$",
"      ..%+@@@@@$$$#$$$$$$$$$$##',,'$$$$$$$$#@@@#$$$$$$$$$$$$$$$$$$$$$$$$$$$$$$$$$$$$$$$$$$$$$$$$",
"      ..%+@@@@@$$$$$$#$$$$$$$##',,#$$$$$$$#$$$$$$$$$$$$$$$$$$$$$$$$$$$$$$$$$$$$$$$$$$$$$$$$$$$$$",
"       ..+#@@@@$$$$$$$$$$$$$$$#''#$$$$$$$$$$$$$$$$$$$$$$$$$$$$$$$$$$$$$$$$$$$$$$$$$$$$$$$$$$$$$$",
"       %%+@@###$$$$$$$$$$$$$$$$$$$$$$$$$$$$$$$$$$$$$$$$$$$$$$$$$$$$$$$$$$$$$$$$$$$$$$$$$$$$$$$$$",
"       .%@@@@$$$$$$$$$$$$$$$$$$$$$$$$$$$$$$$$$$$$$$$$$$$$$$$$$$$$$$$$$$$$$$$$$$$$$$$$$$$$$$$$$$$",
"      ..%+@@@#@@$$$$$$$$$$$$$$$$$$$$$$$$$$$$$$$$$$$$$$$$$$$$$$$$$$$$$$$$$$$$$$$$$$$$$$$$$$$$$$$$",
"      .%%@@@@#@@@$$$$$$$$$$$$$$$$$$$$$$$$$$$$$$$$$$$$$$$$$$$$$$$$$$$$$$$$$$$$$$$$$$$$$$$$$$$$$$$",
"       %+@@@@#$@@$$$$$$$$$$$$$$$$$$$$$$$$$$$$$$$$$$$$$$$$$$$$$$$$$$$$$$$$$$$$$$$$$$$$$$$$$$$$$$$",
"       %+@@#@@@#$$$$$$$$$$$$$$$$$$$$$$$$$$$$$$$$$$$$$$$$$$$$$$$$$$$$$$$$$$$$$$$$$$$$$$$$$$$$$$$$",
"      %%###$@@@$$$$$$$$$$$$$$$$$$$$$$$$$$$$$$$$$$$$$$$$$$$$$$$$$$$$$$$$$$$$$$$$$$$$$$$$$$$$$$$$$",
"     .%%@@@###$$$$$$$$$$$$$$$$$$$$$$$$$$$$$$$$$$$$$$$$$$$$$$$$$$$$$$$$$$$$$$$$$$$$$$$$$$$$$$$$$$",
"    ..%+@@@#@@@$$$$$$$$$$$$$$$$$$$$$$$$$$$$$$$$$$$$$$$$$$$$$$$$$$$$$$$$$$$$$$$$$$$$$$$$$$$$$$$$$",
"    ..%+@@@@@@@@$$$$$$$$$$$$$$$$$$$$$$$$$$$$$$$$$$$$$$$$$$$$$$$$$$$$$$$$$$$$$$$$$$$$$$$$$$$$$$$$",
"    .%%+@@$@@@@@$$$$$$$$$$$$$$$$$$$$$#@@$$$$$$$$$$$$$$$$$$$$$$$$$$$$#@@$$$$$$$$$$$$$$$$$$$$$$$$$",
"      %++###@@@#$$$$$$$$$$$$$$$$$$$$#@@@#$$$$$$$$$$$$$$$$$$$$$$$$$$#@@@#$$$$$$$$$$$$$$$$$$$$$$$$",
"      %#@@@#$$$$$$$$$$$$$$$$$$$$$$$$#@@@$$$$$$$$$$$$$$$$$$$$$$$$$$$#@@@$$$$$$$$$$$$$$$$$$$$$$$$$",
"     .%@@@@@$$$$$$$$$$$$$$$$$$$$$$$$$@@@$$$$$$$$$$$$$$$$$$$$$$$$$$$$@@@$$$$$$$$$$$$$$$$$$$$$$$$$",
"    ..%@@@@@$$$$$$$$$$$$$$$$$$$$$$$$$$$#$$$$$$$$$$$$$$$$$$$$$$$$$$$$$$#$$$$$$$$$$$$$$$$$$$$$$$$$",
"    .%%+@@@@$$$@@$$$$$$$$$$$$$$$$$$$$$$#$$$$$$$$$$$$'''$$$$$$$$$$,,,',,,$$$$$$$$$$$$$$##$$$$$$$$",
"    %%%+@@@#$$@@@$$$$$$$$$$$$$$$$$$$$$#$$$$$$$$$,,,','',,,,''$$$''''''''#$$$$$$$$#$$$#$$$$$$$$$$",
"     %%@@#$$$$$$$$$$$$$$$$$$$$$$$$$$$$$$$$$$$$##''''''''''''#$$$'''''''##$$#$$$$##@@@#$$$$$$$$$$",
"    %%+@@@$$$$$$$$$$$$$$$$$$$$$$$$$$$$$$$$$$$$$$$#$$######$$$$$$#####'''$$$$$$$$#@@@@#$$$$$$$$$$",
"  ..%%+@@@#$$$$$$$$$$$$$$$$$$$$$$$$$$$$$$$$$$$$$$$$$$$$,'',,,,,$$',,,',,,',#$$$$#@@@@#$$$$$$$$$$",
"   ..%+@@@###$$$$$$$$$$$$$$$$$$$$$$$$$$$$$$$$$$$$$$$$$$'#''''''$$''''''''''#$$$$$@@@@#$@$$$$$$$$",
"    %%#@@#@@@##$$$$$$$$$$#$$$$$$$$$$$$$$$$$$$$$$$$$$$$$$$#####$$$''''''''''$$$#@@@@@#$$@$$$$$$$$",
"    %%@##@@@@@@$$$$$$$$$#$$$$$$$$$$$$$$$$$$$$$$$',,,,',,,'','''$$$####$#####$$$@@#@@#$$$$$$$$$$$",
"    %%+@@@@@@@@$$$$$$$$$#$$$$$$$$$$$$$$$$$$$$$#$''''''''''''''',,,'''$$$$$$$$$$###@@#$$$$$$$$$$$",
"    %.+@#@@@@@@$$$$$$$$$@@@$$$$$$$$$$$$$$$$$$$$$''''''''''''''''''''''#$$$$$$$$$$@@@@###$$$$$$$$",
"    ..%@#@@@@@#$$$$$$$$$@@@#$$$$$$$$$$$$$$$$$$$$$$$############$#########$$$$$$$#@@@@#@@$$$$$$$$",
"    .%%@+$@@#$$$$$$@@$$#@@@#$$$$$$$$$$$$$$$$$$$$$$$$$$$$$$$$$$$$$$$$$$$$$$$$$$$$#@@@@#@@@#$$$$$$",
"     %%++###$$$$$$$$$$$$@@#)!$$$$$$$$$$$$$$$$$$$$$'',,,'',,,,''$$$$$',,,$$$$$$$$#@@@@#@@@@$$$$$$",
"     %%+@@@##$$$$$$$$$$~{@#$#]^$$$$$$$$$$$$$$$$$$#'''''''''''''$$',,'''',,$$$$$$$$@@@#@@@@$$$$$$",
"     %%+@@@@#$$$$$$$$$/#@@$$#@(_$$$$$$$$$$$$$$######'''''''''##$$'''''''''$$$$$$$######@@##$$$$$",
"     %%+@@@@@$$$$$$$$$$$$$$$#@@@$$$$$$$$$$$$$$$$$$$$$$$$####$$$$$$#####$#'$$$$$$$#$#@@@#$$$$$$$$",
"    ..%+@@@@@$$$$$$$$$$$$$$#$$$$$$$$$$$$$$$$$$$$$$$$$,,','$$$$$$$',,,,,'$$$$$$$$$$$#@@@$$$$$$$$$",
"     %%@@@@@@##$$$$$$$$$$$$$$$$$$$$$$$$$$$$$$$$$$$$''''''''$$$$$''''''''$$$$$$$$$$$#@@@#$$$$$$$$",
"     .%+@@@@#@@#$$$$$$$$$$$$$$$$$$$$$$$$$$$$$$$$$$$''''''''$$$$$$$########$##$$$$$#$$$$$$$$$$$$$",
"    ..%%+@#@@@@@$$$$$$$$$$$$$$$$$$$$$$$$$$$$$$$$$$$#'''''##$$$$$$$$$$$$$$$$$$$$$$$$$$$$$$$$$$$$$",
"    . %%+$@@@@@@$$$$$$$$$$$$$$$$$$$$$$$$$$$$$$$$$$$$$###$$$$',,,,',,',,,,$$$$$$$$$$$$$$$$$$$$$$$",
"      %%##@@@@@@$$$$$$$$$$$$$$$$$$$$$$$$$$$$$$$$$$$',,$$'''''''''''''''''$$$$$$$$$$$$$$$$$$$$$$$",
"      .%@@#@@@@#$$$$$$$$$$$$$$$$$$$$$$$$$$$$$$$$$$$'''$$'''''''''''''''''$$$$$$$$$$$$$$$$$$$$$$$",
"     ..%@@@@@@#$$$$$$$$$$$$$$$$$$$$$$$$$$$$$$$$###$###$$#'''''''''''''''###$$$$$$$$$$$$$$$$$$$$$",
"    ..%+@@@##@@#$$$$$$$$$$$$$$$$$$$$$$$$$$#$$$$$$$$$$$$$$$$$$$$$$$$$####$$$$$$$$$$$$$$$$$$$$$$$$",
"     %%@@@@$@@@@$$$$$$$$$$$$$$$$$$$$$$$$$$$$$$$$$',,,,,'',',,#$$$#,,,',,'$$$$$$$$$$$$$$$$$$$$$$$",
"     .%@@@@$@@@@#$$$$$$$$$$$$$$$$$$$$$$$$#@$$$$$#''''''''''''''$$#'''''''##$#$$$$$$$$$$$$$$$$$$$",
"    ..%+@@#$@@@@#$$$$$$$$$$$$$$$$$$$$$$$$@@##$###''''''''''''''#$$##$''''#$$$$$$$$$$$$$$$$$$$$$$",
"     %%%+#$$#@@#$$@#$$$$$$$$$$$$$$$$$$$$$@@#$$$$#####$$$$$$$$$$$$$$$$$$$$$$$$$$$$$$$$$$$$$$$$$$$",
"      %#@@@@#$$$$$@@$$$$$#$$$$$$$$$$$$$$$@@#$$$',,,',,,,,$$$$$$',,,',,,,,,'$$$$$$$$$$$$$$$$$$$$$",
"    .%%+@@@@@$$$$$@@$$$$$$$$$$$$$$$$$$$$$@@@###''''''''''#$$$$#''''''''''''$$$$$$$$$$$$$$$$$$$$$",
"     %%%@@@@@@$$$$@##$$$$$$$$$$$$$$$$$$$$#@@@@$$$$#######$$$$$$$#########$$$$$$$$$$$$$$$$$$$$$$$",
"     .%+@@@@##$$$$$$$$$$$$$$$$$$$$$$$$$$$$####@@#$$$$$$$$$$$$$$$$$$$$$$$$####@@#$$$$$$$$$$$$$$$$",
"     ..+@@@@$@@###$$$$$$$$$$$$$$$$$$$$$$$$#@@@#$$$$$$$$$$$$$$$$$$$$$$$$$$#@@@#$$$$$$$$$$$$$$$$$$",
"  .%%%.%+###@@@#@@$$$$$$$$$$$$$$$$$$$$$$$$#@@@#$$$$$$$$$$$$$$$$$$$$$$$$$$#@@@#$$$$$$$$$$$$$$$$$$",
"  ...%%+@@@#@@#@@@$$$$$$$$$$$$$$$$$$$$$$$$$@@@$$$$$$$$$$$$$$$$$$$$$$$$$$$$@@@$$$$$$$$$$$$$$$$$$$",
"    +$##@@@@$$$$$@$$$$$$$$$$$$$$$$$$$$$$$$$$$$$$$$$$$$$$$$$$$$$$$$$$$$$$$$$$$$$$$$$$$$$$$$$$$$$$",
"   %.+$@@@@@@@$$$@$@@$$$$$$$$$$$$$$$$$$$$$$$$$$$$$$$$$$$$$$$$$$$$$$$$$$$$$$$$$$$$$$$$$$$$$$$$$$$",
"   %..#@@@@@@@@$$$$@@$$$$$$$$$$$$$$$$$$$$$$$$$$$$$$$$$$$$$$$$$$$$$$$$$$$$$$$$$$$$$$$$$$$$$$$$$$$",
"    %..@@@@@@@@$$$$$$$$$$$$$$$$$$$$$$$$$$$$$$$$$$$$$$$$$$$$$$$$$$$$$$$$$$$$$$$$$$$$$$$$$$$$$$$$$",
"     %.@@@@@@@@$$$$$$$$$$$$$$$$$$$$$$$$$$$$$$$$$$$$$$$$$$$$$$$$$$$$$$$$$$$$$$$$$$$$$$$$$$$$$$$#$",
"     +@@@@@@@@@$$$$$$$$$$$$$$$$$$$$$$$$$$$$$$$$$$$$$$$$$$$$$$$$$$$$$$$$$$$$$$$$$$$$$$$$$$$$##@@@",
"     +###@@@@@$$$$$$$$$$$$$$$$$$$$$$$$$$$$$$$$$$$$$$$$$$$$$$$$$$$$$$$$$$$$$$$$$$$$$$$$$$$$$#$@@@",
"    %.@@$@@@@$$$$$$$$$$$$$$$$$$$$$$$$$$$$$$$$$$$$$$$$$$$$$$$$$$$$$$$$$$$$$$$$$$$$$$$$@@$$$@#$@@@",
"   %..@@@@@@@@$$$$$$$$$$$$$$$$$$$$$$$$$$$$$$$$$$$$$$$$$$$$$$$$$$$$$$$$$$$$$$$$$$$$$$$@@$@$@#@@@@",
"  %%+@@#@@@@#@@@$$$$$$$$$$$$$$$$$$$$$$$$$$$$$$$$$$$$$$$$$$$$$$$$$$$$$$$$$$$$$$$$$$$$$@@####@#@@@",
"  .%@@@@####@@@@$$$$$$$$$$$$$$$$$$$$$$$$$$$$$$$$$$$$$$$$$$$$$$$$$$$$$$$$$$$$$$$$$$$$$$@@#@@@##@@",
"  .%@@@@####@@@@$$$$$$$$$$$$$$$$$$$$$$$$$$$$$$$$$$$$$$$$$$$$$$$$$$$$$$$$$$$$$$$$$$$$$@@@####@@..",
" ..%@@@@#$$$@@@$$$$$$$$$$$$$$$$$$$$$$$$$$$$$$$$$$$$$$$$$$$$$$$$$$$$$$$$$$$$$$$$$$$$#@####@@@@@%.",
" .%%@@@@@#$$$$$$$$$$$$$$$$$$$$$$$$$$$$$$$$$$$$$$$$$$$$$$$$$$$$$$$$$$$$$$$$$$$$$$$$$##@$$$@#...%$",
" .%%@@@@@#$$$$$@@$$$$$$$$$$$$$$$$$$$$$$$$$$$$$$$$$$$$$$$$$$$$$$$$$$$$$$$$$$$$$$$$$$$#$$$$@#%%.%%",
"  .%@@@@@##$$$$@@$$$$$$$$$$$$$$$$$$$$$$$$$$$$$$$$$$$$$$$$$$$$$$$$$$$$$$$$$$$$$$$$$$$#$$$$@#.:%%%"};
