/* XPM */
static char * floor_corner_bot_right_xpm[] = {
"96 96 11 1",
" 	c #1E6F50",
".	c #33984B",
"+	c #5D2C28",
"@	c #391F21",
"#	c #8A4836",
"$	c #3B1443",
"%	c #5D5D5D",
"&	c #3D3D3D",
"*	c #134C4C",
"=	c #432223",
"-	c #592A27",
"  ...++++++++++++++++++++++++++++++++++++++++++++++++++++++++++++++++++++++++++@####@+@@@$$     ",
" .%%%%&&+++++++++++++++++++++++++++++++++++++++++++++++++++++++++++++++++++++++@####@+@@@$$     ",
"@&&%%%%%%+++++++++++++++++++++++++++++++++++++++++++++++++++++++++++++++++++++++@###@@##.$      ",
".&&&%%%%%%+++++++++++++++++++++++++++++++++++++++++++++++++++++++++++++++++++++++##@+###..*     ",
"@@&&&&&%&&&++++++++++++++@@+++++++++++++++++++++++++++++++++++++++++++++++++++++@@++####$*      ",
"@@@&&&&&&@@%++++++++++++###@+++++++++++++++++++++++++++++++++++++++++++++++++++###@@####..      ",
"@@@@&&@@@@%%+++++++++@++####++++++++++++++++++++++++++++++++++++++++++++++++++######@##..*      ",
"@@@&&&&&&@%&++++++++++@@####+++++++++++++++++++++++++++++++++++++++++++++++++#######++#.$*      ",
"@@@&&&&&&@&@++++++++++++++@++++++++++++++++++++++++++++++++++++++++###++++++++######@@@@$       ",
"#@@&&&&&&@@@@@+++++++++++++++++++++++++++++++++++++++++++++++++++++###+++++++++####@#####$      ",
"#@+@@&&&@&&&%%++++++++++++++++++++++++++++++++++++++++++++++++++++++++++++++++++@@@######$      ",
"++++++++@@&%%&+++++++++++++++++++++++++++++++++++++++++++++++++++++++++++++++@++++#######$      ",
"=+++++++@@&%%@+++++++++++++++++++++++++++++++++++++++++++++++++++++#+++++++++++++########.*     ",
"+++++++++@&&@++++++++++++++++++++++++++++++++++++++++++++++++++++++++++++++++++++########..     ",
"++++++@+++++-++++++++++++++++++++++++++++++++++++++++++++++++++++++++++++++++++++########$      ",
"++++++@##++++++++++++++++++++++++++++++++++++++++++++++++++++++++++++++++++++++++#######.$      ",
"++++++###@+++++++++++++++++++++++++++++++++++++++++++++++++++++++++++++++++++++++#######..*     ",
"++++++###@@@@+++@@++++++++++++++++++++++++++++++++++++++++++++++++++++++++++++++++######..*     ",
"+++++++@@+####@@####@@++++++++++++++++++++++++++++++++++++++++++++++++++++++++++++++@@@@$*      ",
"++++@+++@############+++++++++++++++++++++++++++++++++++++++++++++++++++++++++++++++###$        ",
"+++++@@@@############+++++++++++++++++++++++++++++++++++++++++++++++++++++++++++++++###$        ",
"+++++###@#####@@@####++++++++++++++++++++++++++++++++++++++++++++++++++++++++++++++++##$        ",
"+++++###@@@@@@+++@@@@@+++++++++++++++++++++++++++++++++++++++++++++++++++++++++#@###+@@$.*      ",
"+++++###@####@++++++++@++++++++++++++++++++++++++++++++++++++++++++++++++++++++++###+##..*      ",
"+++++@+@#####@++##++++@++++++++++++++++++++++++++++++++++++++++++++++++++++++##++##@###.@       ",
"++++++++####+++++++++++++++++++++++++++++++++++++++++++++++++++++++++++++++++##+++@@###.$       ",
"++++++++@##@+++++++++++++++++++++++++++++++++++++++++++++++++++++++++++++++++++++++#####$       ",
"++++++++@++++++++++++++++++++++++++++++++++++++++++++++++++++++++++++++++++++++++++####..*      ",
"++++++++++++++++++++++++++++++++++++++++++++++++++++++++++++++++++++++++++++++++++@+###$..      ",
"+++++++++++++++++++++++++++++++++++++++++++++++++++++++++++++++++++++++++++++++++###@@@+$*      ",
"+++++++++++++++++++++++++++++++++++++++++++++++++++++++++++++++++++++++++++++++++####+##$..     ",
"++++++++++++++++++++++++++++++++++++++++++++++++++++++++++++++++++++++++++++++++@####@##$.*     ",
"++++++++++++++++++++++++++++++++++++++++++++++++++++++++++++++++++++++++++++++++@@##@@@#$**     ",
"+++++++++++++++++++++++++++++++++++++++++++++++++++++++++++###+++++++++++++++++@####@+@@@$$     ",
"+++++++++++++++++++++++++++++++++++++++++++++++++++++++++++###++++++++++++++++++++++++##$       ",
"++++++++++++++++++++++++++++++++++++++++++++++++++++++++++++##+++++++++++++++++++####@##$       ",
"++++++++++++++++++++++++++++++++++++++++++++++++++++++++++++++++++++++++++++++++######@#$       ",
"+++++++++++++++++++++++++++++++++++++++++++++++++++++++++++++++++++++++++++++++++#####+$..*     ",
"+++++++++++++++++++++++++++++++++++++++++++++++++++++++++++++++++++++++++++++++++++##@@..*      ",
"+++++++++++++++++++++++++++++++++++++++++++++++++++++++++++++++++++++++++++++++++++@+##.*@      ",
"+++++++++++++++++++++++++++++++++++++++++++++++++++++++++++++++++++++++++++++++++##+@####$      ",
"++++++++++++++++++++++++++++++++++++++++++++++++++++++++++++++++++++++++++++++++####@####$      ",
"+++++++++++++++++++++++++++++++++++#++++++++++++++++++++++++++++++++++++++++++++####@####$      ",
"+++++++++++++++++++++++++++++++++++#++++++++++++++++++++++++++++++++++++++++++++####@###.$      ",
"++++++++++++++++###@#######+++++++++++++++++++++++++++++++++++++++++++++++++++++++@@@###..*     ",
"++++++++++++++++###@@@#####++++++++++++++#+++++++++++++++++++++++++++++++++++++++####@@+$       ",
"++++++++++++++++###@###@@@+++++++++++++++#+++++++++++++++++++++++++++++++++++++#######+$.*      ",
"+++++++++++++++++@@#####++@++++++++@+++++@++++++++++++++++++++++++++++++++++++########@..*      ",
"+++++++++++++++++++#####+++++++++++@##++++++++++++++++++++++++++++++++++++++++########..*       ",
"+++++++++++++++++++@####+++++++++++###@+++++++++++++++++++++++++++++++++++++++########.*        ",
"++++++++++++++++++++@++++++++++++++###@@@@+++@@+++++++++++++++++++++++++++++++#########$        ",
"++++++++++++++++++++++++++++++++++++@@+####@@####@@++++++++++++++++++++++++++++#####@@@$        ",
"+++++++++++++++++++++++++++++++++@+++@############++++++++++++++++++++++++++++++####+##.*       ",
"++++++++++++++++++++++++++++++++++@@@@############+++++++++++++++++++++++++++++########..*      ",
"++++++++++++++++++++++++++++++++++###@#####@@@####+++++++++++++++++++++++++++###@####@##$**     ",
"++++++++++++++++++++++++++++++++++###@@@@@@+++@@@@@++++++++++++++++++++++++++####@@@@####*.     ",
"++++++++++++++++++++++++++++++++++###@####@++++++++@+++++++++++++++++++++++++####@@@@####*.     ",
"++++++++++++++++++++++++++++++++++@+@#####@++##++++@++++++++++++++++++++++++++###+++@####*..    ",
"+++++++++++++++++++++++++++++++++++++####++++++++++++++++++++++++++++++++++++++++++@#####**.    ",
"+++++++++++++++++++++++++++++++++++++@##@+++++++++++++++++++++++++++++++++++##+++++@#####**.    ",
"+++++++++++++++++++++++++++++++++++++@++++++++++++++++++++++++++++++++++++++##++++@@#####*.     ",
"++++++++++++++++++++++++++++++++++++++++++++++++++++++++++++++++++++++++++++@@+++###@###$..     ",
"+++++++++++++++++++++++++++++++++++++++++++++++++++++++++++++++++++++++++++++++++###@###$..     ",
"++++++++++++++++++++++++++++++++++++++++++++++++++++++++++++++++++++++++++++++++@####+@@$.      ",
"++++++++++++++++++++++++++++++++++++++++++++++++++++++++++++++++++++++++++++++++@###@###$..     ",
"++++++++++++++++++++++++++++++++++++++++++++++++++++++++++++++++++++++++++++#++++##@####**..    ",
"++++++++++++++++++++++++++++++++++++++++++++++++++++++++++++++++++++++++++++#++++##@####**..    ",
"+++++++++++++++++++++++++++++++++++++++++++++++++++++++++++++++++++++++++++#++++++++####***.    ",
"++++++++++++++++++++++++++++++++++++++++++++++++++++++++++++++++++++++++++##@++++@@@###$*       ",
"+++++++++++++++++++++++++++++++++++++++++++++++++++++++++++++++++++++++++++++++++@@@###$*       ",
"+++++++++++++++++++++++++++++++++++++++++++++++++++++++++++++++++#@++++++++++++@###@@##$*       ",
"++++++++++++++++++++++++++++++++++++++++++++++++++++++++++++++++###@+++++@+++++######@$**       ",
"+++++++++++++++++++++++++++++++++++++++++++++++++++++++++++++++@###@+++++@+++++######@$**       ",
"+++++++++++++++++++++++++++++++++++++++++++++++++++++++++++++++@####+++++++++++#######$*..      ",
"+++++++++++++++++++++++++++++++++++++++++++++++++++++++++++++++@####+++@#@+++++#######$*..      ",
"+++++++++++++++++++++++++++++++++++++++++++++++++++++++++++++++@####+++@#@+++++#######$*..      ",
"+++++++++++++##++++++++++++++++++++++++++++++++++++++++++++++++@####+@###@+++@+@#####@$..       ",
"++++++++++++###++++++++++++++++++++@+++++++++++++++++++++++@@+++###++@###@@@+###@@@@##$**       ",
"++++++++++++###+++++++++++++++++++++++++++++++++++++++++++++++++###++@###@@@+###@@@@##$**       ",
"+++++++++++++++++++++++++++++++++@@++++++++++++++++++++++++##+++##+@##@##@##@#####@####*.       ",
"++++++@####@++++++@+++++@###@+++@###@+@###@++++++++++++++++##+++@@@######@########@###$*.       ",
"###@++######@+++++++++++#####+++#####@#####@++++++@###@++++#++++@@@######@########@###$*.       ",
"####@+######@+++++@###@+#####+++###########@++++++####@+++++++###@#####@@#########@$##@**       ",
"####@+######@@++@@#####+####@##@@###@#####@###@@+@#####@++++++###@#..##$+####@##*.$*.$**        ",
"@##@@+@#####@##########@+##@####++++@##########@@######@+++@###@#@#..##$+####@##*.$*.$**        ",
"+@#####@@@+@###########@@@+@####+@####@##@######@######@@++#####*.$*..$$..$*.$$$..*....         ",
"@#######@##@######@##@##########@######@+#######@+####@###@#####.  *..**..*.. *...*.*..*        ",
"@################@@@@@##########$######@$$######$$@@#@##########.  *..**..*.. *...*.*..*        ",
"$###########@###@####@######$$$@*$##$*****$#$$$$$####@#####$$##@ *. *.*..*           *..        ",
"$$$####$$###$$#######$$$###$.********..************$$#@$$$******                                ",
"*.*******..***$$$$$$**.**..**.* *..*..   ..*.*****..*********..                                 ",
"*.**...*...****..****..*..** ..  .  .   ..  .    ..****.** *..                                  ",
"   ... ..       ..***.                                 ..                                       ",
"                                                        .                                       ",
"                                                                                                ",
"                                                                                                "};
