/* XPM */
static char * floor_top_closed_xpm[] = {
"95 96 26 1",
" 	c #5D2C28",
".	c #391F21",
"+	c #8A4836",
"@	c #3B1443",
"#	c #1E6F50",
"$	c #33984B",
"%	c #134C4C",
"&	c #5D5D5D",
"*	c #3D3D3D",
"=	c #71392E",
"-	c #562926",
";	c #5C2B28",
">	c #72392E",
",	c #874635",
"'	c #7A3E31",
")	c #63302A",
"!	c #452323",
"~	c #864635",
"{	c #6F382D",
"]	c #6B352C",
"^	c #814233",
"/	c #422223",
"(	c #763C30",
"_	c #442323",
":	c #6C362D",
"<	c #824333",
" ..++...@@#######################################################################@@...++..   ++",
" +++++.++$$$###################################################################$$$@+.+++++     ",
" ++++ +++%%$$###################################$#############################$$%%@++.++++     ",
"   ...+++@$$%#$$%###############################$$############################%$$$+++...       ",
"  .++.++++@$%%%$$####$$##############$$$###$$%#%%$%%%%$$####$##$$###$##$##$###%$%@+++          ",
"  +++++++++@%%%%%#$#$$%#############$$$%##$$%%%%%%%%%$$%%%%%$%$$###$$%$$%#%%$$%%@++... .       ",
"  ++++...+++@@+@@%$$$%%###$$###$$##%%%%%%%%%%%%@@@.+@@%%%%%%%%%%%%$$%%%%%%%%%$$%@..++++        ",
"   +++.+++++.+++.%@@@%%%%%$$$%$$%%%%%@@@@.++@@+++++.++++@@@@@+@%%%%%@++@%.@%@@%@++ ++++        ",
"      .+++++++++.@+.+++@@%%%$%%%%@@.++++@++++++++++.+..@@++++++@@.++++++@+++++@++++.++.        ",
"     . ++++.+++++++.+++++@@@@@+@+++.++++.+++++.+++.++++ .+++++++ .++++++.+++++.++++.           ",
"         .. +++++++ +++++.++.++++++.+++ .+++++  ..++++++.++++++.++.++++. +++++.++++            ",
"        .++++++++..+.+++.+++++++++. ..++..+++.   .++++++..++++++++++.    +++++...++            ",
"        ++++. ++.++++. ..++++.++++++.++++        .+++++. ..+++.+++++.+++..++. ++..             ",
"        ++++. .+.+++++ .+++++. ...++.++++         .++++      .+++++++++++  +.+++.              ",
"        +++.  +++ ++++ .+++++. ++ ++ ++++    +    .+++.      .+++++.+++++    ++.               ",
"              +++  ..          +++.   ++.   ++                .+++. .+++.    ..+++             ",
"                .     &&&&&**   ++          ++                        ..     .++++             ",
"                    +.**&&&&&&                                               .++++             ",
"                   ++.***&&&&&&                                      .       .+++              ",
"             ++  =.....*****&***        +                                     +++              ",
"             ++    .+...******..&       +                                                      ",
"               ++++.+....**....&&       .++++.++++               ..+++++++                     ",
"               ++++++...******.&*      .. +++.++++                 .+++++.                     ",
"               +++.++...******.*.     +++......++..                                            ",
"                  .+++..******.....   +++. .+++.                                               ",
"                  .+++. ..***.***&&  ..++  .+++                                                ",
"                 . ++        ..*&&*        .+++.                                               ",
"                     .       ..*&&.       .                                                    ",
"                              .**.                                                             ",
"                                                                                               ",
"                                                                                               ",
"                                                                                               ",
"                                                                                               ",
"            .                                                                                  ",
"       .+++.                                                                                   ",
"        +++.  ++..                                                                             ",
"       .+++. .+++                                                                              ",
"    ..++......+++                                                                              ",
"     ++++.+++ ..                                                                               ",
"     ++++.++++.                      .++                            .++                        ",
"     .+++.++++.                     .+++.                          .+++.                       ",
"       ++.++++.  .++                .+++                           .+++                        ",
"       ...++++                       +++                            +++                        ",
"          .++.                         .                              .                        ",
"          .++.                         .            ***          &&&*&&&              ..       ",
"       +  .+++.                       .         &&&*&**&&&&**   ********.        .   .         ",
"       + .++++.                               ..************.   *******..  .    ..+++.         ",
"         .++++                                   .  ......      .....***        .++++.         ",
"         .++++                                         &**&&&&&  *&&&*&&&*&.    .++++.         ",
"         .+++.                                         *.******  **********.     ++++. +       ",
"         .   .           .                               .....   **********   .+++++.  +       ",
"       ..               .                       *&&&&*&&&**&***   .... .....   ++.++.          ",
"                        .                     . ***************&&&***          ...++.          ",
"                        +++                     **********************.          ++++...       ",
"                        +++.                       ............ .........       .++++.++       ",
"                       .+++.                                                    .++++.+++.     ",
"                        ++.-;                     **&&&**&&&&**     *&&&        .++++.++++     ",
"                       >,+. .')                  .*************  *&&****&&        +++.++++     ",
"                      !.++  .+~{              ......*********..  *********       ......++..    ",
"                            .+++                        ....      ..... .*       . .+++.       ",
"                           .                         &&*&*       *&&&&&*           .+++        ",
"                                                   ********     ********           .+++.       ",
"                                                   ********       ........ ..     .            ",
"             ]^/                                   .*****..                                    ",
"           (+++.                                     ...    *&&&&*&&*&&&&                      ",
"           ++++.                                   *&&  *****************                      ",
"          .++++. +                                 ***  *****************                      ",
"          .+++.  +                             ... ...  .***************...                    ",
"           .++.                           .                         ....                       ",
"           .++.                                  *&&&&&**&*&&.   .&&&*&&*                      ",
"           ++++...                       .+     .**************  .*******.. .                  ",
"       -  .++++.++                       ++.. ...**************.  .. ****.                     ",
"          .++++.+++.                     ++.    .....                                          ",
"          .++++.++++     .               ++.   *&&&*&&&&&      *&&&*&&&&&&*                    ",
"         _. +++.++++                     +++...**********.    .************                    ",
"         :+......++..                    .++++    .......       .........                      ",
"         <+. .+++.                        ....++.                        ....++.               ",
"         ++  .+++                         .+++.                          .+++.                 ",
"             .+++.                        .+++.                          .+++.                 ",
"            .                              +++                            +++                  ",
"                                                                                               ",
"                                                                                               ",
"                                                                                               ",
"                                                                                               ",
"                                                                                               ",
"   .                                                                                           ",
"    ++ .                                                                                       ",
"  .+++.                                                                                        ",
"  ++++.                                                                                        ",
"  ++++.+++                                                                                     ",
"  ++++++++                                                                                     ",
"  +++.++++                                                                                     ",
"  .++.++++.                                                                                    ",
"   ....++.                                                                                     ",
"   .+++.                                                                                       ",
"   .+++.                                                                                       "};
