/* XPM */
static char * floor_bot_closed_xpm[] = {
"96 96 33 1",
" 	c #214A4A",
".	c #1E6F50",
"+	c #8A4836",
"@	c #391F21",
"#	c #5D2C28",
"$	c #134C4C",
"%	c #3D4241",
"&	c #1F4A4A",
"*	c #543532",
"=	c #854534",
"-	c #7B3F31",
";	c #793E30",
">	c #814233",
",	c #69342C",
"'	c #773C30",
")	c #5D5D5D",
"!	c #3D3D3D",
"~	c #562926",
"{	c #5C2B28",
"]	c #72392E",
"^	c #874635",
"/	c #7A3E31",
"(	c #63302A",
"_	c #452323",
":	c #864635",
"<	c #6F382D",
"[	c #6B352C",
"}	c #422223",
"|	c #763C30",
"1	c #442323",
"2	c #71392E",
"3	c #3B1443",
"4	c #33984B",
"  ..+++++@############################################################################@+++@$.$$$",
"%$.++@@+@##############################################################################+++##....",
"&$+++@@@@##+##########################################################################@+++@#++.$",
"*#++@@++@@+++#######################################################################+#+@@@@@@+.$",
"#@++@++++@+++@@#######################################################################++@++++@@$",
"##@@+++++@@++#########################################################################++@@+++@@$",
"###+++++@@@##########################################################################+++@++++@+=",
"###@++++@#############################################################################++@++++@+-",
"##@++++###############################################################################@@@++++#+#",
"@+@++@########################################@@#################@@@@@###################@+++++;",
"@+++++###################################@###@######################++#######+###########+++@#+-",
"+++++@###################################@+++@######################@+#######+########+##@+++@+>",
"++++###############################,#####++++@######################@+++++############+#+++++@#>",
"#+@######################################++++@######################@+++++##############@++++++>",
"##@#####################################@++++@#+################++++@@@@###############@@+++###'",
"########################################@+++@##+################@@@+@+@+################@+++@#+#",
"##################+++#)))))!!############@++@###################@+++@+@#################@#######",
"#################@+++@!!))))))###########@++@####################+++@++++#############@@########",
"#################@+++@!!!))))))##########++++@@@###############+++++@@@@@#######################",
"###############@++@@@@@!!!!!)!!!###++@##@++++@++#################+@#@++##@######################",
"##############@++++@+@@@!!!!!!@@)#######@++++@+++@###############+@++++++@######################",
"###############++++@+@@@@!!@@@@))#######@++++@++++###############@@+++++++######################",
"###############++++++@@@!!!!!!@)!######@@#+++@++++#################@+++++@######################",
"###############+++@++@@@!!!!!!@!@#####+++@@@@@@++@@#############################################",
"##################@+++@@!!!!!!@@@@@###+++@#@+++@################################################",
"##################@+++@#@@!!!@!!!))##@@++##@+++#################################################",
"#################@#++########@@!))!########@+++@################################################",
"#####################@#######@@!))@#######@#####################################################",
"##############################@!!@##############################################################",
"################################################################################################",
"################################################################################################",
"################################################################################################",
"################################################################################################",
"############@###################################################################################",
"#######@+++@####################################################################################",
"########+++@##++@@##############################################################################",
"#######@+++@#@+++###############################################################################",
"####@@++@@@@@@+++###############################################################################",
"#####++++@+++#@@################################################################################",
"#####++++@++++@######################@++############################@++#########################",
"#####@+++@++++@#####################@+++@##########################@+++@########################",
"#######++@++++@##@++################@+++###########################@+++#########################",
"#######@@@++++#######################+++############################+++#########################",
"##########@++@#########################@##############################@#########################",
"##########@++@#########################@############!!!##########)))!)))##############@@########",
"#######+##@+++@#######################@#########)))!)!!))))!!###!!!!!!!!@########@###@##########",
"#######+#@++++@###############################@@!!!!!!!!!!!!@###!!!!!!!@@##@####@@+++@##########",
"#########@++++###################################@##@@@@@@######@@@@@!!!########@++++@##########",
"#########@++++#########################################)!!)))))##!)))!)))!)@####@++++@##########",
"#########@+++@#########################################!@!!!!!!##!!!!!!!!!!@#####++++@#+########",
"#########@###@###########@###############################@@@@@###!!!!!!!!!!###@+++++@##+########",
"#######@@###############@#######################!))))!)))!!)!!!###@@@@#@@@@@###++@++@###########",
"########################@#####################@#!!!!!!!!!!!!!!!)))!!!##########@@@++@###########",
"########################+++#####################!!!!!!!!!!!!!!!!!!!!!!@##########++++@@@########",
"########################+++@#######################@@@@@@@@@@@@#@@@@@@@@@#######@++++@++########",
"#######################@+++@####################################################@++++@+++@######",
"########################++@~{#####################!!)))!!))))!!#####!)))########@++++@++++######",
"#######################]^+@#@/(##################@!!!!!!!!!!!!!##!))!!!!))########+++@++++######",
"######################_@++##@+:<##############@@@@@@!!!!!!!!!@@##!!!!!!!!!#######@@@@@@++@@#####",
"############################@+++########################@@@@######@@@@@#@!#######@#@+++@########",
"###########################@#########################))!)!#######!)))))!###########@+++#########",
"###################################################!!!!!!!!#####!!!!!!!!###########@+++@########",
"###################################################!!!!!!!!#######@@@@@@@@#@@#####@#############",
"#############[>}###################################@!!!!!@@#####################################",
"###########|+++@#####################################@@@####!))))!))!))))#######################",
"###########++++@###################################!))##!!!!!!!!!!!!!!!!!#######################",
"##########@++++@#+#################################!!!##!!!!!!!!!!!!!!!!!#######################",
"##########@+++@##+#############################@@@#@@@##@!!!!!!!!!!!!!!!@@@#####################",
"###########@++@###########################@#########################@@@@########################",
"###########@++@##################################!)))))!!)!))@###@)))!))!#######################",
"###########++++@@@#######################@+#####@!!!!!!!!!!!!!!##@!!!!!!!@@#@###################",
"#######~##@++++@++#######################++@@#@@@!!!!!!!!!!!!!!@##@@#!!!!@######################",
"##########@++++@+++@#####################++@####@@@@@###########################################",
"##########@++++@++++#####@###############++@###!)))!)))))######!)))!))))))!#####################",
"#########1@#+++@++++#####################+++@@@!!!!!!!!!!@####@!!!!!!!!!!!!#####################",
"#######################################################+########@@@@@@@@@########++#############",
"###############+++#####################################+#################@@@@+2##++#############",
"###############+++@#######@##############################################@+++###################",
"#############################################################################@++++##############",
"@###++#@########@###############++##########++########################@@#####@++##############++",
"@##############@+##@@##########+++@###++@###++################@+++@#@+++@####@@+#########+++##++",
"################+#++++#@+++++@#++#++#++++####+####@+++@######@+++++@+++++####++@##++++###++++###",
"#########@+++++@@+++++#@+++++@#@@@++@++++#########@++++######@+++++++++++##+@+++#++++++#+++++###",
"##@@#####+++++++@++++@#@@++++@++++++@++++########@+++++@#@@+++@+++++@+++@@++@#++#++++++++@+++###",
"++++++#@@++++++++@@+@+++@+++++++++@#@@++@@+++@###@++++++@@++++++++++@####+++++@@++++++++++@@####",
"++++++#@@++++++++++#+++++@++@++++++@+++#@+++++##@@++++++@++++++@++@++++@#+++++@+++++++++++@@###@",
"++++@@#@@@+++++++++@+++++33333+3+++@++++@+++++@+++@++++#@+++++++#@++++++@+++++@+++++++++++@@#@@@",
"@@+@+++++@++++++@3+@+++33$$$4$$$$33@++++3++++++++++@+@@33++++++33@++++++3+++++3+++++++@#++@@@+++",
"++#+++++++@@+++@@$333$$$$$444$44$$$$$3333@++33+++++@++++33333+3$$$$$3++3$@3$33$3@+++++@++@++++++",
"++@+++++++3333333$444$$...44...44..$$$$$$$$$$$$333@+33$$$$$$$$$$$$44$$$$$$$$$44$@#@44+@+++++++++",
"++@++++333$$$$$4$.4.44$.............444$..44$$$$$$$$$44$$$$$4$44...44$44$.$$44$$#344$3344+++++++",
"3333$$$$$$$$44444....44..............444...44$.$$4$$$$44....4..44...4..4..4...$4344$...$43++++++",
"4444$$$.....444.$...............................44............................$4.$$.....$$$$$$$$",
"44.444$.........................................4.............................44.........$444$$4",
"....444.....................................................................................444.",
"................................................................................................"};
