/* XPM */
static char * floor_corner_bot_left_xpm[] = {
"96 96 14 1",
" 	c #1E6F50",
".	c #134C4C",
"+	c #3B1443",
"@	c #391F21",
"#	c #5D2C28",
"$	c #8A4836",
"%	c #0E3737",
"&	c #33984B",
"*	c #1C121C",
"=	c #392622",
"-	c #5B3B2B",
";	c #5C3129",
">	c #184B4B",
",	c #1E4A4A",
"    ..++@@#@$$$################################################################@@$$$$$$$$$$$$$$%",
"    &&+$$$@$$$$################################################################@$$$$$$$$$$$$$$$$",
"    ..+$$$$$$$$################################################################@$##############$",
"   &..$$$$$@$$@################################################################@####**###*##*#*#",
"   &&.$$$$$@@@##############################################################@##@#**##*#**#*#*###",
"   &&.$$$$$############################################################@$$$@##@@#*##**###**#*#*#",
"    &.$$$$$@$$$@########################################################$$$@##$$################",
"   &..+$$$@$$$$$#######################################################@$$$@#@$$##*#**##*#***#*#",
"   &&.+$$@@$$$$$####################################################@@$$@@@@@@$$##**#*#**#####*#",
"    &&$$$$@$$$$$#####################################################$$$$@$$$#@=%##############%",
"    &&$$$$#$$$$$#####################################################$$$$@$$$$@-%%%###@@@@###%%%",
"    ..$$$@@$$$$@#####################################################@$$$@$$$$@-%%%%%.####.%%%%%",
"    ..+@$$$@@@@##$$####################################################$$@$$$$@;>.....####......",
"    ..+$$$$$@####$$$###################################################@@@$$$$##,.....####......",
"    .+$$$$$$#####$$$######################################################@$$@###......##......#",
"    &+$$$$$$##############################################################@$$@########....######",
"   &&+$@$$$$@####################################$$$###################$##@$$$@#################",
"   &.+$$@$$$@###################################@$$$###################$#@$$$$@#################",
"   ..+$$@@$$$@#@################################@$$$#####################@$$$$##################",
"   ..+$$@$$$$$################################@$$@@@#####################@$$$$##################",
"   ...$$@$$$$$###############################@$$$$@$#####################@$$$@##################",
"   &&.+@@@$$$$################################$$$$@$#####################@###@###########@######",
"    &&+$$$$$$@################################$$$$$$###################@@###############@#######",
"    ..+$$$@@##################################$$$@$$####################################@#######",
"    &.$$$$@#$$$@#################################@$$####################################$$$#####",
"    &&$$$$@$$$$$#################################@$$####################################$$$@####",
"    .&$$$$#$$$$$################################@#$$###################################@$$$@####",
"    ..+$$$@@$$$$########################################################################$$@#####",
"     .&+$$$$@$$@################################################################################",
"    &&.+$$$$$###################################################################################",
"    &..+$$$$$###################################################################################",
"      .@$$$$@###################################################################################",
"     ...+@##@$$@################################################################################",
"    &&.+$$@#$$$$@##########################@####################################################",
"     &.$$$$#$$$$@#####################@$$$@#####################################################",
"     ..$$$$#$$$$##@####################$$$@##$$@@###$$##########################################",
"    &&.+$$$@@$$@######################@$$$@#@$$$################################################",
"     &&.$$$$$$@####################@@$$@@@@@@$$$################################################",
"      &.$$@$$$$@####################$$$$@$$$#@@#################################################",
"      ..@@$$$$$$####################$$$$@$$$$@##################################################",
"    & ..+#$$$$$$####################@$$$@$$$$@##################################################",
"    &&..+$@$$$$$######################$$@$$$$@##@$$#############################################",
"     &.+$$$$@$$@######################@@@$$$$###################################################",
"     ..$$$$$$@@##########################@$$@###################################################",
"    &&.+$$$$$############################@$$@###################################################",
"     ..+$$$$$#########################$##@$$$@##################################################",
"     ..+$$$$@#########################$#@$$$$@##################################################",
"     ..+$$$@@###########################@$$$$###################################################",
"     ..++@@@############################@$$$$###################################################",
"    &..$+#$$@###########################@$$$@###################################################",
"    &&.$@$$$$$@#########################@###@###################################################",
"    .&+$@$$$$$$#######################@@########################################################",
"    ..+$$$$$$$$#################################################################################",
"    ..$@@$$$$$$#################################################################################",
"    ..@$$@$$$@@#################################################################################",
"   &&.+$$$@@@###################################################################################",
"  &&..+$$$@#####################################################################################",
"    ..+$$$######################################################################################",
"     ..$$@######################################################################################",
"    ...+$$$@##$$$#@##########################################$$#################################",
"    &..+$$$$###$$#@#########################################$$$#################################",
"    &&.$$$$$################################################$$$#################################",
"     &.$$$$$$$##################################################################################",
"      .@$$$@$$#####@@@@@########################################################################",
"        &&.$$$@@$$$$$$$$$#######################################################################",
"       .  &@@@@@$$$$$$$$$$######################################################################",
"       &  +$$$@@#$$$$$$$$@######################################################################",
"        ...&&$$$@##$$$$@@##########################################################$##$$########",
"       .&&&&&$$$$#####################################################################$$########",
"       &&&&$$$$$$@@@##################################################################$$########",
"       ...+$$$$$@$$$############################################################################",
"       &..+++@$$$$$$@@##########################################################################",
"       &&&&##@$$$$$$$$##########################################################################",
"       .&&&$$$@@@@@@@@#@@#######################################################################",
"        ..+$$$$$$@@########$####################################################################",
"        &&.$$$$$$@@########$$###################################################################",
"        &&&$$$$$@##########@#$$###@$$###########################################################",
"          +@@$$$$$$@##############@$$##$$$############################$$############@###$#######",
"        ..+$$$$$$$$###################$$$$###$$$$#####################$$###############$$$######",
"        &&+$$$$$$$$@$$$$$@############$$$$$#$$$$$$############@##########$############$$$$$###@@",
"        &&&..$$$$@@$$$$$$$#####@@#####$$$@$$$$$$$$##$$$####$##$@@########@###########@$$$$$@#@$$",
"        &&&&&$$$$@@$$$$$$$@@#$$$$$$####@@$$$$$$$$$$#$$$$##$$$#$@$$$####$$$#####$$$$$#@$$$$$@$$$$",
"        ...++@@@@@@$$$$$$$@@#$$$$$$@###@@$$$$$$$$$$@$$$$##$$$#$$$$$@##@$$$####$$$$$$$@$$$$@#$$$$",
"        &&&..+$$$@@$$$$$$@@@#@@$$$$@@@#@@$$$$$$$$$$@$$$#@$$$$#$$$$$#$$@@$$####$$$$$$$$@$$$@#@$$$",
"        ..&&&$$$$$$$$$$$$@$$$$$@$@@$$$@@@$$#@$$$$$$@@@@@#$$$$#@@$$@$$$$$###$$@$$$$$$$$$@#@$$#@@@",
"       .&&&++$$$$$$@$$$@@$$$$$$$#$$$$$$$$@$$@$$$$$@$$$$$$@$$@##@@#@$$$$$$@$$$@$$$$$$$$$@#$$$$@##",
"       &&&&..@++$++++++++$$$$$$$@$$$$$$$$$$$@$&&@#@$$$$$$@#@$$@@$$@$$$$$$@$$$@$$$$$$$$$@$$$$$$@@",
"       &.. ........&.....+++$$$$@$$$$$$$$$&&++.&&+#$$$$$&&+$$$@$$$#+&$&&&++++@$$$$$$$$$@&&$$$$@@",
"             .&&&..&&&&........++++$$$$$$+&.   .&&+&&$$$.&&+++@++++&&++@&&   +&&&$$$$$$++&&+&&@@",
"                    &&&     ...&&&&........     .. &++++@.&   +.&&.&.   ..   .&&++&&+++ ..&.&+++",
"                            .&&& &&&..&&&.         .      .   +..&            ..  &.        . ++",
"                            &&&     &&&                                                         ",
"                                                                                                ",
"                                                                                                ",
"                                                                                                ",
"                                                                                                "};
