/* XPM */
static char * floor_bot_open_xpm[] = {
"96 96 7 1",
" 	c #1E6F50",
".	c #33984B",
"+	c #134C4C",
"@	c #3B1443",
"#	c #8A4836",
"$	c #391F21",
"%	c #5D2C28",
"                                                                                                ",
"                                                                                                ",
"                                                                                                ",
"                                                                                                ",
"                   .                     ....   ...     ...     ...                             ",
"                 ..+                   .....+  +++.+++...++... ...+                             ",
"          ....++.+++     ...    ...   +++++++++@@@++++++++++....+++     ...                     ",
"         ++++.@@@++++++++....  ..++++++++@@@@@@####@@@######@@@@++++++++....++...+              ",
"       ++.+++@$$####@@@+++++.++++++@@@$######@@####$$#########$####@@@+++++.+++++++++ ++.       ",
"       ++.####$$#######@@@@@@@@#@#####$######$$###$$$#########$#######@@@@@@@@#@@$+++....       ",
"    ...++@####%%#######$$###$#########$#####%$$%$$###$########%#######$$###$######@@@...+       ",
"      .++@###$##$#####$#############$$%$$$###$$$######$$$###$$#$#####$############....++        ",
"      +++@@@@####$$%$$$######$$########$$#############$$%$$$####$$%$$$######$$###@+++...        ",
"      ...#$$$######%$$#######$$%$$$$###$$#############$$%%%$######%$$#######$$$$$$@@@+++        ",
"    ...++##########%$$#######$$%###%###%%######$######$$%%%%######%$$#######$$####......        ",
"    ...@@#####$$$%%%%%#######%%%####$$%%%%###$$%#####$###%%%%%$$%%%%%#######$$####+++...        ",
"    +++@@#####%%%%%%%%$#####$%%%%###%%%%%%%%%%%%%%%$$####%%%%%%%%%%%%$#####$#########@..        ",
"      ...####$%%%%%%%%%%%%%%%%%%%%%%%%%%%%%%%%%%%%%$$####%%%%%%%%%%%%%%%%%%%#########@++        ",
"    ...@@@$$$$$$%%%%%%%%%%%%$%%%%%%%%%%%%%%%%%%%%%%%%###%%%%%%%%%%%%%%%%%%%$######$$$@          ",
"    +++@@#######%%%%%%%%%%%%%%%%%%%%%%%%%%%%%##%%%%%%%%%%%%%%%%%%%%%%%%%%%%%%%$######...        ",
"      +@@#######$%%%%%%%%%%%%%%%%%%%%%%%%%%%%##%%%%%%%%%%%%%%%%%%%%%%%%%%%%%$$#######+..        ",
"       @@#######$%%%%%%%%%%%%%%%%%%%%%%%%%%%%%%%%%%%%%%%%%%%%%%%%%%%%%%%%%%%$$#######@++        ",
"    ++...@###$$$$$$$%%$%%%%%%%%%%%%%%%%%%%%%%%%%%%%%%%%%%%%%%%%%%%%%%%$$%$$$$$$$$####...+       ",
"    .....@$$$#######%%%%%%%%%%%%%%%%%%%%%%%%%%%%%%%%%%%%%%%%%%%%%%%%%%%%%########$%%%....       ",
"    ..+@@@$$$######$%%%%%%%%%%%%%%%%%%%%%%%%%%%%%%%%%%%%%%%%%%%%%%%%%%%%%$$######$@@@@++.       ",
"    +++@@#####$$###%%%%###%%%%%%%%%%%%%%%%%%%%%%%%%%%%%%%%%%%%%%%%%%%%%%%%%###$######@+++       ",
"    .....@######$$$%%%%#####%%%%%%%%%%%%%%%%%%%%%%%%%%%%%%%%%%%%%%%%%%%%%%%$$$#######....       ",
"    ++....######%%%%%%%%%%%%%%%%%%%%%%%%%%%%%%%%%%%%%%%%%%%%%%%%%%%%%%%%%%%%%%####......+       ",
"      +++.####$$%$$###%%%%%%###%%%%%%%%%%%%%%%%%%%%%%%%%%%%%%%%%%%%%%%$$####%%$###...+++        ",
"    .. @@####$%%%######%%%%%###%%%%%%%%%%%%%%%%%%%%%%%%%%%%%%%%%%%%%%$########%$$####@  .       ",
"    ++ @@$%%%%%%%########%%%%%%%%%%%%%%%%%%%%%%%%%%%%%%%%%%%%%%%%%%%%##########$$$$$$.  +       ",
"       $$%%%%%%%$######%%%%%%%%%%%%%%%%%%%%%%%%%%%%%%%%%%%%%%%%%%%%%%%#########$$####+..        ",
"    ++@#$$$$##$$%%%%%%%%%%%%%%%%%%%%%%%%%%%%%%%%%%%%%%%%%%%%%%%%%%%##%%%%#%%%%%%%%%$$###$+      ",
"     +@##$%%%%%$####%%%%%%%%%%%%%%%%%%%%%%%%%%%%%%%%%%%%%%%%%%%%%%###%%%%%##%%%%%%%######+.     ",
"    +.@###$$$%%%####%%%%%%%%%%%%%%%%%%%%%%%%%%%%%%%%%%%%%%%%%%%%%%%%%%%%%%##%%%%%%%######+..    ",
"    +.@.#######%%$#%%%##%%%%%%%%%%%%%%%%%%%%%%%%%%%%%%%%%%%%%%%%%%%%%%%%%%##%%##%%%#####@++.    ",
"      +.$#######%%%%%%##%%%%%%%%%%%%%%%%%%%%%%%%%%%%%%%%%%%%%%%%%%%%%%%%%%%#%%###%%$$###@+++    ",
"     +..########%%%%%%%%%%%%%%%%%%%%%%%%%%%%%%%%%%%%%%%%%%%%%%%%%%%%%%%%%%%%%%%%%%%%%%$##++     ",
"    +...########%%%%%%%%%%%%%%%%%%%%%%%%%%%%%%%%%%%%%%%%%%%%%%%%%%%%%%%%%%%%%%%%%%%%%%###@++    ",
"      @$$$####$%%%%%%%%%%%%%%%%%%%%%$##%%%%%%%%%%%%%%%%%%%%%%%%%%%%%%%%%%%%%%%%%%%%%%$###@++..  ",
"     @####$$%%%%%%%%%%%%%%%%%%%%%%%$###$%%%%%%%%%%%%%%%%%%%%%%%%%%%%%%%%%%%%%%%%%%$$$$###@+..   ",
"     @######$##%%%%%%%%%%%%%%%%%%%%$###%%%%%%%%%%%%%%%%%%%%%%%%%%%%%%%%%%%%%%%%%$$####$##$++    ",
"     @###########%%%%%%%%%%%%%%%%%%%###%%%%%%%%%%%%%%%%%%%%%%%%%%%%%%%%%%%%%%%%%#######$$#++    ",
"     +..#########%%%%%%%%%%%%%%%%%%%%%$%%%%%%%%%%%%%%%%%%%%%%%%%%%%%%%%%%%%%%%%%#########@++    ",
"      +.##%%####%%%%%%%%%%%%%%%%%%%%%%$%%%%%%%%%%%%%%%$$%%%%%%%%%%%%%%%%%%%%%%%%#######$#@.+    ",
"       @$$$$#####%%%%%%%%%%%%%%%%%%%%$%%%%%%%%%%%$%%%$%%%%%%%%%%%%%%%%%%%%%%%%%%$######$#+..    ",
"       @##########%%%%%%%%%%%%%%%%%%%%%%%%%%%%%%%$###$%%%%%%%%%%%%%%%%%%%%%%%%%%%%$###%@#++.    ",
"       +.#########%%%%%%%%%%%%%%%%%%%%%%%%%%%%%%%####$%%%%%%%%%%%%%%%%%%%%%%%%%%%%%$$$$@@++     ",
"      +..#########%%%%%%%%%%%%%%%%%%%%%%%%%%%%%%%####$%%%%%%%%%%%%%%%%%%%%%%%%%%%%$$$###@++     ",
"     +..$#########%%%%%%%%%%%%%%%%%%%%%%%%%%%%%%$####$%#%%%%%%%%%%%%%%%%%%%%%%%%%%$#####@++     ",
"     +.@%########%%%%%%%%%%%%%%%%%%%%%%%%%%%%%%%$###$%%#%%%%%%%%%%%%%%%%%%%%%%%%%%######@++     ",
"      @%$$#####%%%%%%%%%%%%%%%%%%%%%%%%%%%%%%%%%%$##$%%%%%%%%%%%%%%%%%%%%%%%%%%%%%######@+..    ",
"    +..###$$$$%%%%%%%%%%%%%%%%%%%%%%%%%%%%%%%%%%%$##$%%%%%%%%%%%%%%%%%%%%%%%%%%%$$#######++     ",
"     @.###$$####%%%%%%%%%%%%%%%%%%%%%%%%%%%%%%%%%####$$$%%%%%%%%%%%%%%%%%%%%%%%$##$#####@+.     ",
"     @####$$####%%%%%%%%%%%%%%%%%%%%%%%%%%%##$%%$####$##%%%%%%%%%%%%%%%%%%%%%%%######$#@++..    ",
"     @####$$####%%%%%%%%%%%%%%%%%%%%%%%%%%%%%%%%$####$###$%%%%%%%%%%%%%%%%%%%%%#######%@++ .    ",
"     @####$$%##%%%%%%%%%%%%%%%%%%%%%%%%%%%%%%%%%$####$####%%%%%%%%%%%%%%%%%%%%%#######$$++      ",
"     $+.##%%$%%%%%%%%%%%%%%%%%%%%%%%%%%%%%%%%%%$$%###$####%%%%%%%%%%%%%%%%%%%%%$#####$##+.      ",
"     +..$$###%%%%%%%%%%%%%%%%%%%%%%%%%%%%%%%%%###$$$$$$##$$%%%%%%%%%%%%%%%%%%%%%$#######+..     ",
"    +..@%######%%%%%%%%%%%%%%%%%%%%%%%%%%%%%%%###$%$###$%%%%%%%%%%%%%%%%%%%%%%%$##$$$###@+..    ",
"      @#$#######%%%%%%%%%%%%%%%%%%%%%%%%%%%%%$$##%%$###%%%%%%%%%%%%%%%%%%%%%$%%####%%####++     ",
"      @##$#####%%%%%%%%%%%%%%%%%%%%%%%%%%%%%%%%%%%%$###$%%%%%%%%%%%%%%%%%%%%%%$####%%####+.     ",
"      @##%%%%%%%%%%%%%%%%%%%%%%%%%%%%%%%%%%%%%%%%%$%%%%%%%%%%%%%%%%%%%%%%%%%%%$####%%$##@+..    ",
"    @@$$$%$$####$%%%%%%%%%%%%%%%%%%%%%%%%%%%%%%%%%%%%%%%%%%%%%%%%%%%%%%%%%%%%%%$##$%%%$@+++     ",
"    ++@#$$$$##$$%%%%%%%%%%%%%%%%%%%%%%%%%%%%%%%%%%%%%%%%%%%%%%%%%%%%%%%%%%%%%%%%%%$#####$+      ",
"    +.@##$#####$%%%%%%%%%%%%%%%%%%%%%%%%%%%%%%%%%%%%%%%%%%%%%%%%%%%%%%%%%%%%%%%%%%######@++.    ",
"    ..@##%#####%%%%%%%%%%%%%%%%%%%%%%%%%%%%%%%%%%%%%%%%%%%%%%%%%%%%%%%%%%%%%%%%%%%######@+..    ",
"     +@%$$$$###%%%%%%%%%%%%%%%%%%%%%%%%%%%%%%%%%%%%%%%%%%%%%%%%%%%%%%%%%%%%%%%%$##$#####@.+     ",
"     ..@####%$%%%%%%%%%%%%%%%%%%%%%%%%%%%$%%%%%%%%%%%%%%%%%%%%%%%%%%%%%%%%%%%%%####$$$###@++    ",
"     +..#####%%%%%%%%%%%%%%%%%%%%%%%%%%%%%##%$%%%%%%%%%%%%%%%%%%%%%%%%%%%%%%%%%######%####.+    ",
"      @######%%%%%%%%%%%%%%%%%%%%%%%%%%%$###$%%%%%%%%%%%%%%%%%%%%%%%%%%%%%%%%%%######$####..    ",
"      @.####$$%%%##%%%%%%%%%%%%%%%%%%%%%####$%%%%%%%%%%%%%%%%%%%%%%%%%%%%%%%%%%$###%%$####+.    ",
"      $.####$##%%##%%%%%%%%%%%%%%%%%%%%%####$###%%%%%%%%%%%%%%%%%%%%%%%%%%%%%%%%%%%$$$###@++    ",
"     +..##%%###%%%%%%%%%%%%%%%%%%%%%%%%%########%%%%%%%%%%%%%%%%%%%%%%%%%%%%%%%%%$#######@..    ",
"     +.@$$%%###$#%%%%%%%%%%%%%%%%%%%%%%%###$####%%%%%%%%%%%%%%%%%%%%%%%%%%%%%%%%%#####$$$@+..   ",
"       @##%%%%%%%%%%%%%%%%%%%%%%%%%%%%%%$##$####$%%%%%%%%%%%%%%%%%%%%%%%%%%%%%%%%######$##+++   ",
"       @####%%%%%%%%%%%%%%%%%%%%%%%%%%%%%$$$$##$%%%%%%%%%%%%%%%%%%%%%%%%%%%%%%%%%######$##@++   ",
"       @####%%%%%%%%%%%%%%%%%%%%%%%%%%%%%$###$%%%%%%%%%%%%%%%%%%%%%%%%%%%%%%%%%$%$####$$##@++   ",
"     +@$$$$$%%%%%%%%%%%%%%%%%%%%%%%%%%%%%$###$%%%%%%%%%%%%%%%%%%%%%%%%%%%%%%%%%%%%$####$##@+.   ",
"    +..#######%%%%%%%%%%%%%%%%%%%%%%%%%%%%###%%%%%%%%%%%%%%%%%%%%%%%%%%%%%%%%%%%%%$#####$#@..   ",
"    +..########%%%%%%%%%%%%%%%%%%%%%%%%%%%%%%%%%%%%%%%%%%%%%%%%%%%%%%%%%%%%%%%%%%%%#######@.    ",
"     @.########%%%%%%%%%%%%%%%%%%%%%%%%%%%%%%%%%%%%%%%%%%%%%%%%%%%%%%%%%%%%###%%%%%#######@+    ",
"     @#########%%%%%%%%%%%%%%%%%%%%%%%%%%%%%%%%%%%%%%%%%%%%%%%%%%%%%%%%%%%%###%%%%$######@++    ",
"    ..#########%%%%%%%%%%%%%%%%%%%%%%%%%%%%%%%%%%%%%%%%%%%%%%%%%%%%%%%%%%%%%##%%$$$$$###$@++    ",
"    +.#########%%%%%%%%%%%%%#%%%%%%%%%%%%%%%%%%%%%%%%%%%%%%%%%%%%%%%%%%%%%%%%%%$#####$$###++    ",
"     @########%%%%$%%%%%%%%%%%%%%%%%%%%%%%%%%%%%%%%%%%%%%%%%%%%%%%%%%%%%%%%%%%%######%####..    ",
"     @#######$$$%%%%%%%%%%%%%%%%%%%%%%%%%%%%%%%%%%%%%%%%%%%%%%%%%%%%%%%%%%%%%%%######$####..    ",
"     @######$####%%%%%%%%%###%%%%%%%%%%%%%%%%%%%%%%%%%%%%%%%%%%%%%%%%%%%%%%%%%%######$$##@+..   ",
"      @$$$$$######%%%%%%%%###%%%%%%%%%%%%%%%%%%%%%%%%%%%%%%%%%%%%%%%%%%%%%%%%%%######$###@++.   ",
"     +@.#%%%#######%%%%%%%%%%%%%%%%%%%%%%%%%%%%%%%%%%%%%%%%%%%%%%%%%%%%%%%%%%%%$###$$#####+.    ",
"     +..##$$######%%%%%%%%%%%%%%%%%%%%%%%%%%%%%%%%%%%%%%%%%%%%%%%%%%%%%%%%%%%%%%%%%%%#####+..   ",
"     ..#####$$###%%%%%%%%%%%%%%%%%%%%%%%%%%%%%%%%%%%%%%%%%%%%%%%%%%%%%%%%%%%%%%%%$$$$#####+..   ",
"     +@#####%%$$%%%%%%%%%%%%%%%%%%%%%%%%%%%%%%%%%%%%%%%%%%%%%%%%%%%%%%%%%%%%%%%%$##$$#####++.   ",
"    +..###%%$##%%%%%%%%%%%%%%%%%%%%%%%%%%%%%%%%%%%%%%%%%%%%%%%%%%%%%%%%%%%%%%%%%#########@++    ",
"     @.##$$$###$%%%%%%%%%%%%%%%%%%%%%%%%%%%%%%%%%%%%%%%%%%%%%%%%%%%%%%%%%%%%%%%%#####$###@..    ",
"    @@$$$%$$####$%%%%%%%%%%%%%%%%%%%%%%%%%%%%%%%%%%%%%%%%%%%%%%%%%%%%%%%%%%%%%%%###$$%$$@@++    "};
