/* XPM */
static char * floor_all_open_xpm[] = {
"96 96 24 1",
" 	c #5D2C28",
".	c #391F21",
"+	c #8A4836",
"@	c #69342C",
"#	c #5D5D5D",
"$	c #3D3D3D",
"%	c #562926",
"&	c #5C2B28",
"*	c #72392E",
"=	c #874635",
"-	c #7A3E31",
";	c #63302A",
">	c #452323",
",	c #864635",
"'	c #6F382D",
")	c #6B352C",
"!	c #814233",
"~	c #422223",
"{	c #763C30",
"]	c #442323",
"^	c #6C362D",
"/	c #824333",
"(	c #33984B",
"_	c #134C4C",
"                                                                                         .+++.++",
"                                                                                         .+++.++",
"                                                                                       .++....++",
"                                                                                      .++++.++. ",
"                                                                                       ++++.++.+",
"                                                                                       +++++++.+",
"                                                                                       +++.+++.+",
"                                                                                          .+++++",
"                                                                                          .+++. ",
"                                              ..                 .....                   . ++   ",
"                                         .   .                      ++       +               .  ",
"                                         .+++.                      .+       +                  ",
"                                   @     ++++.                      .+++++                      ",
"                                         ++++.                      .+++++                      ",
"                                        .++++. +                ++++....                        ",
"                                        .+++.  +                ...+.+.+                        ",
"                  +++ #####$$            .++.                   .+++.+.                         ",
"                 .+++.$$######           .++.                    +++.++++                       ",
"                 .+++.$$$######          ++++...               +++++.....                       ",
"               .++.....$$$$$#$$$   ++.  .++++.++                 +. .++  .                      ",
"              .++++.+...$$$$$$..#       .++++.+++.               +.++++++.                      ",
"               ++++.+....$$....##       .++++.++++               ..+++++++                      ",
"               ++++++...$$$$$$.#$      .. +++.++++                 .+++++.                      ",
"               +++.++...$$$$$$.$.     +++......++..                                             ",
"                  .+++..$$$$$$.....   +++. .+++.                                                ",
"                  .+++. ..$$$.$$$##  ..++  .+++                                                 ",
"                 . ++        ..$##$        .+++.                                                ",
"                     .       ..$##.       .                                                     ",
"                              .$$.                                                              ",
"                                                                                                ",
"                                                                                                ",
"                                                                                                ",
"                                                                                                ",
"            .                                                                                   ",
"       .+++.                                                                                    ",
"        +++.  ++..                                                                              ",
"       .+++. .+++                                                                               ",
"    ..++......+++                                                                               ",
"     ++++.+++ ..                                                                                ",
"     ++++.++++.                      .++                            .++                         ",
"     .+++.++++.                     .+++.                          .+++.                        ",
"       ++.++++.  .++                .+++                           .+++                         ",
"       ...++++                       +++                            +++                         ",
"          .++.                         .                              .                         ",
"          .++.                         .            $$$          ###$###              ..        ",
"       +  .+++.                       .         ###$#$$####$$   $$$$$$$$.        .   .          ",
"       + .++++.                               ..$$$$$$$$$$$$.   $$$$$$$..  .    ..+++.          ",
"         .++++                                   .  ......      .....$$$        .++++.          ",
"         .++++                                         #$$#####  $###$###$#.    .++++.          ",
"         .+++.                                         $.$$$$$$  $$$$$$$$$$.     ++++. +        ",
"         .   .           .                               .....   $$$$$$$$$$   .+++++.  +        ",
"       ..               .                       $####$###$$#$$$   .... .....   ++.++.           ",
"                        .                     . $$$$$$$$$$$$$$$###$$$          ...++.           ",
"                        +++                     $$$$$$$$$$$$$$$$$$$$$$.          ++++...        ",
"                        +++.                       ............ .........       .++++.++        ",
"                       .+++.                                                    .++++.+++.      ",
"                        ++.%&                     $$###$$####$$     $###        .++++.++++      ",
"                       *=+. .-;                  .$$$$$$$$$$$$$  $##$$$$##        +++.++++      ",
"                      >.++  .+,'              ......$$$$$$$$$..  $$$$$$$$$       ......++..     ",
"                            .+++                        ....      ..... .$       . .+++.        ",
"                           .                         ##$#$       $#####$           .+++         ",
"                                                   $$$$$$$$     $$$$$$$$           .+++.        ",
"                                                   $$$$$$$$       ........ ..     .             ",
"             )!~                                   .$$$$$..                                     ",
"           {+++.                                     ...    $####$##$####                       ",
"           ++++.                                   $##  $$$$$$$$$$$$$$$$$                       ",
"          .++++. +                                 $$$  $$$$$$$$$$$$$$$$$                       ",
"          .+++.  +                             ... ...  .$$$$$$$$$$$$$$$...                     ",
"           .++.                           .                         ....                        ",
"           .++.                                  $#####$$#$##.   .###$##$                       ",
"           ++++...                       .+     .$$$$$$$$$$$$$$  .$$$$$$$.. .                   ",
"       %  .++++.++                       ++.. ...$$$$$$$$$$$$$$.  .. $$$$.                      ",
"          .++++.+++.                     ++.    .....                                           ",
"          .++++.++++     .               ++.   $###$#####      $###$######$                     ",
"         ]. +++.++++                     +++...$$$$$$$$$$.    .$$$$$$$$$$$$                     ",
"         ^+......++..                    .++++    .......       .........                       ",
"         /+. .+++.                        ....++.                        ....++.                ",
"         ++  .+++                         .+++.                          .+++.                  ",
"             .+++.                        .+++.                          .+++.                  ",
"            .                              +++                            +++                   ",
"                                                                                                ",
"                                                                                                ",
"                                                                                                ",
"                                                                                                ",
"                                                                                                ",
"   .                                                                                           .",
"    ++ .                                                                                    ..++",
"  .+++.                                                                                     . ++",
"  ++++.                                                                               ++   +. ++",
"  ++++.+++                                                                            ++ + +.+++",
"  ++++++++                                                                            ++....+.++",
"  +++.++++                                                                             ++.+++..+",
"  .++.++++.                                                                           +++....++(",
"   ....++.                                                                          .+....+++++_",
"   .+++.                                                                            ..+   +.(((_",
"   .+++.                                                                             .    +.__(_"};
