/* XPM */
static char * floor_side_left_right_walls_xpm[] = {
"96 97 7 1",
" 	c #1E6F50",
".	c #134C4C",
"+	c #391F21",
"@	c #8A4836",
"#	c #5D2C28",
"$	c #3B1443",
"%	c #33984B",
"      ..+@+++@@++################################################################+@@+#@@@$.     ",
"      ..+@+++@@++################################################################+@@+#@@@$.     ",
"      .%$@@+++@@+###############################################################@@@@@+@@@$.%    ",
"       $++@@@@@#################################################################@@@@@@+@@.%%    ",
"      .%@+@@@@@##@@@##########################################################++@@@@@@++$..     ",
"      .%@@+@@@@##@@##########################################################@@@+@@@@+@@$..     ",
"     %%%@@+@@@@+##################################################@@@########@@@@++++@@@@.%     ",
"     %%$@@#+@@@@##################################################@@@#########@@@###+@@@@.%%    ",
"     ..++++@@@@@@#################################################@@###############+@@@@@..%    ",
"     .%%$#+@@@@@@#################################################################++@@@@@.%     ",
"     .%%%@@+@@@@#################################################################@@@+@@@$%%     ",
"      .%%@@@@+++################################################################+@@@@#++$%      ",
"       $%@@@@###################################################################+@@@+@@@$%%     ",
"       $@@@@@+@#@################################################################@@+@@@@..%%    ",
"       $+@@@#@@@####################################################################@@@@...%    ",
"        $+++#@@@#################################################################+++@@@$.       ",
"      %%@@@#++++###############################################################+@@@++@@$.       ",
"      .%@@@+@@@@@##############################################################@@@@@@+$..       ",
"      .%@@+@@@@@@@#############################################################@@@@@@@$.%%      ",
"       .$$#@@@@@@@@############################################################@@@@@@@$.%%      ",
"      %%%$#@@@@@@@@##########################################################+#+@@@@@+$%%       ",
"      .%%$+@@@@@@@+##############################################################+++@@$..       ",
"       .%@++@@@@#+#################################################################@@@@.%       ",
"       $@@@@+++@@@+#############################################################@@+@@@$.%%      ",
"       .%@@@##@@@@@############################################################@@@+@@@@..%      ",
"      .%%@@@#+@@@@@############################################################@@#+@@@@$.       ",
"      %%@@@@+@@++#+++###########################################################+@@@+@@$.       ",
"       $@++@@@@@#################################################################@@@#+++..      ",
"      %%@@#@@@@@##################################################################+++@@@..%     ",
"      .%@@@@@@@@#################################################################@@@+@@@$.%%    ",
"      .$@@@#@@@###@#############################################################@@@@@@@@$.%%    ",
"      %$@@@++@@@+###############################################################@@@@@#@@$..%    ",
"      $$+++#+@@@@+#########################################################@@###+@@@+++$$.      ",
"      ..$@+++@@++###################################################################+@@@+.      ",
"       .$@@+####+@@@@###############################################################@@@@@.%     ",
"      .%$@@@++###@@@@###############################################################@@@@@.%%    ",
"      .%$%@@@@@@##+@###@@######################################################@@###@@@@$..%    ",
"        .%+@@@@@@######@@######################################################@@@##+@@@$...    ",
"       .%%@@@@@@@#####################################################################+@@..     ",
"      .%%%@@@@@@@#####################################################################@@@$..    ",
"        $+++@@@+#####################+@@#############################################+@@@$..%%  ",
"       $@@@@+#######################+@@@+##########################################+++@@@$.%%   ",
"       $@@@@@+@@####################+@@@#########################################++@@@+@@+..    ",
"       $@@@@@@@@@@###################@@@#########################################@@@@@@++@..    ",
"       .%%@@@@@@@@#####################+#########################################@@@@@@@@$..    ",
"        .%@@#@@@@######################+###############++########################@@@@@@+@$%.    ",
"         $+++@@@@@####################+###########+###+##########################+@@@@@+@.%%    ",
"         $@@@@@@@@@###############################+@@@+############################+@@#$@..%    ",
"         .%@@@@@@@@###############################@@@@+#############################+++$$..     ",
"        .%%@@@@@@@@###############################@@@@+############################++@@@$..     ",
"       .%%+@@@@@@@@##############################+@@@@+#@##########################+@@@@$..     ",
"       .%$#@@@@@@@###############################+@@@+##@##########################@@@@@$..     ",
"        $#++@@@@##################################+@@+#############################@@@@@$.%%    ",
"      .%%@@@+++###################################+@@+###########################++@@@@@@..     ",
"       $%@@@+@@@@#################################@@@@+++#######################+@@+@@@@$.%     ",
"       $@@@@+@@@@###########################@@+##+@@@@+@@#######################@@@@@+@$..%%    ",
"       $@@@@+@@@@################################+@@@@+@@@+#####################@@@@@@#$.. %    ",
"       $@@@@+#@@#################################+@@@@+@@@@#####################@@@@@@++..      ",
"       +.%@@#+##################################++#@@@+@@@@#####################+@@@@+@@.%      ",
"       .%%++@@#################################@@@++++++@@++#####################+@@@@@@.%%     ",
"      .%%$#@@@@@###############################@@@+#+@@@+#######################+@@++@@@$.%%    ",
"        $@+@@@@@@#############################++@@##+@@@#####################+##@@@@#@@@@..     ",
"        $@@+@@@@####################################+@@@+######################+@@@@#@@@@.%     ",
"        $@@########################################+###########################+@@@@#+@@$.%%    ",
"      $$+++#+@@@@+##############################################################+@@+##+$...     ",
"      ..$@+++@@++##################################################################+@@@@+.      ",
"      .%$@@+@@@@+##################################################################@@@@@$..%    ",
"      %%$@@#@@@@###################################################################@@@@@$.%%    ",
"       .$#+++@@@################################################################+@@+@@@@$%.     ",
"       %%$@@@#+###########################+#####################################@@@@++@@@$..    ",
"       .%%@@@@#############################@@#+#################################@@@@@#@@@@%.    ",
"        $@@@@@###########################+@@@+##################################@@@@@+@@@@%%    ",
"        $%@@@++###@@#####################@@@@+##################################+@@@#+@@@@.%    ",
"        +%@@@+@@##@@#####################@@@@+@@@###################################++@@@$..    ",
"       .%%@@#@@@#########################@@@@@@@@#################################+@@@@@@$%%    ",
"       .%$++#@@@+@#######################@@@+@@@@#################################@@@@+++$.%%   ",
"         $@@#############################+@@+@@@@+################################@@@@@+@@...   ",
"         $@@@#############################++++@@+#################################@@@@@+@@$..   ",
"         $@@@#############################+@@@+#################################+#+@@@++@@$..   ",
"       .$++++#############################+@@@+####################################+@@@+@@$.%   ",
"      .%%@@@@@@############################@@@#####################################+@@@@+@$%%   ",
"      .%%@@@@@@@####################################################################@@@@@@$%    ",
"       $%@@@@@@@############################################################@@@#####@@@@@@$.    ",
"       $@@@@@@@@############################################################@@@####+@@@@@$..    ",
"      %%@@@@@@@@#############################################################@@##++++@@@+$..    ",
"      .%@@@@@@@@#############@##################################################+@@@@++@@@..    ",
"       $@@@@@@@####+############################################################@@@@@#@@@@%%    ",
"       $@@@@@@+++###############################################################@@@@@+@@@@%%    ",
"       $@@@@@+@@@@#########@@@##################################################@@@@@++@@$.%%   ",
"        $++++@@@@@@########@@@##################################################@@@@@+@@@$..%   ",
"       .$%@##@@@@@@@############################################################+@@@+@@@@@.%    ",
"       .%%@@+@@@@@@##################################################################@@@@@.%%   ",
"       %%@@@@++@@@################################################################+++@@@@@.%%   ",
"       .$@@@@##++################################################################+@@+@@@@@..%   ",
"      .%%@@@#+@@#################################################################@@@@@@@@$..    ",
"       $%@@++@@@+################################################################@@@@+@@@$%%    ",
"      $$+++#+@@@@+###############################################################@@@+#++$$..    "};
