/* XPM */
static char * floor_side_top_bot_walls_xpm[] = {
"96 96 7 1",
" 	c #1E6F50",
".	c #134C4C",
"+	c #33984B",
"@	c #3B1443",
"#	c #391F21",
"$	c #8A4836",
"%	c #5D2C28",
"                                                                                                ",
"                                                                                                ",
"                                                                                                ",
"                                                                                                ",
"                                                                                                ",
"                                                                                      ...++     ",
"@ .        .+  ..            +..@   .      .             .  .. .@+..+ +.   .+ ..+    .++.++.. ..",
"@@+.+.. @@@++@@++.   ..   .+.++.@   +.#@@@@+ ..     .@@@ +. ++..@@@++@++.@.++.+++ @@@+++#@+++@+.",
"#++@++@@$$$$$$+++@   ++#@@++@@@@#@@@++.$$$++@++.   .+$$$@++.@@@@#$$$$$$++$+++@$$$@#$+++@#$$$$#@#",
"#$$$$++#$$$$$$$$$#@@@@+++$+@%$$$#$$$@++$$$$$%@++.@@++$$$#++++$$$#$$$$#$$$$$@@@$$$#$$$$$%#$$$##$$",
"#$$$$$$#$$$$$$$$$#$$$#$$$$$$#$$##$$#%#$$$$$$#%#++$#$$$$$#$$#$$$##$$$%#$$$$##%%#$$#$$$$$##%##$$$#",
"%#$$$$%#$$$$$$$$$#$$$#$$$$$$#%##%%#$$#$$$$$$#$$$$$#$$$$$#$$$$$##%#%$$$$$$$#$$$$#%#$$$$#$$#$$$$##",
"##%$$#%#$$$$$$$$$#$$%%%$$$$$#$$##%$$$$%#####$$$$$$#%$$$#$$$$$#%###$$$$#%%#$$$$$$#%%$$$$$$$$$$$##",
"$$#%#$$$#$$$$$$$$%%%%$$##$$%$$$$$%$$$$#%$$$#$$$$$$$$$$#%$$$$$#%$$$$$$$$#%#$$$$$$#$$#%#$$$$$$$$#$",
"$$$%#$$$$#$$$$$$$%%%%$$$#%%#$$$$$%$$$%%$$$$#$$$$$$$$$$$%$$$$$%%$$$$$$$$$$#$$$$$$#$$$%#$$$$$$$$$$",
"$$$#$$$$$#%$$$$$%%%%%$$$%%%%$$$#$%$$$%%$$$$%$$$$$$$$$$$%#$$$$%%#$$%$$$#$$$$$$$$$#$$%%#$$$$#%%%$#",
"$#%#$$$$$#%%%%%%%%%%%#%%%%%%%%##$%%$%%%%$$$%%$$$$$$$$$%%%$$$%%##$#%%%%#$$$%$$$$$%%%$%%%$$%%%%%##",
"#%%%$$$$$%%%%%%%%%%%%$%%%%%%%%%%#%%%%%%%%%%%%$$$$$$%$$%%%%%%%$$%#%%%%%%$$$#$$$$%%%%%%%%%%%%$$%%%",
"%%%%%$$$%%%%%%%%%%%%%%%$$%%%%%%%%%%%%%%%%%%%%%$$$$%%%%%%%%%%#$$%%%$%%%#$$#%#$$%%%%%%%%%%%%%$$%%%",
"%%%%%%$%%%#%%%%%%%%%%%%$$%%%%%%%%%%%%%%%%%%%%%%%%%%%%%%%%%%%$$$%%%%%%%#%%%%%%%%%%%%%%%%%%%%%$%%%",
"%%%%%%%%%%%%%%%%%%%%%%%%%%%%%%%%%%%%%%%%%%%%%%%%%%%%%%%%%%%%%$$%%%%%%%#%%%%%%%%%%%%%%%%%%%%%%%%%",
"%%%%%%%%%%%%%%%%%%%%%%%%%%%%%%%%%%%%%%%%%%%%%%%%%%%%%%%%%%%%%%%%%%%%%%%%%%%%%%%%%%%%%%%%%%%%%%%%",
"%%%%%%%%%%%%%%%%%%%%%%%%%%%%%%%%%%%%%%%%%%%%%%%%%%%%%%%%%%%%%%%%%%%%%%%%%%%%%%%%%%%%%%%%%%%%%%%%",
"%%%%%%%%%%%%%%%%%%%%%%%%%%%%%%%%%%%%%%%%%%%%%%%%%%%%%%%%%%%$$%%%%%%%%%%%%%%%%%%%%%%%%%%%%%%%%%%%",
"%%%%%%%%%%%%%%%%%%%%%%%%%%%%%%%%%%%%%%%%%%%%%%%%%%%%%%%%%%%$$%%%%%%%%%%%%%%%%%%%%%%%%%%%%%%%%%%%",
"%%%%%%%%%%%%%%%%%%%%%%%%%%%%%%%%%%%%%%%%%%%%%%%%%%%%%%%%%%%%%%%%%%%%%%%%%%%%%%%%%%%%%%%%%%%%%%%%",
"%%%%%%%%%%%%%%%%%%%%%%%%%%%%%%%%%%%%%%%%%%%%%%%%%%%%%%%%%%%%%%%%%%%%%%%%%%%%%%%%%%%%%%%%%%%%%%%%",
"%%%%%%%$$%%%%%%%%%%%%%%%%%%%%%%%%%%%%%%%%%%%%%%%%%%%%%%%%%%%%%%%%%%%%%%%%%%%%%%%%%%%%%%%%%%%%%%%",
"%%%%%%%$$%%%%%%%%%%%%%%%%%%%%%%%%%%%%%%%%%%%%%%%%%%%%%%%%%%%%%%%%%%%%%%%%%%%%%%%%%%%%%%%%%%%%%%%",
"%%%%%%%$$%%$%%%%%%%%%%%%%%%%%%%%%%%%%%%%%%%%%%%%%%%%%%%%%%%%%%%%%%%%%%%%%%%%%%%%%%%%%%%%%%%%%%%%",
"%%%%%%%%%%%%%%%%%%%%%%%%%%%%%%%%%%%%%%%%%%%%%%%%%%%%%%%%%%%%%%%%%%%%%%%%%%%%%%%%%%%%%%%%%%%%%%%%",
"%%%%%%%%%%%%%%%%%%%%%%%%%%%%%%%%%%%%%%%%%%%%%%%%%%%%%%%%%%%%%%%%%%%%%%%%%%%%%%%%%%%%%%%%%%%%%%%%",
"%%%%%%%%%%%%%%%%%%%%%%%%%%%%%%%%%%%%%%%%%%%%%%%%%%%%%%%%%%%%%%%%%%%%%%%%%%%%%%%%%%%%%%%%%%%%%%%%",
"%%%%%%%%%%%%%%%%%%%%%%%%%%%%%%%%%%%%%%%%%%%%%%%%%%%%%%%%%%%%%%%%%%%%%%%%%%%%%%%%%%%%%%%%%%%%%%%%",
"%%%%%%%%%%%%%%%%%%%%%%%%%%%%%%%%%%%%%%%%%%%%%%%%%%%%%%%%%%%%%%%%%%%%%%%%%%%%%%%%%%%%%%%%%%%%%%%%",
"%%%%%%%%%%%%%%%%%%%%%%%%%%%%%%%%%%%%%%%%%%%%%%%%%%%%%%%%%%%%%%%%%%%%%%%%%%%%%%%%%%%%%%%%%%%%%%%%",
"%%%%%%%%%%%%%%%%%%%%%%%%%%%%%%%%%%%%%%%%%%%%%%%%%%%%%%##%%%%%%%%%%%%%%%%%%%%%%%%%%%%%%%%%%%%%%%%",
"%%%%%%%%%%%%%%%%%%%%%%%%%%%%%%%%%%%%%%%%%%%%%%%%%%%%%$$$#%%%%%%%%%%%%%%%%%%%%%%%%%%%%%%%%%%%%%%%",
"%%%%%%%%%%%%%%%%%%%%%%%%%%%%%%%%%%%%%%%%%%%%%%%%%%#%%$$$$%%%%%%%%%%%%%%%%%%%%%%%%%%%%%%%%%%%%%%%",
"%%%%%%%%%%%%%%%%%%%%%%%%%%%%%%%%%%%%%%%%%%%%%%%%%%%##$$$$%%%%%%%%%%%%%%%%%%%%%%%%%%%%%%%%%%%%%%%",
"%%%%%%%%%%%%%%%%%%%%%%%%%%%%%%%%%%%%%%%%%%%%%%%%%%%%%%%#%%%%%%%%%%%%%%%%%%%%%%%%%%%%%%%%%%%%%%%%",
"%%%%%%%%%%%%%%%%%%%%#$$$$#%%%%%%%%%%%%%%%%%%%%%%%%%%%%%%%%%%%%%%%%%%%%%%%%%%%%%%%%%%%%%%%%%%%%%%",
"%%%%%%%%%%%%%%%%%###$$$$$$%#%%%%%%%%%%%%%%%%%%%%%%%%%%%%%%%%%%%%%%%%%%%%%%%%%%%%%%%%%%%%%%%%%%%%",
"%%%%%%%%%%%%%%%%$$$#$$$$$$$%%%%%%%%%%%%%%%%%%%%%%%%%%%%%%%%%%%%%%%%%%%%%%%%%%%%%%%%%%%%%%%%%%%%%",
"%%%%%%%%%%%%%%%%$$$###$$$$$%%%%%%%%%%%%%%$%%%%%%%%%%%%%%%%%%%%%%%%%%%%%%%%%%%%%%%%%%%%%%%%%%%%%%",
"%%%%%%%%%%%%%%%%$$$#$$$###%%%%%%%%%%%%%%%$%%%%%%%%%%%%%%%%%%%%%%%%%%%%%%%%%%%%%%%%%%%%%%%%%%%%%%",
"%%%%%%%%%%%%%%%%%##$$$$$%%#%%%%%%%%#%%%%%#%%%%%%%%%%%%%%%%%%%%%%%%%%%%%%%%%%%%%%%%%%%%%%%%%%%%%%",
"%%%%%%%%%%%%%%%%%%%$$$$$%%%%%%%%%%%#$$%%%%%%%%%%%%%%%%%%%%%%%%%%%%%%%%%%%%%%%%%%%%%%%%%%%%%%%%%%",
"%%%%%%%%%%%%%%%%%%%#$$$$%%%%%%%%%%%$$$#%%%%%%%%%%%%%%%%%%%%%%%%%%%%%%%%%%%%%%%%%%%%%%%%%%%%%%%%%",
"%%%%%%%%%%%%%%%%%%%%#%%%%%%%%%%%%%%$$$####%%%##%%%%%%%%%%%%%%%%%%%%%%%%%%%%%%%%%%%%%%%%%%%%%%%%%",
"%%%%%%%%%%%%%%%%%%%%%%%%%%%%%%%%%%%%##%$$$$##$$$$##%%%%%%%%%%%%%%%%%%%%%%%%%%%%%%%%%%%%%%%%%%%%%",
"%%%%%%%%%%%%%%%%%%%%%%%%%%%%%%%%%#%%%#$$$$$$$$$$$$%%%%%%%%%%%%%%%%%%%%%%%%%%%%%%%%%%%%%%%%%%%%%%",
"%%%%%%%%%%%%%%%%%%%%%%%%%%%%%%%%%%####$$$$$$$$$$$$%%%%%%%%%%%%%%%%%%%%%%%%%%%%%%%%%%%%%%%%%%%%%%",
"%%%%%%%%%%%%%%%%%%%%%%%%%%%%%%%%%%$$$#$$$$$###$$$$%%%%%%%%%%%%%%%%%%%%%%%%%%%%%%%%%%%%%%%%%%%%%%",
"%%%%%%%%%%%%%%%%%%%%%%%%%%%%%%%%%%$$$######%%%#####%%%%%%%%%%%%%%%%%%%%%%%%%%%%%%%%%%%%%%%%%%%%%",
"%%%%%%%%%%%%%%%%%%%%%%%%%%%%%%%%%%$$$#$$$$#%%%%%%%%#%%%%%%%%%%%%%%%%%%%%%%%%%%%%%%%%%%%%%%%%%%%%",
"%%%%%%%%%%%%%%%%%%%%%%%%%%%%%%%%%%#%#$$$$$#%%$$%%%%#%%%%%%%%%%%%%%%%%%%%%%%%%%%%%%%%%%%%%%%%%%%%",
"%%%%%%%%%%%%%%%%%%%%%%%%%%%%%%%%%%%%%$$$$%%%%%%%%%%%%%%%%%%%%%%%%%%%%%%%%%%%%%%%%%%%%%%%%%%%%%%%",
"%%%%%%%%%%%%%%%%%%%%%%%%%%%%%%%%%%%%%#$$#%%%%%%%%%%%%%%%%%%%%%%%%%%%%%%%%%%%%%%%%%%%%%%%%%%%%%%%",
"%%%%%%%%%%%%%%%%%%%%%%%%%%%%%%%%%%%%%#%%%%%%%%%%%%%%%%%%%%%%%%%%%%%%%%%%%%%%%%%%%%%%%%%%%%%%%%%%",
"%%%%%%%%%%%%%%%%%%%%%%%%%%%%%%%%%%%%%%%%%%%%%%%%%%%%%%%%%%%%%%%%%%%%%%%%%%%%%%%%%%%%%%%%%%%%%%%%",
"%%%%%%%%%%%%%%%%%%%%%%%%%%%%%%%%%%%%%%%%%%%%%%%%%%%%%%%%%%%%%%%%%%%%%%%%%%%%%%%%%%%%%%%%%%%%%%%%",
"%%%%%%%%%%%%%%%%%%%%%%%%%%%%%%%%%%%%%%%%%%%%%%%%%%%%%%%%%%%%%%%%%%%%%%%%%%%%%%%%%%%%%%%%%%%%%%%%",
"%%%%%%%%%%%%%%%%%%%%%%%%%%%%%%%%%%%%%%%%%%%%%%%%%%%%%%%%%%%%%%%%%%%%%%%%%%%%%%%%%%%%%%%%%%%%%%%%",
"%%%%%%%%%%%%%%%%%%%%%%%%%%%%%%%%%%%%%%%%%%%%%%%%%%%%%%%%%%%%%%%%%%%%%%%%%%%%%%%%%%%%%%%%%%%%%%%%",
"%%%%%%%%%%%%%%%%%%%%%%%%%%%%%%%%%%%%%%%%%%%%%%%%%%%%%%%%%%%%%%%%%%%%%%%%%%%%%%%%%%%%%%%%%%%%%%%%",
"%%%%%%%%%%%%%%%%%%%%%%%%%%%%%%%%%%%%%%%%%%%%%%%%%%%%%%%%%%%%%%%%%%%%%%%%%%%%%%%%%%%%%%%%$$$%%%%%",
"%%%%%%%%%%%%%%%%%%%%%%%%%%%%%%%%%%%%%%%%%%%%%%%%%%%%%%%%%%%%%%%%%%%%%%%%%%%%%%%%%%%%%%%%$$$%%%%%",
"%%%%%%%%%%%%%%%%%%%%%%%%%%%%%%%%%%%%%%%%%%%%%%%%%%%%%%%%%%%%%%%%%%%%%%%%%%%%%%%%%%%%%%%%%$$%%%%%",
"%%%%%%%%%%%%%%%%%%%%%%%%%%%%%%%%%%%%%%%%%%%%%%%%%%%%%%%%%%%%%%%%%%%%%%%%%%%%%%%%%%%%%%%%%%%%%%%%",
"%%%%%%%%%%%%%%%%%%%%%%%%%%%%%%%%%%%%%%%%%%%%%%%%%%%%%%%%%%%%%%%%%%%%%%%%%%%%%%%%%%%%%%%%%%%%%%%%",
"%%%%%%%%%%%%%%%%%%%%%%%%%%%%%%%%%%%%%%%%%%%%%%%%%%%%%%%%%%%%%%%%%%%%%%%%%%%%%%%%%%%%%%%%%%%%%%%%",
"%%%%%%%%%%%%%%%%%%%%%%%%%%%%%%%%%%%%%%%%%%%%%%%%%%%%%%%%%%%%%%%%%%%%%%%%%%%%%%%%%%%%%%%%%%%%%%%%",
"%%%%%%%%%%%%%%%%%%%%%%%%%%%%%%%%%%%%%%%%%%%%%%%%%%%%%%%%%%%%%%%%%%%%%%%%%%%%%%%%%%%%%%%%%%%%%%%%",
"%%%%%%%%%%%%%%%%%%%%%%%%%%%%%%%%%%%%%%%%%%%%%%%%%%%%%%%%%%%%%%%%%%%%%%%%%%%%%%%%%%%%%%%%%%%%%%%%",
"%%%%%%%%%%%%%%%%%%%%%%%%%%%%%%%%%%%%%%%%%%%%%%%%%%%%%%%%%%%%%%%%$%%%%%%%%%%%%%%%%%%%%%%%%%%%%%%%",
"%%%%%%%%%%%%%$$%%%%%%%%%%%%%%%%%%%%%%%%%%%%%%%%%%%%%%%%%%%%%%%%%$%%%%%%%%%%%%%%%%%%%%%%%%%%%%%%%",
"%%%%%%%%%%%%$$$%%%%%%%%%%%%%%%%%%%%#%%%%%%%%%%%%%%%%%%%%%%%%%%%%%%%%%%%%%%%%#%%%%%%%%%%%%%$$%%%%",
"%%%%%%%%%%%%$$$%%%%%%%%%%%%%%%%%%%%%%%%%%%%%%%%%%%%%%%%%%%%%%%%%%%%%%%%%%%%%%%%%%%%%%%%%%$$$#%%%",
"%%%%%%%%%%%%%%%%%%%%%%%%%%%%%%%%%##%%%%%%%%%%%%%%%%%%%%%%%%$$%%%%%%%%%%$$%%%#$$$#%%%%%%%%$$$#%%%",
"%%%%%%#$$$$#%%%%%%#%%%%%#$$$#%%%#$$$#%#$$$#%%%%%%%%%%%%%%%%$$%%%#$$%%%#$$$%%$$$$$%%%##%%%$$#$$$%",
"$$$#%%$$$$$$#%%%%%%%%%%%$$$$$%%%$$$$$#$$$$$#%%%%%%#$$$#%%%%$%%%%$$$$%$$%$$%#$$$$$#%$$$$%%%#$$$$#",
"$$$$#%$$$$$$#%%%%%#$$$#%$$$$$%%%$$$$$$$$$$$#%%%%%%$$$$#%%%%%%%%%$$$$#$$###%#$$$$$#%$$$$#%%#$$$$$",
"$$$$#%$$$$$$##%%##$$$$$%$$$$#$$##$$$#$$$$$#$$$##%#$$$$$#%%%%%%%%$$$$#$$$$$$#$$$$##%#$$$##%#$$$$$",
"#$$##%#$$$$$#$$$$$$$$$$#%$$#$$$$%%%%#$$$$$$$$$$##$$$$$$#%%%#$$$##$$##%#$$$$$$$$$#$$$#$#$$##$$$$#",
"%#$$$$$###%#$$$$$$$$$$$###%#$$$$%#$$$$#$$#$$$$$$#$$$$$$##%%$$$$$#%$$$#$$$$$$#$$#$$$$$%$$$$$#$$#%",
"#$$$$$$$#$$#$$$$$$#$$#$$$$$$$$$$#$$$$$$#%$$$$$$$#%$$$$#$$$#$$$$$#$$$$#$$$@$@@@@@$$$$$#$$$$$$##$$",
"#$$$$$$$$$$$$$$$$#####$$$$$$$$$$@$$$$$$#@@$$$$$$@@##$#$$$$$$$$$$@$$$$#@@....+...@@$$$#$$$$$$#$$$",
"@$$$$$$$$$$$#$$$#$$$$#$$$$$$@@@#.@$$@.....@$@@@@@$$$$#$$$$$@@$$#@@@@.....++.+++.....@@@$$$$@@$$$",
"@@@$$$$@@$$$@@$$$$$$$@@@$$$@+........++............@@$#@@@............  ++   ++   ..+++.......@@",
".+.......++...@@@@@@..+..++..+. .++.++   ++.+.....++.........++  .+++             .++ ++.++..+..",
".+..+++.+++....++....++.++.. ++  +  +   ++  +    ++....+.. .++   +++              ++    ++   ++ ",
"   +++ ++       ++...+                                 ++                                       ",
"                                                        +                                       ",
"                                                                                                ",
"                                                                                                "};
