/* XPM */
static char * enemy_down_xpm[] = {
"27 28 11 1",
" 	c #5D2C28",
".	c #140E0E",
"+	c #7644C8",
"@	c #BA7BDF",
"#	c #F898C0",
"$	c #262661",
"%	c #C08D27",
"&	c #411B1B",
"*	c #C0B733",
"=	c #792020",
"-	c #4E3492",
"        ...........        ",
"      ...++@@@@@+++..      ",
"      .++@@@@@@@@@@+.      ",
"    ..+@@@@@@@@@@@@@+.     ",
"    ..+##@@@@@@@@@@#+.     ",
"    ..+++#$@@@@@$##++.     ",
"    ..++++$$$$$$$++++.     ",
"    ..++++$$$$$$$++++.     ",
"    ..++++$%&&%%$++++.     ",
"    ..++++$*==**$++++.     ",
"    ..++++$*==**$++++.     ",
"    ..+++++$$$$$+++++.     ",
"   .--++++++@@+++++++-..   ",
"   .--++++-+++++-++++-..   ",
"   .--++++.+..++.++++-..   ",
"  .---++++.+.-++.++++---.  ",
"  .---++++.+.-++.++++---.  ",
" .----++++.+@@++.++++----. ",
".-+---++++-.....-++++---+-.",
".-+---++++-.....-++++---+-.",
".++----+++++++++++++----++.",
".+@+++---++++++++++--+++@+.",
".+@@@@@@@@@@@@@@@@@@@@@@@+.",
".+#@@@@@@@@@@@@@@@@@@@@@#+.",
".+#@@@@@@@@@@@@@@@@@@@@@#+.",
".-+#####################+-.",
" .-+++++++++++++++++++++-. ",
"  .......................  "};
