/* XPM */
static char * enemy_up_1_xpm[] = {
"22 28 9 1",
" 	c #5D2C28",
".	c #140E0E",
"+	c #7644C8",
"@	c #BA7BDF",
"#	c #4E3492",
"$	c #F898C0",
"%	c #262661",
"&	c #C08D27",
"*	c #C0B733",
"       ........       ",
"      .+@@@@@@+.      ",
"     .#++++++++#.     ",
"     .#........#.     ",
"     ..++@@@@++..     ",
"     .+@@@@@@@@+.     ",
"    .+@@@@@@@@@@+.    ",
"    .+$@@@@@@@@$+.    ",
"    .++$%@@@@%$++.    ",
"    .+++%%%%%%+++.    ",
"   ..+++%&**&%+++..   ",
"   .#+++%&**&%+++#.   ",
"   .#++++%%%%++++#.   ",
"   .#++++++++++++#.   ",
"   .#++++++++++++#.   ",
"   .#++++++++++++#.   ",
"   .#++++++++++++#.   ",
"   .#++++++++++++#.   ",
"  .##++++++++++++##.  ",
" .###++++++++++++###. ",
".#+##++++++++++++##+#.",
".++###++++++++++###++.",
".+@++###++++++###++@+.",
".+@@@@@@@@@@@@@@@@@@+.",
".+$@@@@@@@@@@@@@@@@$+.",
".#+$$$$$$$$$$$$$$$$+#.",
" .#++++++++++++++++#. ",
"  ..................  "};
