/* XPM */
static char * enemy_left_3_xpm[] = {
"26 26 11 1",
" 	c #5D2C28",
".	c #140E0E",
"+	c #7644C8",
"@	c #BA7BDF",
"#	c #F898C0",
"$	c #262661",
"%	c #411B1B",
"&	c #C0B733",
"*	c #C08D27",
"=	c #4E3492",
"-	c #792020",
"                          ",
"          ........        ",
"         .++@@@@++.       ",
"        .+@@@@@@@@+.      ",
"       .+@@@@@@@@@@+.     ",
"       .+#@@@@@@@@#+.     ",
"       .++$@@@@@@#++.     ",
"       .++$$$$$+++++.     ",
"       .++$%&*$+++++.     ",
" ......=++$-&&$+++++=.    ",
".+@@@@.=+++$$$++++++=.    ",
".+...+=..=++++++++++=.    ",
".+==.+=@@@++++++++++=.    ",
".+==.+++++++++++++++=.    ",
".+==.+++++++++++++++=.    ",
".+==.+++++=+++++++++=.    ",
".+==.++====+++++++++=...  ",
".+...+=.==++++++++++====. ",
".+@@@+.==++++++++++===++=.",
" .....==+++++++++++===+++.",
"    .+@==+++++++++===++@+.",
"    .+@@@@@@@@@@@@@@@@@@+.",
"    .+##@@@@@@@@@@@@@@@#+.",
"    .=++###############+=.",
"     .=++++++++++++++++=. ",
"      ..................  "};
