/* XPM */
static char * Unarmed_Idle_full_xpm[] = {
"15 25 11 1",
" 	c #6FC0A0",
".	c #transparent",
"+	c #BE865F",
"@	c #E1B26E",
"#	c #F6CA74",
"$	c #A46F59",
"%	c #110B00",
"&	c #3F6AD4",
"*	c #374A8F",
"=	c #D2DDE8",
"-	c #795048",
"     .....     ",
"    .+@@@+.    ",
"   .+@@#@@+.   ",
"  .+@@###@@+.  ",
"  .+@@###@@+.  ",
" ..++@@#@@++.. ",
" ..$++@@@++$.. ",
" ..$%%+@+%%$.. ",
"  .%&*%@%*&%.  ",
"  .$=&@#@&=$.  ",
"   .+@@#@@+.   ",
"    .+@@@+.    ",
"   .$-----+.   ",
"  .+$$+@+$$+.  ",
" .+$-+@#@+-$+. ",
" .$--+@#@+--$. ",
"  .$.+@@@+.$.  ",
"   ..$+@+$..   ",
"    .$$+$$.    ",
"   .+$$.$$+.   ",
"  .@@+. .+@@.  ",
"   ...   ...   ",
"               ",
"               ",
"               "};
