/* XPM */
static char * run_right_3_xpm[] = {
"27 47 26 1",
" 	c #5D2C28",
".	c #000000",
"+	c #100000",
"@	c #081818",
"#	c #293139",
"$	c #7B636B",
"%	c #9C7B63",
"&	c #C6C6EF",
"*	c #7B425A",
"=	c #B55A94",
"-	c #FFE77B",
";	c #FFFFD6",
">	c #F7B584",
",	c #CE8C4A",
"'	c #FFC694",
")	c #423152",
"!	c #FFD6A5",
"~	c #FFEFB5",
"{	c #F7A56B",
"]	c #B55242",
"^	c #D66352",
"/	c #FFEFBD",
"(	c #4A525A",
"_	c #FFFFEF",
":	c #A5949C",
"<	c #947B84",
"        .++++++            ",
"       .@@@@@@@+++.        ",
"      +#@$$##@@@@@@@@      ",
"     .$@#$$$##@@@@@@#      ",
"     .%@#############.     ",
"     .+&*=*#########$.     ",
"  ....++---*%%#*=**&&+     ",
" .@@@.+*;--=##*---*%%+++.  ",
".@@@@>+*---,**=--;-*#+@@@. ",
".@@@@%>=''==@@,-;;'*#>@@@@.",
".@@@@@>='==@''@='''=)%@##@.",
".+#@@@@='==*''*==''=;@@@#@.",
" .$@@@#*''=@>>@==''=,@@@#+.",
"  .%$###,,,,@@@='''*#@@@$. ",
"  %.+%$$,,,@##,,,,,@#@$%.  ",
"  %%'''.@@@@@@@@*@&&%.-%%  ",
"   %''''''---'@@@@@+.,-%   ",
"   %''-''%'-->>%%@!!!%-%   ",
"    ,--',~'-->@@@{!;!]'%   ",
"    %---{~'--@@@@@;;;],    ",
"   %%'--,!'--@'^@!;;;],    ",
"     ,--',,-,>-**;;;;],    ",
"    ,%--',,-%>>!;;;;;'%    ",
"     ',,%%%-%]>!;;;!]%%    ",
"          %%@)]]^^]#@      ",
"        @@@@@@@@//@#@      ",
"        (@@@@@@{/{@@#      ",
"        (@@@@##__('#@      ",
"        @@@@(@#@#_##@$     ",
"        @@@@_@#__('@@      ",
"        $@_$(@(@@_#@@@     ",
"        $_{/(((((@@@(@     ",
"        @(//((((({^>(@@    ",
"        @]^(__((];^^^@@    ",
"      @@@@((((](/^@@@@@    ",
"    @ @@@@@(((@]]]@@((@    ",
"   @$$$@@@@@@(@@@@((((@    ",
"  :_@:__@@@@@@@@@#((@@@    ",
"  $$@@@@__@@@@@@@##(@(@    ",
"  $:_@@@@@$__::@@@@@@(@    ",
"    $_:@@@@@@@@@@#((#@     ",
"    $:__$:___@++@@@@@      ",
"     $$ $$$:::++           ",
"         +++<_++++         ",
"          ++++++#+         ",
"          +++%_%#+         ",
"            +++++          "};
