/* XPM */
static char * run_left_1_xpm[] = {
"27 47 26 1",
" 	c #5D2C28",
".	c #100000",
"+	c #000000",
"@	c #081818",
"#	c #293139",
"$	c #7B636B",
"%	c #9C7B63",
"&	c #7B425A",
"*	c #B55A94",
"=	c #C6C6EF",
"-	c #FFE77B",
";	c #FFFFD6",
">	c #F7B584",
",	c #FFC694",
"'	c #CE8C4A",
")	c #FFD6A5",
"!	c #B55242",
"~	c #F7A56B",
"{	c #FFEFB5",
"]	c #D66352",
"^	c #423152",
"/	c #FFEFBD",
"(	c #4A525A",
"_	c #FFFFEF",
":	c #A5949C",
"<	c #947B84",
"            ......+        ",
"        +...@@@@@@@.+      ",
"      +.@@@@@@####@@@+     ",
"     +@@@@@@@@##$$@@#.     ",
"     .#@@@@@@##$$$#@@$+    ",
"    +$#############@@%+    ",
"    +%$#########&*&&=.+    ",
"    .$==&&*&#%%&---&..++++ ",
"  ...$%%&---&##*--;-&.+@@@ ",
"  ...$%%&---&##*--;-&.+@@@ ",
"+@@@>$#&,;;-'@@**,,,*>%@@@+",
"+@@@@>;*,,**&,,&**,,*@@@@#+",
"+.@@@@'*,,**@>>@*,,,&#@@@$ ",
" +@@@##&,,,*@@@'''''###$%+ ",
"  %$@@#@'''''##@'''#$$%.+% ",
"  +.%$$#@'''@$$@@&@%%.+,'% ",
"  %-+.%==@&@@@@@@@@.+,,,%% ",
"  %-'-+.@@@@@,---,,,,,,,%  ",
"  %-%-)))@%%>>--,%,,,-,,%  ",
"  %,!%);)~@@@>--,{'-,--'   ",
"   '!;;;;@@@@@--,{~----%   ",
"   '!);;;)@],@--,)'---,%%  ",
"   '!);;;;&&->'-'',---'    ",
"   %,!;;;;;)>>%-'',,--%'   ",
"   %%&!);;;)>!%-%%%''',    ",
"      @@!]]!!^@%%          ",
"      @#@//@@@@@@@@        ",
"     @#@@~/~@@@@@@(@       ",
"     @@##_#@##@@@@_@       ",
"     #@#_(__##@@@@(@       ",
"    $_@##_#@#@(@@@@@       ",
"     $@@_(__#@_@@@@@       ",
"    ((@@#_@@@@($_@$        ",
"   ((>]@@@(((((/~_$        ",
"   (]]];!((_(////(@        ",
"  @@@@@]/(!(_(]]]!@        ",
"  (((((@@@@((@@@@@@@@$     ",
"  (@@(##@@@@@$:__$@@@@@$@  ",
"  (@@(##@@@@@$:__$@@@@@$@  ",
"  (@@@@@@@$:___$@@@@@__:$  ",
"  @#@((#@@@@@@@@@@__:$$$.  ",
"  @@#((#@@:_::___$$$.....  ",
"   @@@@@@@@$$$$$$$ ..<...  ",
"    ...._<....     .._.%.  ",
"    .#........     ...._.  ",
"    .#%_%.....      ...%.  ",
"     ...... ..      ..++.  "};
