/* XPM */
static char * run_down_3_xpm[] = {
"27 47 26 1",
" 	c #5D2C28",
".	c #000000",
"+	c #100000",
"@	c #081818",
"#	c #293139",
"$	c #FFE77B",
"%	c #7B425A",
"&	c #7B636B",
"*	c #FFC694",
"=	c #9C7B63",
"-	c #B55A94",
";	c #C6C6EF",
">	c #CE8C4A",
",	c #FFFFD6",
"'	c #423152",
")	c #F7B584",
"!	c #F7A56B",
"~	c #FFD6A5",
"{	c #D66352",
"]	c #B55242",
"^	c #4A525A",
"/	c #C6BDC6",
"(	c #FFFFEF",
"_	c #FFEFBD",
":	c #A5949C",
"<	c #F7A594",
"         ..+++++..         ",
"       .+@@#####@@+.       ",
"      .@@@@@@@#####@. @@   ",
"      +#@@@@@@######+@$$%  ",
"     .&@@@@@@#####@@&%$$*% ",
"     .=#@#######%--%=-$$*- ",
"   .++&;===#####-$$>>>$$$>%",
" .+@@+&=======;;%$,$>%@-$*-",
".+@@@+&'''''@##@@>$$-)*@**-",
".@@@@)&'''######@-$$-%*%**-",
".@##@=)'''#######%$$-@)@>>%",
".@#@@@),==,,,,,,,%>$$-%@>@.",
".+#@@@@=,=,,=,,,,=->>>%%>@.",
" .&=&@@###########%>>@.@@. ",
" =.+==&&###########@@@+..  ",
" =**..+==;;;===&&&==++.$=  ",
" =$**$$..@@@@@@@@@..>**$=  ",
" =$**$$>=)=>$$>==$>$>**$=  ",
" =>**$$>=))=$$=!=$=$$**>=  ",
"  =**$$)!!)=>$))!=)$$**=   ",
"  =**$>@@@),=$~)@@@$$**=   ",
"  =**$*@@@@,,,,@@@@>$**=   ",
"  ==*$=*{@~,,,,~@{*=$*==   ",
"   ==$=$%%,,,,,,%%$=$==    ",
"    =$=]~,,,,,,,,~]=$=     ",
"     ===]{~,,,,~{]===      ",
"     ##@@#]{{{{]##)=^      ",
"    @@@@^##/((#@#^@@@@     ",
"    @@@@(#((^^((#(@@@@     ",
"    &@((&@@@((/@@&((@&     ",
"    &(!&@^#@@@@@^@&!(&#    ",
"    ^]__^^^^@@@^^^__]^##   ",
"    :]__^(^^@^^^^^_{]&(@&  ",
"   (&&{^^(^<@@<^((^^@&(@@( ",
"  &&@&^^^^<_{{_<^^^@&(@@(& ",
"  &:@@(&^{{{@@{{{^&&(@@@(: ",
"  &&@@@&&@@@@@@@@@@@@@@:&& ",
"   :(@@@#^^^^^^^##@@@&(&&  ",
"   &:@@@#^^^@@^^##@&(:&    ",
"    &(&@@@@@@@@@@@@(&:     ",
"     :((@#^^@@###@@&       ",
"      &@@^^^##^^#@@        ",
"        @@@@@@@@@@         ",
"       +++++++             ",
"       +++++++             ",
"       ++=(=++             ",
"        +++++              "};
