/* XPM */
static char * run_up_0_xpm[] = {
"27 47 25 1",
" 	c #5D2C28",
".	c #000008",
"+	c #310010",
"@	c #293139",
"#	c #CE8C4A",
"$	c #844239",
"%	c #AD634A",
"&	c #081818",
"*	c #FFE77B",
"=	c #DE9463",
"-	c #FFFF9C",
";	c #845A4A",
">	c #9C7B63",
",	c #DECEBD",
"'	c #421818",
")	c #F7B55A",
"!	c #FFC694",
"~	c #7B7B7B",
"{	c #181818",
"]	c #7B636B",
"^	c #FFFFEF",
"/	c #A5949C",
"(	c #E7DEDE",
"_	c #100000",
":	c #6B3931",
"         ..+++++..@##      ",
"    $%%.+&@@@@&&&&+.&&     ",
"  $%**.&@@@@@&&&&&&&.@     ",
"  $=**$%$@@@@&&&&&&@+@&    ",
" $=$$%--%@@@@@@&&&&&;.&    ",
" $$$%---$@@@@@@@&&&>>.>    ",
" $*$*--%>>@@@@@@@>>,;++.   ",
" $=%***$>>>>>>>>>>>;;+&&+. ",
" +$=**%$'&@@@&&''''';+&&&+ ",
".&%=**%$'@@@@@@@@''';)&&&&.",
".&$===%''@@@@@@@@''')>&&&&.",
".&@%==$->>@@@@@&&>>-)&&&@&.",
".+@&$$$>->-->->-->->&&&&@+.",
" .;&&&@@&&--->---&&@@&&&;. ",
"  .>;&&@@@@@@@@@@@@@&&;>.> ",
"  >.+>;;@@@@@@@@@@@;;>+.#> ",
"  >##.+>>,,,>>>>>>>>+.###> ",
"  >##!#..&&&&&&&&&..#!!##> ",
"  >##****!!!!!!!!!*****##> ",
"  >##******************#!> ",
"  >!#******************#!> ",
"  >>#!**************!**!>* ",
"  >>!!!!************!!!!># ",
"   >!!!!*****!!*****!!!!>* ",
"    >!!!!!***!!***!!!!!>## ",
"    >>>###!**!!!*!!**##>#  ",
"     ~>>##>>#!!!>#####~>   ",
"     ~>&##>&>##>&>##&>~~   ",
"     {{{{#&&>#>{{{{{{{{    ",
"     {{{{{{{{{{{{{{{{{{    ",
"     ]&{{{{{{{{{{{{{{{{    ",
"    ]&&&&{{{{&&{{&&{&&&]   ",
"   ]]^&&&&&{{&&{{&&&&&^]]  ",
"  &&]]/^&&&{{&&&&&&&^/]]&& ",
"  &&&&&&^&&&&&&&&&&^&&&&&& ",
"  /^&&&&]^^]&&&]]^^]&&&&^/ ",
"  ]/^&&&@@@]^^^^&&]@&&&/^] ",
"   ]/]^&@@^@@@@@&&&@&^/]]  ",
"     ]]^^(@@@@@@&&(^^]]    ",
"      ]]/^^^]^^^^^^/]]     ",
"      ___]/]_]///]]]_      ",
"      ________________     ",
"      ________________     ",
"       _______________     ",
"        __>^>_____>>_      ",
"         ______>^>:_       ",
"               ____        "};
